solid OpenSCAD_Model
  facet normal 0.661311 0.750112 -0
    outer loop
      vertex 3.35428 3.57195 0
      vertex 3.12338 3.77551 10
      vertex 3.35428 3.57195 10
    endloop
  endfacet
  facet normal 0.661311 0.750112 0
    outer loop
      vertex 3.12338 3.77551 10
      vertex 3.35428 3.57195 0
      vertex 3.12338 3.77551 0
    endloop
  endfacet
  facet normal -0.338737 0.940881 0
    outer loop
      vertex -1.51418 4.66018 0
      vertex -1.80381 4.5559 10
      vertex -1.51418 4.66018 10
    endloop
  endfacet
  facet normal -0.338737 0.940881 0
    outer loop
      vertex -1.80381 4.5559 10
      vertex -1.51418 4.66018 0
      vertex -1.80381 4.5559 0
    endloop
  endfacet
  facet normal -0.917754 0.397149 0
    outer loop
      vertex -4.5559 1.80381 0
      vertex -4.43365 2.08632 10
      vertex -4.43365 2.08632 0
    endloop
  endfacet
  facet normal -0.917754 0.397149 0
    outer loop
      vertex -4.43365 2.08632 10
      vertex -4.5559 1.80381 0
      vertex -4.5559 1.80381 10
    endloop
  endfacet
  facet normal 0.917754 0.397149 0
    outer loop
      vertex 4.5559 1.80381 10
      vertex 4.43365 2.08632 0
      vertex 4.43365 2.08632 10
    endloop
  endfacet
  facet normal 0.917754 0.397149 0
    outer loop
      vertex 4.43365 2.08632 0
      vertex 4.5559 1.80381 10
      vertex 4.5559 1.80381 0
    endloop
  endfacet
  facet normal 0.891007 0.453989 0
    outer loop
      vertex 4.43365 2.08632 10
      vertex 4.2939 2.36059 0
      vertex 4.2939 2.36059 10
    endloop
  endfacet
  facet normal 0.891007 0.453989 0
    outer loop
      vertex 4.2939 2.36059 0
      vertex 4.43365 2.08632 10
      vertex 4.43365 2.08632 0
    endloop
  endfacet
  facet normal 0.397149 0.917754 -0
    outer loop
      vertex 2.08632 4.43365 0
      vertex 1.80381 4.5559 10
      vertex 2.08632 4.43365 10
    endloop
  endfacet
  facet normal 0.397149 0.917754 0
    outer loop
      vertex 1.80381 4.5559 10
      vertex 2.08632 4.43365 0
      vertex 1.80381 4.5559 0
    endloop
  endfacet
  facet normal -0.987688 0.156435 0
    outer loop
      vertex -4.86136 0.614132 0
      vertex -4.81321 0.918168 10
      vertex -4.81321 0.918168 0
    endloop
  endfacet
  facet normal -0.987688 0.156435 0
    outer loop
      vertex -4.81321 0.918168 10
      vertex -4.86136 0.614132 0
      vertex -4.86136 0.614132 10
    endloop
  endfacet
  facet normal -0.707107 0.707107 0
    outer loop
      vertex -3.57195 3.35428 0
      vertex -3.35428 3.57195 10
      vertex -3.35428 3.57195 0
    endloop
  endfacet
  facet normal -0.707107 0.707107 0
    outer loop
      vertex -3.35428 3.57195 10
      vertex -3.57195 3.35428 0
      vertex -3.57195 3.35428 10
    endloop
  endfacet
  facet normal -0.156435 0.987688 0
    outer loop
      vertex -0.614132 4.86136 0
      vertex -0.918168 4.81321 10
      vertex -0.614132 4.86136 10
    endloop
  endfacet
  facet normal -0.156435 0.987688 0
    outer loop
      vertex -0.918168 4.81321 10
      vertex -0.614132 4.86136 0
      vertex -0.918168 4.81321 0
    endloop
  endfacet
  facet normal 0.750112 -0.661311 0
    outer loop
      vertex 3.57195 -3.35428 10
      vertex 3.77551 -3.12338 0
      vertex 3.77551 -3.12338 10
    endloop
  endfacet
  facet normal 0.750112 -0.661311 0
    outer loop
      vertex 3.77551 -3.12338 0
      vertex 3.57195 -3.35428 10
      vertex 3.57195 -3.35428 0
    endloop
  endfacet
  facet normal -0.156435 -0.987688 0
    outer loop
      vertex -0.918168 -4.81321 0
      vertex -0.614132 -4.86136 10
      vertex -0.918168 -4.81321 10
    endloop
  endfacet
  facet normal -0.156435 -0.987688 -0
    outer loop
      vertex -0.614132 -4.86136 10
      vertex -0.918168 -4.81321 0
      vertex -0.614132 -4.86136 0
    endloop
  endfacet
  facet normal -0.707107 -0.707107 0
    outer loop
      vertex -3.35428 -3.57195 0
      vertex -3.57195 -3.35428 10
      vertex -3.57195 -3.35428 0
    endloop
  endfacet
  facet normal -0.707107 -0.707107 0
    outer loop
      vertex -3.57195 -3.35428 10
      vertex -3.35428 -3.57195 0
      vertex -3.35428 -3.57195 10
    endloop
  endfacet
  facet normal 0.995562 0.0941082 0
    outer loop
      vertex 4.89033 0.307673 10
      vertex 4.86136 0.614132 0
      vertex 4.86136 0.614132 10
    endloop
  endfacet
  facet normal 0.995562 0.0941082 0
    outer loop
      vertex 4.86136 0.614132 0
      vertex 4.89033 0.307673 10
      vertex 4.89033 0.307673 0
    endloop
  endfacet
  facet normal 0.975917 0.218144 0
    outer loop
      vertex 4.79492 1 10
      vertex 4.74606 1.21858 0
      vertex 4.74606 1.21858 10
    endloop
  endfacet
  facet normal 0.975917 0.218142 -0
    outer loop
      vertex 4.81321 0.918168 0
      vertex 4.79492 1 10
      vertex 4.81321 0.918168 10
    endloop
  endfacet
  facet normal 0.975917 0.218143 -1.37636e-008
    outer loop
      vertex 4.79492 1 10
      vertex 4.81321 0.918168 0
      vertex 4.74606 1.21858 0
    endloop
  endfacet
  facet normal 0.82708 0.562084 0
    outer loop
      vertex 4.13721 2.62555 10
      vertex 3.96418 2.88015 0
      vertex 3.96418 2.88015 10
    endloop
  endfacet
  facet normal 0.82708 0.562084 0
    outer loop
      vertex 3.96418 2.88015 0
      vertex 4.13721 2.62555 10
      vertex 4.13721 2.62555 0
    endloop
  endfacet
  facet normal 0.707107 0.707107 0
    outer loop
      vertex 3.57195 3.35428 10
      vertex 3.35428 3.57195 0
      vertex 3.35428 3.57195 10
    endloop
  endfacet
  facet normal 0.707107 0.707107 0
    outer loop
      vertex 3.35428 3.57195 0
      vertex 3.57195 3.35428 10
      vertex 3.57195 3.35428 0
    endloop
  endfacet
  facet normal 0.562084 0.82708 -0
    outer loop
      vertex 2.88015 3.96418 0
      vertex 2.62555 4.13721 10
      vertex 2.88015 3.96418 10
    endloop
  endfacet
  facet normal 0.562084 0.82708 0
    outer loop
      vertex 2.62555 4.13721 10
      vertex 2.88015 3.96418 0
      vertex 2.62555 4.13721 0
    endloop
  endfacet
  facet normal 0.509042 0.860742 -0
    outer loop
      vertex 2.62555 4.13721 0
      vertex 2.36059 4.2939 10
      vertex 2.62555 4.13721 10
    endloop
  endfacet
  facet normal 0.509042 0.860742 0
    outer loop
      vertex 2.36059 4.2939 10
      vertex 2.62555 4.13721 0
      vertex 2.36059 4.2939 0
    endloop
  endfacet
  facet normal 0.0941082 0.995562 -0
    outer loop
      vertex 0.614132 4.86136 0
      vertex 0.307673 4.89033 10
      vertex 0.614132 4.86136 10
    endloop
  endfacet
  facet normal 0.0941082 0.995562 0
    outer loop
      vertex 0.307673 4.89033 10
      vertex 0.614132 4.86136 0
      vertex 0.307673 4.89033 0
    endloop
  endfacet
  facet normal 0.338737 0.940881 -0
    outer loop
      vertex 1.80381 4.5559 0
      vertex 1.51418 4.66018 10
      vertex 1.80381 4.5559 10
    endloop
  endfacet
  facet normal 0.338737 0.940881 0
    outer loop
      vertex 1.51418 4.66018 10
      vertex 1.80381 4.5559 0
      vertex 1.51418 4.66018 0
    endloop
  endfacet
  facet normal 0.218143 0.975917 -0
    outer loop
      vertex 1.21858 4.74606 0
      vertex 0.918168 4.81321 10
      vertex 1.21858 4.74606 10
    endloop
  endfacet
  facet normal 0.218143 0.975917 0
    outer loop
      vertex 0.918168 4.81321 10
      vertex 1.21858 4.74606 0
      vertex 0.918168 4.81321 0
    endloop
  endfacet
  facet normal -0.995562 0.0941082 0
    outer loop
      vertex -4.89033 0.307673 0
      vertex -4.86136 0.614132 10
      vertex -4.86136 0.614132 0
    endloop
  endfacet
  facet normal -0.995562 0.0941082 0
    outer loop
      vertex -4.86136 0.614132 10
      vertex -4.89033 0.307673 0
      vertex -4.89033 0.307673 10
    endloop
  endfacet
  facet normal -0.940881 0.338737 0
    outer loop
      vertex -4.66018 1.51418 0
      vertex -4.5559 1.80381 10
      vertex -4.5559 1.80381 0
    endloop
  endfacet
  facet normal -0.940881 0.338737 0
    outer loop
      vertex -4.5559 1.80381 10
      vertex -4.66018 1.51418 0
      vertex -4.66018 1.51418 10
    endloop
  endfacet
  facet normal -0.975917 0.218143 0
    outer loop
      vertex -4.81321 0.918168 0
      vertex -4.74606 1.21858 10
      vertex -4.74606 1.21858 0
    endloop
  endfacet
  facet normal -0.975917 0.218143 0
    outer loop
      vertex -4.74606 1.21858 10
      vertex -4.81321 0.918168 0
      vertex -4.81321 0.918168 10
    endloop
  endfacet
  facet normal -0.860742 0.509042 0
    outer loop
      vertex -4.2939 2.36059 0
      vertex -4.13721 2.62555 10
      vertex -4.13721 2.62555 0
    endloop
  endfacet
  facet normal -0.860742 0.509042 0
    outer loop
      vertex -4.13721 2.62555 10
      vertex -4.2939 2.36059 0
      vertex -4.2939 2.36059 10
    endloop
  endfacet
  facet normal -0.82708 0.562084 0
    outer loop
      vertex -4.13721 2.62555 0
      vertex -3.96418 2.88015 10
      vertex -3.96418 2.88015 0
    endloop
  endfacet
  facet normal -0.82708 0.562084 0
    outer loop
      vertex -3.96418 2.88015 10
      vertex -4.13721 2.62555 0
      vertex -4.13721 2.62555 10
    endloop
  endfacet
  facet normal -0.0941082 0.995562 0
    outer loop
      vertex -0.307673 4.89033 0
      vertex -0.614132 4.86136 10
      vertex -0.307673 4.89033 10
    endloop
  endfacet
  facet normal -0.0941082 0.995562 0
    outer loop
      vertex -0.614132 4.86136 10
      vertex -0.307673 4.89033 0
      vertex -0.614132 4.86136 0
    endloop
  endfacet
  facet normal -0.509042 0.860742 0
    outer loop
      vertex -2.36059 4.2939 0
      vertex -2.62555 4.13721 10
      vertex -2.36059 4.2939 10
    endloop
  endfacet
  facet normal -0.509042 0.860742 0
    outer loop
      vertex -2.62555 4.13721 10
      vertex -2.36059 4.2939 0
      vertex -2.62555 4.13721 0
    endloop
  endfacet
  facet normal -0.453989 0.891007 0
    outer loop
      vertex -2.08632 4.43365 0
      vertex -2.36059 4.2939 10
      vertex -2.08632 4.43365 10
    endloop
  endfacet
  facet normal -0.453989 0.891007 0
    outer loop
      vertex -2.36059 4.2939 10
      vertex -2.08632 4.43365 0
      vertex -2.36059 4.2939 0
    endloop
  endfacet
  facet normal -0.661311 0.750112 0
    outer loop
      vertex -3.12338 3.77551 0
      vertex -3.35428 3.57195 10
      vertex -3.12338 3.77551 10
    endloop
  endfacet
  facet normal -0.661311 0.750112 0
    outer loop
      vertex -3.35428 3.57195 10
      vertex -3.12338 3.77551 0
      vertex -3.35428 3.57195 0
    endloop
  endfacet
  facet normal 0.999507 0.0314117 0
    outer loop
      vertex 4.9 0 10
      vertex 4.89033 0.307673 0
      vertex 4.89033 0.307673 10
    endloop
  endfacet
  facet normal 0.999507 0.0314117 0
    outer loop
      vertex 4.89033 0.307673 0
      vertex 4.9 0 10
      vertex 4.9 0 0
    endloop
  endfacet
  facet normal 0.156435 -0.987688 0
    outer loop
      vertex 0.614132 -4.86136 0
      vertex 0.918168 -4.81321 10
      vertex 0.614132 -4.86136 10
    endloop
  endfacet
  facet normal 0.156435 -0.987688 0
    outer loop
      vertex 0.918168 -4.81321 10
      vertex 0.614132 -4.86136 0
      vertex 0.918168 -4.81321 0
    endloop
  endfacet
  facet normal 0.860742 -0.509042 0
    outer loop
      vertex 4.13721 -2.62555 10
      vertex 4.2939 -2.36059 0
      vertex 4.2939 -2.36059 10
    endloop
  endfacet
  facet normal 0.860742 -0.509042 0
    outer loop
      vertex 4.2939 -2.36059 0
      vertex 4.13721 -2.62555 10
      vertex 4.13721 -2.62555 0
    endloop
  endfacet
  facet normal 0.82708 -0.562084 0
    outer loop
      vertex 3.96418 -2.88015 10
      vertex 4.13721 -2.62555 0
      vertex 4.13721 -2.62555 10
    endloop
  endfacet
  facet normal 0.82708 -0.562084 0
    outer loop
      vertex 4.13721 -2.62555 0
      vertex 3.96418 -2.88015 10
      vertex 3.96418 -2.88015 0
    endloop
  endfacet
  facet normal -0.0941082 -0.995562 0
    outer loop
      vertex -0.614132 -4.86136 0
      vertex -0.307673 -4.89033 10
      vertex -0.614132 -4.86136 10
    endloop
  endfacet
  facet normal -0.0941082 -0.995562 -0
    outer loop
      vertex -0.307673 -4.89033 10
      vertex -0.614132 -4.86136 0
      vertex -0.307673 -4.89033 0
    endloop
  endfacet
  facet normal -0.338737 -0.940881 0
    outer loop
      vertex -1.80381 -4.5559 0
      vertex -1.51418 -4.66018 10
      vertex -1.80381 -4.5559 10
    endloop
  endfacet
  facet normal -0.338737 -0.940881 -0
    outer loop
      vertex -1.51418 -4.66018 10
      vertex -1.80381 -4.5559 0
      vertex -1.51418 -4.66018 0
    endloop
  endfacet
  facet normal -0.218143 -0.975917 0
    outer loop
      vertex -1.21858 -4.74606 0
      vertex -0.918168 -4.81321 10
      vertex -1.21858 -4.74606 10
    endloop
  endfacet
  facet normal -0.218143 -0.975917 -0
    outer loop
      vertex -0.918168 -4.81321 10
      vertex -1.21858 -4.74606 0
      vertex -0.918168 -4.81321 0
    endloop
  endfacet
  facet normal -0.509042 -0.860742 0
    outer loop
      vertex -2.62555 -4.13721 0
      vertex -2.36059 -4.2939 10
      vertex -2.62555 -4.13721 10
    endloop
  endfacet
  facet normal -0.509042 -0.860742 -0
    outer loop
      vertex -2.36059 -4.2939 10
      vertex -2.62555 -4.13721 0
      vertex -2.36059 -4.2939 0
    endloop
  endfacet
  facet normal -0.562084 -0.82708 0
    outer loop
      vertex -2.88015 -3.96418 0
      vertex -2.62555 -4.13721 10
      vertex -2.88015 -3.96418 10
    endloop
  endfacet
  facet normal -0.562084 -0.82708 -0
    outer loop
      vertex -2.62555 -4.13721 10
      vertex -2.88015 -3.96418 0
      vertex -2.62555 -4.13721 0
    endloop
  endfacet
  facet normal 0 0 -1
    outer loop
      vertex 4.89033 -0.307673 0
      vertex 4.89033 0.307673 0
      vertex 4.9 0 0
    endloop
  endfacet
  facet normal 0 0 -1
    outer loop
      vertex 4.86136 -0.614132 0
      vertex 4.89033 0.307673 0
      vertex 4.89033 -0.307673 0
    endloop
  endfacet
  facet normal 0 0 -1
    outer loop
      vertex 4.86136 -0.614132 0
      vertex 4.86136 0.614132 0
      vertex 4.89033 0.307673 0
    endloop
  endfacet
  facet normal 0 0 -1
    outer loop
      vertex 4.81321 -0.918168 0
      vertex 4.86136 0.614132 0
      vertex 4.86136 -0.614132 0
    endloop
  endfacet
  facet normal 0 0 -1
    outer loop
      vertex 4.81321 -0.918168 0
      vertex 4.81321 0.918168 0
      vertex 4.86136 0.614132 0
    endloop
  endfacet
  facet normal 0 0 -1
    outer loop
      vertex 4.74606 -1.21858 0
      vertex 4.81321 0.918168 0
      vertex 4.81321 -0.918168 0
    endloop
  endfacet
  facet normal 0 0 -1
    outer loop
      vertex 4.74606 -1.21858 0
      vertex 4.74606 1.21858 0
      vertex 4.81321 0.918168 0
    endloop
  endfacet
  facet normal 0 0 -1
    outer loop
      vertex 4.66018 -1.51418 0
      vertex 4.74606 1.21858 0
      vertex 4.74606 -1.21858 0
    endloop
  endfacet
  facet normal 0 0 -1
    outer loop
      vertex 4.66018 -1.51418 0
      vertex 4.66018 1.51418 0
      vertex 4.74606 1.21858 0
    endloop
  endfacet
  facet normal 0 0 -1
    outer loop
      vertex 4.5559 -1.80381 0
      vertex 4.66018 1.51418 0
      vertex 4.66018 -1.51418 0
    endloop
  endfacet
  facet normal 0 0 -1
    outer loop
      vertex 4.5559 -1.80381 0
      vertex 4.5559 1.80381 0
      vertex 4.66018 1.51418 0
    endloop
  endfacet
  facet normal 0 0 -1
    outer loop
      vertex 4.43365 -2.08632 0
      vertex 4.5559 1.80381 0
      vertex 4.5559 -1.80381 0
    endloop
  endfacet
  facet normal 0 0 -1
    outer loop
      vertex 4.43365 -2.08632 0
      vertex 4.43365 2.08632 0
      vertex 4.5559 1.80381 0
    endloop
  endfacet
  facet normal 0 0 -1
    outer loop
      vertex 4.2939 -2.36059 0
      vertex 4.43365 2.08632 0
      vertex 4.43365 -2.08632 0
    endloop
  endfacet
  facet normal 0 0 -1
    outer loop
      vertex 4.2939 -2.36059 0
      vertex 4.2939 2.36059 0
      vertex 4.43365 2.08632 0
    endloop
  endfacet
  facet normal 0 0 -1
    outer loop
      vertex 4.13721 -2.62555 0
      vertex 4.2939 2.36059 0
      vertex 4.2939 -2.36059 0
    endloop
  endfacet
  facet normal 0 0 -1
    outer loop
      vertex 4.13721 -2.62555 0
      vertex 4.13721 2.62555 0
      vertex 4.2939 2.36059 0
    endloop
  endfacet
  facet normal 0 0 -1
    outer loop
      vertex 3.96418 -2.88015 0
      vertex 4.13721 2.62555 0
      vertex 4.13721 -2.62555 0
    endloop
  endfacet
  facet normal 0 0 -1
    outer loop
      vertex 3.96418 -2.88015 0
      vertex 3.96418 2.88015 0
      vertex 4.13721 2.62555 0
    endloop
  endfacet
  facet normal 0 0 -1
    outer loop
      vertex 3.77551 -3.12338 0
      vertex 3.96418 2.88015 0
      vertex 3.96418 -2.88015 0
    endloop
  endfacet
  facet normal 0 0 -1
    outer loop
      vertex 3.77551 -3.12338 0
      vertex 3.77551 3.12338 0
      vertex 3.96418 2.88015 0
    endloop
  endfacet
  facet normal 0 0 -1
    outer loop
      vertex 3.57195 -3.35428 0
      vertex 3.77551 3.12338 0
      vertex 3.77551 -3.12338 0
    endloop
  endfacet
  facet normal 0 0 -1
    outer loop
      vertex 3.57195 -3.35428 0
      vertex 3.57195 3.35428 0
      vertex 3.77551 3.12338 0
    endloop
  endfacet
  facet normal 0 0 -1
    outer loop
      vertex 3.35428 -3.57195 0
      vertex 3.57195 3.35428 0
      vertex 3.57195 -3.35428 0
    endloop
  endfacet
  facet normal 0 0 -1
    outer loop
      vertex 3.35428 -3.57195 0
      vertex 3.35428 3.57195 0
      vertex 3.57195 3.35428 0
    endloop
  endfacet
  facet normal 0 0 -1
    outer loop
      vertex 3.12338 -3.77551 0
      vertex 3.35428 3.57195 0
      vertex 3.35428 -3.57195 0
    endloop
  endfacet
  facet normal 0 0 -1
    outer loop
      vertex 3.12338 -3.77551 0
      vertex 3.12338 3.77551 0
      vertex 3.35428 3.57195 0
    endloop
  endfacet
  facet normal 0 0 -1
    outer loop
      vertex 2.88015 -3.96418 0
      vertex 3.12338 3.77551 0
      vertex 3.12338 -3.77551 0
    endloop
  endfacet
  facet normal 0 0 -1
    outer loop
      vertex 2.88015 -3.96418 0
      vertex 2.88015 3.96418 0
      vertex 3.12338 3.77551 0
    endloop
  endfacet
  facet normal 0 0 -1
    outer loop
      vertex 2.62555 -4.13721 0
      vertex 2.88015 3.96418 0
      vertex 2.88015 -3.96418 0
    endloop
  endfacet
  facet normal 0 0 -1
    outer loop
      vertex 2.62555 -4.13721 0
      vertex 2.62555 4.13721 0
      vertex 2.88015 3.96418 0
    endloop
  endfacet
  facet normal 0 0 -1
    outer loop
      vertex 2.36059 -4.2939 0
      vertex 2.62555 4.13721 0
      vertex 2.62555 -4.13721 0
    endloop
  endfacet
  facet normal 0 0 -1
    outer loop
      vertex 2.36059 -4.2939 0
      vertex 2.36059 4.2939 0
      vertex 2.62555 4.13721 0
    endloop
  endfacet
  facet normal 0 0 -1
    outer loop
      vertex 2.08632 -4.43365 0
      vertex 2.36059 4.2939 0
      vertex 2.36059 -4.2939 0
    endloop
  endfacet
  facet normal 0 0 -1
    outer loop
      vertex 2.08632 -4.43365 0
      vertex 2.08632 4.43365 0
      vertex 2.36059 4.2939 0
    endloop
  endfacet
  facet normal 0 0 -1
    outer loop
      vertex 1.80381 -4.5559 0
      vertex 2.08632 4.43365 0
      vertex 2.08632 -4.43365 0
    endloop
  endfacet
  facet normal 0 0 -1
    outer loop
      vertex 1.80381 -4.5559 0
      vertex 1.80381 4.5559 0
      vertex 2.08632 4.43365 0
    endloop
  endfacet
  facet normal 0 0 -1
    outer loop
      vertex 1.51418 -4.66018 0
      vertex 1.80381 4.5559 0
      vertex 1.80381 -4.5559 0
    endloop
  endfacet
  facet normal 0 0 -1
    outer loop
      vertex 1.51418 -4.66018 0
      vertex 1.51418 4.66018 0
      vertex 1.80381 4.5559 0
    endloop
  endfacet
  facet normal 0 0 -1
    outer loop
      vertex 1.21858 -4.74606 0
      vertex 1.51418 4.66018 0
      vertex 1.51418 -4.66018 0
    endloop
  endfacet
  facet normal 0 0 -1
    outer loop
      vertex 1.21858 -4.74606 0
      vertex 1.21858 4.74606 0
      vertex 1.51418 4.66018 0
    endloop
  endfacet
  facet normal 0 0 -1
    outer loop
      vertex 0.918168 -4.81321 0
      vertex 1.21858 4.74606 0
      vertex 1.21858 -4.74606 0
    endloop
  endfacet
  facet normal 0 0 -1
    outer loop
      vertex 0.918168 -4.81321 0
      vertex 0.918168 4.81321 0
      vertex 1.21858 4.74606 0
    endloop
  endfacet
  facet normal 0 0 -1
    outer loop
      vertex 0.614132 -4.86136 0
      vertex 0.918168 4.81321 0
      vertex 0.918168 -4.81321 0
    endloop
  endfacet
  facet normal 0 0 -1
    outer loop
      vertex 0.614132 -4.86136 0
      vertex 0.614132 4.86136 0
      vertex 0.918168 4.81321 0
    endloop
  endfacet
  facet normal 0 0 -1
    outer loop
      vertex 0.307673 -4.89033 0
      vertex 0.614132 4.86136 0
      vertex 0.614132 -4.86136 0
    endloop
  endfacet
  facet normal 0 0 -1
    outer loop
      vertex 0.307673 -4.89033 0
      vertex 0.307673 4.89033 0
      vertex 0.614132 4.86136 0
    endloop
  endfacet
  facet normal 0 0 -1
    outer loop
      vertex 0 -4.9 0
      vertex 0.307673 4.89033 0
      vertex 0.307673 -4.89033 0
    endloop
  endfacet
  facet normal 0 0 -1
    outer loop
      vertex 0 -4.9 0
      vertex 0 4.9 0
      vertex 0.307673 4.89033 0
    endloop
  endfacet
  facet normal 0 0 -1
    outer loop
      vertex -0.307673 -4.89033 0
      vertex 0 4.9 0
      vertex 0 -4.9 0
    endloop
  endfacet
  facet normal 0 0 -1
    outer loop
      vertex -0.307673 -4.89033 0
      vertex -0.307673 4.89033 0
      vertex 0 4.9 0
    endloop
  endfacet
  facet normal 0 0 -1
    outer loop
      vertex -0.614132 -4.86136 0
      vertex -0.307673 4.89033 0
      vertex -0.307673 -4.89033 0
    endloop
  endfacet
  facet normal 0 0 -1
    outer loop
      vertex -0.614132 -4.86136 0
      vertex -0.614132 4.86136 0
      vertex -0.307673 4.89033 0
    endloop
  endfacet
  facet normal 0 0 -1
    outer loop
      vertex -0.918168 -4.81321 0
      vertex -0.614132 4.86136 0
      vertex -0.614132 -4.86136 0
    endloop
  endfacet
  facet normal 0 0 -1
    outer loop
      vertex -0.918168 -4.81321 0
      vertex -0.918168 4.81321 0
      vertex -0.614132 4.86136 0
    endloop
  endfacet
  facet normal 0 0 -1
    outer loop
      vertex -1.21858 -4.74606 0
      vertex -0.918168 4.81321 0
      vertex -0.918168 -4.81321 0
    endloop
  endfacet
  facet normal 0 0 -1
    outer loop
      vertex -1.21858 -4.74606 0
      vertex -1.21858 4.74606 0
      vertex -0.918168 4.81321 0
    endloop
  endfacet
  facet normal 0 0 -1
    outer loop
      vertex -1.51418 -4.66018 0
      vertex -1.21858 4.74606 0
      vertex -1.21858 -4.74606 0
    endloop
  endfacet
  facet normal 0 0 -1
    outer loop
      vertex -1.51418 -4.66018 0
      vertex -1.51418 4.66018 0
      vertex -1.21858 4.74606 0
    endloop
  endfacet
  facet normal 0 0 -1
    outer loop
      vertex -1.80381 -4.5559 0
      vertex -1.51418 4.66018 0
      vertex -1.51418 -4.66018 0
    endloop
  endfacet
  facet normal 0 0 -1
    outer loop
      vertex -1.80381 -4.5559 0
      vertex -1.80381 4.5559 0
      vertex -1.51418 4.66018 0
    endloop
  endfacet
  facet normal 0 0 -1
    outer loop
      vertex -2.08632 -4.43365 0
      vertex -1.80381 4.5559 0
      vertex -1.80381 -4.5559 0
    endloop
  endfacet
  facet normal 0 0 -1
    outer loop
      vertex -2.08632 -4.43365 0
      vertex -2.08632 4.43365 0
      vertex -1.80381 4.5559 0
    endloop
  endfacet
  facet normal 0 0 -1
    outer loop
      vertex -2.36059 -4.2939 0
      vertex -2.08632 4.43365 0
      vertex -2.08632 -4.43365 0
    endloop
  endfacet
  facet normal 0 0 -1
    outer loop
      vertex -2.36059 -4.2939 0
      vertex -2.36059 4.2939 0
      vertex -2.08632 4.43365 0
    endloop
  endfacet
  facet normal 0 0 -1
    outer loop
      vertex -2.62555 -4.13721 0
      vertex -2.36059 4.2939 0
      vertex -2.36059 -4.2939 0
    endloop
  endfacet
  facet normal 0 0 -1
    outer loop
      vertex -2.62555 -4.13721 0
      vertex -2.62555 4.13721 0
      vertex -2.36059 4.2939 0
    endloop
  endfacet
  facet normal 0 0 -1
    outer loop
      vertex -2.88015 -3.96418 0
      vertex -2.62555 4.13721 0
      vertex -2.62555 -4.13721 0
    endloop
  endfacet
  facet normal 0 0 -1
    outer loop
      vertex -2.88015 -3.96418 0
      vertex -2.88015 3.96418 0
      vertex -2.62555 4.13721 0
    endloop
  endfacet
  facet normal 0 0 -1
    outer loop
      vertex -3.12338 -3.77551 0
      vertex -2.88015 3.96418 0
      vertex -2.88015 -3.96418 0
    endloop
  endfacet
  facet normal 0 0 -1
    outer loop
      vertex -3.12338 -3.77551 0
      vertex -3.12338 3.77551 0
      vertex -2.88015 3.96418 0
    endloop
  endfacet
  facet normal 0 0 -1
    outer loop
      vertex -3.35428 -3.57195 0
      vertex -3.12338 3.77551 0
      vertex -3.12338 -3.77551 0
    endloop
  endfacet
  facet normal 0 0 -1
    outer loop
      vertex -3.35428 -3.57195 0
      vertex -3.35428 3.57195 0
      vertex -3.12338 3.77551 0
    endloop
  endfacet
  facet normal 0 0 -1
    outer loop
      vertex -3.57195 -3.35428 0
      vertex -3.35428 3.57195 0
      vertex -3.35428 -3.57195 0
    endloop
  endfacet
  facet normal 0 0 -1
    outer loop
      vertex -3.57195 -3.35428 0
      vertex -3.57195 3.35428 0
      vertex -3.35428 3.57195 0
    endloop
  endfacet
  facet normal 0 0 -1
    outer loop
      vertex -3.77551 -3.12338 0
      vertex -3.57195 3.35428 0
      vertex -3.57195 -3.35428 0
    endloop
  endfacet
  facet normal 0 0 -1
    outer loop
      vertex -3.77551 -3.12338 0
      vertex -3.77551 3.12338 0
      vertex -3.57195 3.35428 0
    endloop
  endfacet
  facet normal 0 0 -1
    outer loop
      vertex -3.96418 -2.88015 0
      vertex -3.77551 3.12338 0
      vertex -3.77551 -3.12338 0
    endloop
  endfacet
  facet normal 0 0 -1
    outer loop
      vertex -3.96418 -2.88015 0
      vertex -3.96418 2.88015 0
      vertex -3.77551 3.12338 0
    endloop
  endfacet
  facet normal 0 0 -1
    outer loop
      vertex -4.13721 -2.62555 0
      vertex -3.96418 2.88015 0
      vertex -3.96418 -2.88015 0
    endloop
  endfacet
  facet normal 0 0 -1
    outer loop
      vertex -4.13721 -2.62555 0
      vertex -4.13721 2.62555 0
      vertex -3.96418 2.88015 0
    endloop
  endfacet
  facet normal 0 0 -1
    outer loop
      vertex -4.2939 -2.36059 0
      vertex -4.13721 2.62555 0
      vertex -4.13721 -2.62555 0
    endloop
  endfacet
  facet normal 0 0 -1
    outer loop
      vertex -4.2939 -2.36059 0
      vertex -4.2939 2.36059 0
      vertex -4.13721 2.62555 0
    endloop
  endfacet
  facet normal 0 0 -1
    outer loop
      vertex -4.43365 -2.08632 0
      vertex -4.2939 2.36059 0
      vertex -4.2939 -2.36059 0
    endloop
  endfacet
  facet normal 0 0 -1
    outer loop
      vertex -4.43365 -2.08632 0
      vertex -4.43365 2.08632 0
      vertex -4.2939 2.36059 0
    endloop
  endfacet
  facet normal 0 0 -1
    outer loop
      vertex -4.5559 -1.80381 0
      vertex -4.43365 2.08632 0
      vertex -4.43365 -2.08632 0
    endloop
  endfacet
  facet normal 0 0 -1
    outer loop
      vertex -4.5559 -1.80381 0
      vertex -4.5559 1.80381 0
      vertex -4.43365 2.08632 0
    endloop
  endfacet
  facet normal 0 0 -1
    outer loop
      vertex -4.66018 -1.51418 0
      vertex -4.5559 1.80381 0
      vertex -4.5559 -1.80381 0
    endloop
  endfacet
  facet normal 0 0 -1
    outer loop
      vertex -4.66018 -1.51418 0
      vertex -4.66018 1.51418 0
      vertex -4.5559 1.80381 0
    endloop
  endfacet
  facet normal 0 0 -1
    outer loop
      vertex -4.74606 -1.21858 0
      vertex -4.66018 1.51418 0
      vertex -4.66018 -1.51418 0
    endloop
  endfacet
  facet normal 0 0 -1
    outer loop
      vertex -4.74606 -1.21858 0
      vertex -4.74606 1.21858 0
      vertex -4.66018 1.51418 0
    endloop
  endfacet
  facet normal 0 0 -1
    outer loop
      vertex -4.81321 -0.918168 0
      vertex -4.74606 1.21858 0
      vertex -4.74606 -1.21858 0
    endloop
  endfacet
  facet normal 0 0 -1
    outer loop
      vertex -4.81321 -0.918168 0
      vertex -4.81321 0.918168 0
      vertex -4.74606 1.21858 0
    endloop
  endfacet
  facet normal 0 0 -1
    outer loop
      vertex -4.86136 -0.614132 0
      vertex -4.81321 0.918168 0
      vertex -4.81321 -0.918168 0
    endloop
  endfacet
  facet normal 0 0 -1
    outer loop
      vertex -4.86136 -0.614132 0
      vertex -4.86136 0.614132 0
      vertex -4.81321 0.918168 0
    endloop
  endfacet
  facet normal 0 0 -1
    outer loop
      vertex -4.89033 -0.307673 0
      vertex -4.86136 0.614132 0
      vertex -4.86136 -0.614132 0
    endloop
  endfacet
  facet normal 0 0 -1
    outer loop
      vertex -4.89033 -0.307673 0
      vertex -4.89033 0.307673 0
      vertex -4.86136 0.614132 0
    endloop
  endfacet
  facet normal 0 -0 -1
    outer loop
      vertex -4.89033 0.307673 0
      vertex -4.89033 -0.307673 0
      vertex -4.9 0 0
    endloop
  endfacet
  facet normal 0.987688 0.156435 0
    outer loop
      vertex 4.86136 0.614132 10
      vertex 4.81321 0.918168 0
      vertex 4.81321 0.918168 10
    endloop
  endfacet
  facet normal 0.987688 0.156435 0
    outer loop
      vertex 4.81321 0.918168 0
      vertex 4.86136 0.614132 10
      vertex 4.86136 0.614132 0
    endloop
  endfacet
  facet normal 0.940881 0.338737 0
    outer loop
      vertex 4.66018 1.51418 10
      vertex 4.5559 1.80381 0
      vertex 4.5559 1.80381 10
    endloop
  endfacet
  facet normal 0.940881 0.338737 0
    outer loop
      vertex 4.5559 1.80381 0
      vertex 4.66018 1.51418 10
      vertex 4.66018 1.51418 0
    endloop
  endfacet
  facet normal 0.960294 0.27899 0
    outer loop
      vertex 4.74606 1.21858 10
      vertex 4.66018 1.51418 0
      vertex 4.66018 1.51418 10
    endloop
  endfacet
  facet normal 0.960294 0.27899 0
    outer loop
      vertex 4.66018 1.51418 0
      vertex 4.74606 1.21858 10
      vertex 4.74606 1.21858 0
    endloop
  endfacet
  facet normal 0.860742 0.509042 0
    outer loop
      vertex 4.2939 2.36059 10
      vertex 4.13721 2.62555 0
      vertex 4.13721 2.62555 10
    endloop
  endfacet
  facet normal 0.860742 0.509042 0
    outer loop
      vertex 4.13721 2.62555 0
      vertex 4.2939 2.36059 10
      vertex 4.2939 2.36059 0
    endloop
  endfacet
  facet normal 0.750112 0.661311 0
    outer loop
      vertex 3.77551 3.12338 10
      vertex 3.57195 3.35428 0
      vertex 3.57195 3.35428 10
    endloop
  endfacet
  facet normal 0.750112 0.661311 0
    outer loop
      vertex 3.57195 3.35428 0
      vertex 3.77551 3.12338 10
      vertex 3.77551 3.12338 0
    endloop
  endfacet
  facet normal 0.790155 0.612907 0
    outer loop
      vertex 3.96418 2.88015 10
      vertex 3.77551 3.12338 0
      vertex 3.77551 3.12338 10
    endloop
  endfacet
  facet normal 0.790155 0.612907 0
    outer loop
      vertex 3.77551 3.12338 0
      vertex 3.96418 2.88015 10
      vertex 3.96418 2.88015 0
    endloop
  endfacet
  facet normal 0.0314117 0.999507 -0
    outer loop
      vertex 0.307673 4.89033 0
      vertex 0 4.9 10
      vertex 0.307673 4.89033 10
    endloop
  endfacet
  facet normal 0.0314117 0.999507 0
    outer loop
      vertex 0 4.9 10
      vertex 0.307673 4.89033 0
      vertex 0 4.9 0
    endloop
  endfacet
  facet normal 0.612907 0.790155 -0
    outer loop
      vertex 3.12338 3.77551 0
      vertex 2.88015 3.96418 10
      vertex 3.12338 3.77551 10
    endloop
  endfacet
  facet normal 0.612907 0.790155 0
    outer loop
      vertex 2.88015 3.96418 10
      vertex 3.12338 3.77551 0
      vertex 2.88015 3.96418 0
    endloop
  endfacet
  facet normal 0.453989 0.891007 -0
    outer loop
      vertex 2.36059 4.2939 0
      vertex 2.08632 4.43365 10
      vertex 2.36059 4.2939 10
    endloop
  endfacet
  facet normal 0.453989 0.891007 0
    outer loop
      vertex 2.08632 4.43365 10
      vertex 2.36059 4.2939 0
      vertex 2.08632 4.43365 0
    endloop
  endfacet
  facet normal 0.156435 0.987688 -0
    outer loop
      vertex 0.918168 4.81321 0
      vertex 0.614132 4.86136 10
      vertex 0.918168 4.81321 10
    endloop
  endfacet
  facet normal 0.156435 0.987688 0
    outer loop
      vertex 0.614132 4.86136 10
      vertex 0.918168 4.81321 0
      vertex 0.614132 4.86136 0
    endloop
  endfacet
  facet normal 0.27899 0.960294 -0
    outer loop
      vertex 1.51418 4.66018 0
      vertex 1.21858 4.74606 10
      vertex 1.51418 4.66018 10
    endloop
  endfacet
  facet normal 0.27899 0.960294 0
    outer loop
      vertex 1.21858 4.74606 10
      vertex 1.51418 4.66018 0
      vertex 1.21858 4.74606 0
    endloop
  endfacet
  facet normal -0.999507 0.0314117 0
    outer loop
      vertex -4.9 0 0
      vertex -4.89033 0.307673 10
      vertex -4.89033 0.307673 0
    endloop
  endfacet
  facet normal -0.999507 0.0314117 0
    outer loop
      vertex -4.89033 0.307673 10
      vertex -4.9 0 0
      vertex -4.9 0 10
    endloop
  endfacet
  facet normal 0 0 1
    outer loop
      vertex 1 1 10
      vertex 4.74606 1.21858 10
      vertex 4.66018 1.51418 10
    endloop
  endfacet
  facet normal 0 0 1
    outer loop
      vertex 1 1 10
      vertex 4.66018 1.51418 10
      vertex 4.5559 1.80381 10
    endloop
  endfacet
  facet normal 0 0 1
    outer loop
      vertex 1 1 10
      vertex 4.5559 1.80381 10
      vertex 4.43365 2.08632 10
    endloop
  endfacet
  facet normal 0 0 1
    outer loop
      vertex 1 1 10
      vertex 4.43365 2.08632 10
      vertex 4.2939 2.36059 10
    endloop
  endfacet
  facet normal 0 0 1
    outer loop
      vertex 1 1 10
      vertex 4.2939 2.36059 10
      vertex 4.13721 2.62555 10
    endloop
  endfacet
  facet normal 0 0 1
    outer loop
      vertex 1 1 10
      vertex 4.13721 2.62555 10
      vertex 3.96418 2.88015 10
    endloop
  endfacet
  facet normal 0 0 1
    outer loop
      vertex 1 1 10
      vertex 3.96418 2.88015 10
      vertex 3.77551 3.12338 10
    endloop
  endfacet
  facet normal 0 0 1
    outer loop
      vertex 1 1 10
      vertex 3.77551 3.12338 10
      vertex 3.57195 3.35428 10
    endloop
  endfacet
  facet normal 0 0 1
    outer loop
      vertex 1 1 10
      vertex 3.57195 3.35428 10
      vertex 3.35428 3.57195 10
    endloop
  endfacet
  facet normal 0 0 1
    outer loop
      vertex 1 1 10
      vertex 3.35428 3.57195 10
      vertex 3.12338 3.77551 10
    endloop
  endfacet
  facet normal 0 0 1
    outer loop
      vertex 1 1 10
      vertex 3.12338 3.77551 10
      vertex 2.88015 3.96418 10
    endloop
  endfacet
  facet normal 0 0 1
    outer loop
      vertex 1 1 10
      vertex 2.88015 3.96418 10
      vertex 2.62555 4.13721 10
    endloop
  endfacet
  facet normal 0 0 1
    outer loop
      vertex 1 1 10
      vertex 2.62555 4.13721 10
      vertex 2.36059 4.2939 10
    endloop
  endfacet
  facet normal 0 0 1
    outer loop
      vertex 1 1 10
      vertex 2.36059 4.2939 10
      vertex 2.08632 4.43365 10
    endloop
  endfacet
  facet normal 0 0 1
    outer loop
      vertex 1 1 10
      vertex 2.08632 4.43365 10
      vertex 1.80381 4.5559 10
    endloop
  endfacet
  facet normal 0 0 1
    outer loop
      vertex 1 1 10
      vertex 1.80381 4.5559 10
      vertex 1.51418 4.66018 10
    endloop
  endfacet
  facet normal 0 0 1
    outer loop
      vertex 1 1 10
      vertex 1.51418 4.66018 10
      vertex 1.21858 4.74606 10
    endloop
  endfacet
  facet normal 0 0 1
    outer loop
      vertex 4.74606 1.21858 10
      vertex 1 1 10
      vertex 4.79492 1 10
    endloop
  endfacet
  facet normal 0 0 1
    outer loop
      vertex 0.614132 4.86136 10
      vertex 1 1 10
      vertex 0.918168 4.81321 10
    endloop
  endfacet
  facet normal 0 0 1
    outer loop
      vertex 0.918168 4.81321 10
      vertex 1 1 10
      vertex 1.21858 4.74606 10
    endloop
  endfacet
  facet normal -0 0 1
    outer loop
      vertex 1 -1 10
      vertex 4.74606 -1.21858 10
      vertex 4.79492 -1 10
    endloop
  endfacet
  facet normal 0 0 1
    outer loop
      vertex 4.74606 -1.21858 10
      vertex 1 -1 10
      vertex 4.66018 -1.51418 10
    endloop
  endfacet
  facet normal 0 0 1
    outer loop
      vertex 4.66018 -1.51418 10
      vertex 1 -1 10
      vertex 4.5559 -1.80381 10
    endloop
  endfacet
  facet normal 0 0 1
    outer loop
      vertex 4.5559 -1.80381 10
      vertex 1 -1 10
      vertex 4.43365 -2.08632 10
    endloop
  endfacet
  facet normal 0 0 1
    outer loop
      vertex 4.43365 -2.08632 10
      vertex 1 -1 10
      vertex 4.2939 -2.36059 10
    endloop
  endfacet
  facet normal 0 0 1
    outer loop
      vertex 4.2939 -2.36059 10
      vertex 1 -1 10
      vertex 4.13721 -2.62555 10
    endloop
  endfacet
  facet normal 0 0 1
    outer loop
      vertex 4.13721 -2.62555 10
      vertex 1 -1 10
      vertex 3.96418 -2.88015 10
    endloop
  endfacet
  facet normal 0 0 1
    outer loop
      vertex 3.96418 -2.88015 10
      vertex 1 -1 10
      vertex 3.77551 -3.12338 10
    endloop
  endfacet
  facet normal 0 0 1
    outer loop
      vertex 3.77551 -3.12338 10
      vertex 1 -1 10
      vertex 3.57195 -3.35428 10
    endloop
  endfacet
  facet normal 0 0 1
    outer loop
      vertex 3.57195 -3.35428 10
      vertex 1 -1 10
      vertex 3.35428 -3.57195 10
    endloop
  endfacet
  facet normal 0 0 1
    outer loop
      vertex 3.35428 -3.57195 10
      vertex 1 -1 10
      vertex 3.12338 -3.77551 10
    endloop
  endfacet
  facet normal 0 0 1
    outer loop
      vertex 3.12338 -3.77551 10
      vertex 1 -1 10
      vertex 2.88015 -3.96418 10
    endloop
  endfacet
  facet normal 0 0 1
    outer loop
      vertex 2.88015 -3.96418 10
      vertex 1 -1 10
      vertex 2.62555 -4.13721 10
    endloop
  endfacet
  facet normal 0 0 1
    outer loop
      vertex 2.62555 -4.13721 10
      vertex 1 -1 10
      vertex 2.36059 -4.2939 10
    endloop
  endfacet
  facet normal 0 0 1
    outer loop
      vertex 2.36059 -4.2939 10
      vertex 1 -1 10
      vertex 2.08632 -4.43365 10
    endloop
  endfacet
  facet normal 0 0 1
    outer loop
      vertex 2.08632 -4.43365 10
      vertex 1 -1 10
      vertex 1.80381 -4.5559 10
    endloop
  endfacet
  facet normal 0 0 1
    outer loop
      vertex 1.80381 -4.5559 10
      vertex 1 -1 10
      vertex 1.51418 -4.66018 10
    endloop
  endfacet
  facet normal 0 0 1
    outer loop
      vertex 1.51418 -4.66018 10
      vertex 1 -1 10
      vertex 1.21858 -4.74606 10
    endloop
  endfacet
  facet normal 0 0 1
    outer loop
      vertex 1 -1 10
      vertex 0.918168 -4.81321 10
      vertex 1.21858 -4.74606 10
    endloop
  endfacet
  facet normal 0 0 1
    outer loop
      vertex 0.307673 4.89033 10
      vertex 1 1 10
      vertex 0.614132 4.86136 10
    endloop
  endfacet
  facet normal 0 0 1
    outer loop
      vertex 0 4.9 10
      vertex 1 1 10
      vertex 0.307673 4.89033 10
    endloop
  endfacet
  facet normal 0 0 1
    outer loop
      vertex 1 -1 10
      vertex 0.614132 -4.86136 10
      vertex 0.918168 -4.81321 10
    endloop
  endfacet
  facet normal -0 0 1
    outer loop
      vertex -0.307673 4.89033 10
      vertex 1 1 10
      vertex 0 4.9 10
    endloop
  endfacet
  facet normal 0 0 1
    outer loop
      vertex 1 -1 10
      vertex 0.307673 -4.89033 10
      vertex 0.614132 -4.86136 10
    endloop
  endfacet
  facet normal -0 0 1
    outer loop
      vertex -0.614132 4.86136 10
      vertex 1 1 10
      vertex -0.307673 4.89033 10
    endloop
  endfacet
  facet normal 0 0 1
    outer loop
      vertex 1 -1 10
      vertex 0 -4.9 10
      vertex 0.307673 -4.89033 10
    endloop
  endfacet
  facet normal -0 0 1
    outer loop
      vertex -0.918168 4.81321 10
      vertex 1 1 10
      vertex -0.614132 4.86136 10
    endloop
  endfacet
  facet normal 0 0 1
    outer loop
      vertex 1 -1 10
      vertex -0.307673 -4.89033 10
      vertex 0 -4.9 10
    endloop
  endfacet
  facet normal -0 0 1
    outer loop
      vertex -1.21858 4.74606 10
      vertex 1 1 10
      vertex -0.918168 4.81321 10
    endloop
  endfacet
  facet normal 0 0 1
    outer loop
      vertex 1 -1 10
      vertex -0.614132 -4.86136 10
      vertex -0.307673 -4.89033 10
    endloop
  endfacet
  facet normal -0 0 1
    outer loop
      vertex -1.51418 4.66018 10
      vertex 1 1 10
      vertex -1.21858 4.74606 10
    endloop
  endfacet
  facet normal 0 0 1
    outer loop
      vertex 1 -1 10
      vertex -0.918168 -4.81321 10
      vertex -0.614132 -4.86136 10
    endloop
  endfacet
  facet normal -0 0 1
    outer loop
      vertex -1.80381 4.5559 10
      vertex 1 1 10
      vertex -1.51418 4.66018 10
    endloop
  endfacet
  facet normal 0 0 1
    outer loop
      vertex 1 -1 10
      vertex -1.21858 -4.74606 10
      vertex -0.918168 -4.81321 10
    endloop
  endfacet
  facet normal -0 0 1
    outer loop
      vertex -2.08632 4.43365 10
      vertex 1 1 10
      vertex -1.80381 4.5559 10
    endloop
  endfacet
  facet normal 0 0 1
    outer loop
      vertex 1 -1 10
      vertex -1.51418 -4.66018 10
      vertex -1.21858 -4.74606 10
    endloop
  endfacet
  facet normal -0 0 1
    outer loop
      vertex -2.36059 4.2939 10
      vertex 1 1 10
      vertex -2.08632 4.43365 10
    endloop
  endfacet
  facet normal 0 0 1
    outer loop
      vertex 1 -1 10
      vertex -1.80381 -4.5559 10
      vertex -1.51418 -4.66018 10
    endloop
  endfacet
  facet normal -0 0 1
    outer loop
      vertex -2.62555 4.13721 10
      vertex 1 1 10
      vertex -2.36059 4.2939 10
    endloop
  endfacet
  facet normal 0 0 1
    outer loop
      vertex 1 -1 10
      vertex -2.08632 -4.43365 10
      vertex -1.80381 -4.5559 10
    endloop
  endfacet
  facet normal -0 0 1
    outer loop
      vertex -2.88015 3.96418 10
      vertex 1 1 10
      vertex -2.62555 4.13721 10
    endloop
  endfacet
  facet normal 0 0 1
    outer loop
      vertex 1 -1 10
      vertex -2.36059 -4.2939 10
      vertex -2.08632 -4.43365 10
    endloop
  endfacet
  facet normal -0 0 1
    outer loop
      vertex -3.12338 3.77551 10
      vertex 1 1 10
      vertex -2.88015 3.96418 10
    endloop
  endfacet
  facet normal 0 0 1
    outer loop
      vertex 1 -1 10
      vertex -2.62555 -4.13721 10
      vertex -2.36059 -4.2939 10
    endloop
  endfacet
  facet normal -0 0 1
    outer loop
      vertex -3.35428 3.57195 10
      vertex 1 1 10
      vertex -3.12338 3.77551 10
    endloop
  endfacet
  facet normal 0 0 1
    outer loop
      vertex 1 -1 10
      vertex -2.88015 -3.96418 10
      vertex -2.62555 -4.13721 10
    endloop
  endfacet
  facet normal -0 0 1
    outer loop
      vertex -3.57195 3.35428 10
      vertex 1 1 10
      vertex -3.35428 3.57195 10
    endloop
  endfacet
  facet normal 0 0 1
    outer loop
      vertex 1 -1 10
      vertex -3.12338 -3.77551 10
      vertex -2.88015 -3.96418 10
    endloop
  endfacet
  facet normal -0 0 1
    outer loop
      vertex -3.77551 3.12338 10
      vertex 1 1 10
      vertex -3.57195 3.35428 10
    endloop
  endfacet
  facet normal 0 0 1
    outer loop
      vertex 1 -1 10
      vertex -3.35428 -3.57195 10
      vertex -3.12338 -3.77551 10
    endloop
  endfacet
  facet normal -0 0 1
    outer loop
      vertex -3.96418 2.88015 10
      vertex 1 1 10
      vertex -3.77551 3.12338 10
    endloop
  endfacet
  facet normal 0 0 1
    outer loop
      vertex 1 -1 10
      vertex -3.57195 -3.35428 10
      vertex -3.35428 -3.57195 10
    endloop
  endfacet
  facet normal -0 0 1
    outer loop
      vertex -4.13721 2.62555 10
      vertex 1 1 10
      vertex -3.96418 2.88015 10
    endloop
  endfacet
  facet normal 0 0 1
    outer loop
      vertex 1 -1 10
      vertex -3.77551 -3.12338 10
      vertex -3.57195 -3.35428 10
    endloop
  endfacet
  facet normal -0 0 1
    outer loop
      vertex -4.2939 2.36059 10
      vertex 1 1 10
      vertex -4.13721 2.62555 10
    endloop
  endfacet
  facet normal 0 0 1
    outer loop
      vertex 1 -1 10
      vertex -3.96418 -2.88015 10
      vertex -3.77551 -3.12338 10
    endloop
  endfacet
  facet normal -0 0 1
    outer loop
      vertex -4.43365 2.08632 10
      vertex 1 1 10
      vertex -4.2939 2.36059 10
    endloop
  endfacet
  facet normal 0 0 1
    outer loop
      vertex 1 -1 10
      vertex -4.13721 -2.62555 10
      vertex -3.96418 -2.88015 10
    endloop
  endfacet
  facet normal -0 0 1
    outer loop
      vertex -4.5559 1.80381 10
      vertex 1 1 10
      vertex -4.43365 2.08632 10
    endloop
  endfacet
  facet normal 0 0 1
    outer loop
      vertex 1 -1 10
      vertex -4.2939 -2.36059 10
      vertex -4.13721 -2.62555 10
    endloop
  endfacet
  facet normal -0 0 1
    outer loop
      vertex -4.66018 1.51418 10
      vertex 1 1 10
      vertex -4.5559 1.80381 10
    endloop
  endfacet
  facet normal 0 0 1
    outer loop
      vertex 1 -1 10
      vertex -4.43365 -2.08632 10
      vertex -4.2939 -2.36059 10
    endloop
  endfacet
  facet normal -0 0 1
    outer loop
      vertex -4.74606 1.21858 10
      vertex 1 1 10
      vertex -4.66018 1.51418 10
    endloop
  endfacet
  facet normal 0 0 1
    outer loop
      vertex 1 -1 10
      vertex -4.5559 -1.80381 10
      vertex -4.43365 -2.08632 10
    endloop
  endfacet
  facet normal 0 0 1
    outer loop
      vertex -4.81321 0.918168 10
      vertex 1 1 10
      vertex -4.74606 1.21858 10
    endloop
  endfacet
  facet normal 0 0 1
    outer loop
      vertex 1 -1 10
      vertex -4.66018 -1.51418 10
      vertex -4.5559 -1.80381 10
    endloop
  endfacet
  facet normal 0 0 1
    outer loop
      vertex -4.86136 0.614132 10
      vertex 1 1 10
      vertex -4.81321 0.918168 10
    endloop
  endfacet
  facet normal 0 0 1
    outer loop
      vertex 1 -1 10
      vertex -4.74606 -1.21858 10
      vertex -4.66018 -1.51418 10
    endloop
  endfacet
  facet normal 0 0 1
    outer loop
      vertex -4.89033 0.307673 10
      vertex 1 1 10
      vertex -4.86136 0.614132 10
    endloop
  endfacet
  facet normal 0 0 1
    outer loop
      vertex 1 -1 10
      vertex -4.81321 -0.918168 10
      vertex -4.74606 -1.21858 10
    endloop
  endfacet
  facet normal 0 0 1
    outer loop
      vertex -4.9 0 10
      vertex 1 1 10
      vertex -4.89033 0.307673 10
    endloop
  endfacet
  facet normal 0 0 1
    outer loop
      vertex 1 -1 10
      vertex -4.86136 -0.614132 10
      vertex -4.81321 -0.918168 10
    endloop
  endfacet
  facet normal 0 0 1
    outer loop
      vertex 1 1 10
      vertex -4.9 0 10
      vertex 1 -1 10
    endloop
  endfacet
  facet normal 0 0 1
    outer loop
      vertex 1 -1 10
      vertex -4.89033 -0.307673 10
      vertex -4.86136 -0.614132 10
    endloop
  endfacet
  facet normal 0 0 1
    outer loop
      vertex 1 -1 10
      vertex -4.9 0 10
      vertex -4.89033 -0.307673 10
    endloop
  endfacet
  facet normal 0 0 -1
    outer loop
      vertex 5 -1 10
      vertex 4.9 0 10
      vertex 5 1 10
    endloop
  endfacet
  facet normal 0 0 -1
    outer loop
      vertex 5 -1 10
      vertex 4.89033 -0.307673 10
      vertex 4.9 0 10
    endloop
  endfacet
  facet normal 0 0 -1
    outer loop
      vertex 5 -1 10
      vertex 4.86136 -0.614132 10
      vertex 4.89033 -0.307673 10
    endloop
  endfacet
  facet normal 0 0 -1
    outer loop
      vertex 5 -1 10
      vertex 4.81321 -0.918168 10
      vertex 4.86136 -0.614132 10
    endloop
  endfacet
  facet normal 0 -0 -1
    outer loop
      vertex 4.81321 -0.918168 10
      vertex 5 -1 10
      vertex 4.79492 -1 10
    endloop
  endfacet
  facet normal 0 0 -1
    outer loop
      vertex 4.89033 0.307673 10
      vertex 5 1 10
      vertex 4.9 0 10
    endloop
  endfacet
  facet normal 0 0 -1
    outer loop
      vertex 4.86136 0.614132 10
      vertex 5 1 10
      vertex 4.89033 0.307673 10
    endloop
  endfacet
  facet normal 0 0 -1
    outer loop
      vertex 4.81321 0.918168 10
      vertex 5 1 10
      vertex 4.86136 0.614132 10
    endloop
  endfacet
  facet normal -0 0 -1
    outer loop
      vertex 5 1 10
      vertex 4.81321 0.918168 10
      vertex 4.79492 1 10
    endloop
  endfacet
  facet normal -0.960294 0.27899 0
    outer loop
      vertex -4.74606 1.21858 0
      vertex -4.66018 1.51418 10
      vertex -4.66018 1.51418 0
    endloop
  endfacet
  facet normal -0.960294 0.27899 0
    outer loop
      vertex -4.66018 1.51418 10
      vertex -4.74606 1.21858 0
      vertex -4.74606 1.21858 10
    endloop
  endfacet
  facet normal -0.891007 0.453989 0
    outer loop
      vertex -4.43365 2.08632 0
      vertex -4.2939 2.36059 10
      vertex -4.2939 2.36059 0
    endloop
  endfacet
  facet normal -0.891007 0.453989 0
    outer loop
      vertex -4.2939 2.36059 10
      vertex -4.43365 2.08632 0
      vertex -4.43365 2.08632 10
    endloop
  endfacet
  facet normal -0.750112 0.661311 0
    outer loop
      vertex -3.77551 3.12338 0
      vertex -3.57195 3.35428 10
      vertex -3.57195 3.35428 0
    endloop
  endfacet
  facet normal -0.750112 0.661311 0
    outer loop
      vertex -3.57195 3.35428 10
      vertex -3.77551 3.12338 0
      vertex -3.77551 3.12338 10
    endloop
  endfacet
  facet normal -0.790155 0.612907 0
    outer loop
      vertex -3.96418 2.88015 0
      vertex -3.77551 3.12338 10
      vertex -3.77551 3.12338 0
    endloop
  endfacet
  facet normal -0.790155 0.612907 0
    outer loop
      vertex -3.77551 3.12338 10
      vertex -3.96418 2.88015 0
      vertex -3.96418 2.88015 10
    endloop
  endfacet
  facet normal -0.218143 0.975917 0
    outer loop
      vertex -0.918168 4.81321 0
      vertex -1.21858 4.74606 10
      vertex -0.918168 4.81321 10
    endloop
  endfacet
  facet normal -0.218143 0.975917 0
    outer loop
      vertex -1.21858 4.74606 10
      vertex -0.918168 4.81321 0
      vertex -1.21858 4.74606 0
    endloop
  endfacet
  facet normal -0.27899 0.960294 0
    outer loop
      vertex -1.21858 4.74606 0
      vertex -1.51418 4.66018 10
      vertex -1.21858 4.74606 10
    endloop
  endfacet
  facet normal -0.27899 0.960294 0
    outer loop
      vertex -1.51418 4.66018 10
      vertex -1.21858 4.74606 0
      vertex -1.51418 4.66018 0
    endloop
  endfacet
  facet normal -0.0314117 0.999507 0
    outer loop
      vertex 0 4.9 0
      vertex -0.307673 4.89033 10
      vertex 0 4.9 10
    endloop
  endfacet
  facet normal -0.0314117 0.999507 0
    outer loop
      vertex -0.307673 4.89033 10
      vertex 0 4.9 0
      vertex -0.307673 4.89033 0
    endloop
  endfacet
  facet normal -0.397149 0.917754 0
    outer loop
      vertex -1.80381 4.5559 0
      vertex -2.08632 4.43365 10
      vertex -1.80381 4.5559 10
    endloop
  endfacet
  facet normal -0.397149 0.917754 0
    outer loop
      vertex -2.08632 4.43365 10
      vertex -1.80381 4.5559 0
      vertex -2.08632 4.43365 0
    endloop
  endfacet
  facet normal -0.612907 0.790155 0
    outer loop
      vertex -2.88015 3.96418 0
      vertex -3.12338 3.77551 10
      vertex -2.88015 3.96418 10
    endloop
  endfacet
  facet normal -0.612907 0.790155 0
    outer loop
      vertex -3.12338 3.77551 10
      vertex -2.88015 3.96418 0
      vertex -3.12338 3.77551 0
    endloop
  endfacet
  facet normal -0.562084 0.82708 0
    outer loop
      vertex -2.62555 4.13721 0
      vertex -2.88015 3.96418 10
      vertex -2.62555 4.13721 10
    endloop
  endfacet
  facet normal -0.562084 0.82708 0
    outer loop
      vertex -2.88015 3.96418 10
      vertex -2.62555 4.13721 0
      vertex -2.88015 3.96418 0
    endloop
  endfacet
  facet normal 0.995562 -0.0941082 0
    outer loop
      vertex 4.86136 -0.614132 10
      vertex 4.89033 -0.307673 0
      vertex 4.89033 -0.307673 10
    endloop
  endfacet
  facet normal 0.995562 -0.0941082 0
    outer loop
      vertex 4.89033 -0.307673 0
      vertex 4.86136 -0.614132 10
      vertex 4.86136 -0.614132 0
    endloop
  endfacet
  facet normal 0.0314117 -0.999507 0
    outer loop
      vertex 0 -4.9 0
      vertex 0.307673 -4.89033 10
      vertex 0 -4.9 10
    endloop
  endfacet
  facet normal 0.0314117 -0.999507 0
    outer loop
      vertex 0.307673 -4.89033 10
      vertex 0 -4.9 0
      vertex 0.307673 -4.89033 0
    endloop
  endfacet
  facet normal 0.940881 -0.338737 0
    outer loop
      vertex 4.5559 -1.80381 10
      vertex 4.66018 -1.51418 0
      vertex 4.66018 -1.51418 10
    endloop
  endfacet
  facet normal 0.940881 -0.338737 0
    outer loop
      vertex 4.66018 -1.51418 0
      vertex 4.5559 -1.80381 10
      vertex 4.5559 -1.80381 0
    endloop
  endfacet
  facet normal 0.975917 -0.218142 0
    outer loop
      vertex 4.79492 -1 10
      vertex 4.81321 -0.918168 0
      vertex 4.81321 -0.918168 10
    endloop
  endfacet
  facet normal 0.975917 -0.218144 -1.89164e-008
    outer loop
      vertex 4.74606 -1.21858 10
      vertex 4.81321 -0.918168 0
      vertex 4.79492 -1 10
    endloop
  endfacet
  facet normal 0.975917 -0.218143 0
    outer loop
      vertex 4.81321 -0.918168 0
      vertex 4.74606 -1.21858 10
      vertex 4.74606 -1.21858 0
    endloop
  endfacet
  facet normal 0.338737 -0.940881 0
    outer loop
      vertex 1.51418 -4.66018 0
      vertex 1.80381 -4.5559 10
      vertex 1.51418 -4.66018 10
    endloop
  endfacet
  facet normal 0.338737 -0.940881 0
    outer loop
      vertex 1.80381 -4.5559 10
      vertex 1.51418 -4.66018 0
      vertex 1.80381 -4.5559 0
    endloop
  endfacet
  facet normal 0.218143 -0.975917 0
    outer loop
      vertex 0.918168 -4.81321 0
      vertex 1.21858 -4.74606 10
      vertex 0.918168 -4.81321 10
    endloop
  endfacet
  facet normal 0.218143 -0.975917 0
    outer loop
      vertex 1.21858 -4.74606 10
      vertex 0.918168 -4.81321 0
      vertex 1.21858 -4.74606 0
    endloop
  endfacet
  facet normal 0.707107 -0.707107 0
    outer loop
      vertex 3.35428 -3.57195 10
      vertex 3.57195 -3.35428 0
      vertex 3.57195 -3.35428 10
    endloop
  endfacet
  facet normal 0.707107 -0.707107 0
    outer loop
      vertex 3.57195 -3.35428 0
      vertex 3.35428 -3.57195 10
      vertex 3.35428 -3.57195 0
    endloop
  endfacet
  facet normal 0.562084 -0.82708 0
    outer loop
      vertex 2.62555 -4.13721 0
      vertex 2.88015 -3.96418 10
      vertex 2.62555 -4.13721 10
    endloop
  endfacet
  facet normal 0.562084 -0.82708 0
    outer loop
      vertex 2.88015 -3.96418 10
      vertex 2.62555 -4.13721 0
      vertex 2.88015 -3.96418 0
    endloop
  endfacet
  facet normal 0.661311 -0.750112 0
    outer loop
      vertex 3.12338 -3.77551 0
      vertex 3.35428 -3.57195 10
      vertex 3.12338 -3.77551 10
    endloop
  endfacet
  facet normal 0.661311 -0.750112 0
    outer loop
      vertex 3.35428 -3.57195 10
      vertex 3.12338 -3.77551 0
      vertex 3.35428 -3.57195 0
    endloop
  endfacet
  facet normal 0.509042 -0.860742 0
    outer loop
      vertex 2.36059 -4.2939 0
      vertex 2.62555 -4.13721 10
      vertex 2.36059 -4.2939 10
    endloop
  endfacet
  facet normal 0.509042 -0.860742 0
    outer loop
      vertex 2.62555 -4.13721 10
      vertex 2.36059 -4.2939 0
      vertex 2.62555 -4.13721 0
    endloop
  endfacet
  facet normal 0.397149 -0.917754 0
    outer loop
      vertex 1.80381 -4.5559 0
      vertex 2.08632 -4.43365 10
      vertex 1.80381 -4.5559 10
    endloop
  endfacet
  facet normal 0.397149 -0.917754 0
    outer loop
      vertex 2.08632 -4.43365 10
      vertex 1.80381 -4.5559 0
      vertex 2.08632 -4.43365 0
    endloop
  endfacet
  facet normal 0.891007 -0.453989 0
    outer loop
      vertex 4.2939 -2.36059 10
      vertex 4.43365 -2.08632 0
      vertex 4.43365 -2.08632 10
    endloop
  endfacet
  facet normal 0.891007 -0.453989 0
    outer loop
      vertex 4.43365 -2.08632 0
      vertex 4.2939 -2.36059 10
      vertex 4.2939 -2.36059 0
    endloop
  endfacet
  facet normal 0.790155 -0.612907 0
    outer loop
      vertex 3.77551 -3.12338 10
      vertex 3.96418 -2.88015 0
      vertex 3.96418 -2.88015 10
    endloop
  endfacet
  facet normal 0.790155 -0.612907 0
    outer loop
      vertex 3.96418 -2.88015 0
      vertex 3.77551 -3.12338 10
      vertex 3.77551 -3.12338 0
    endloop
  endfacet
  facet normal -0.0314117 -0.999507 0
    outer loop
      vertex -0.307673 -4.89033 0
      vertex 0 -4.9 10
      vertex -0.307673 -4.89033 10
    endloop
  endfacet
  facet normal -0.0314117 -0.999507 -0
    outer loop
      vertex 0 -4.9 10
      vertex -0.307673 -4.89033 0
      vertex 0 -4.9 0
    endloop
  endfacet
  facet normal -0.27899 -0.960294 0
    outer loop
      vertex -1.51418 -4.66018 0
      vertex -1.21858 -4.74606 10
      vertex -1.51418 -4.66018 10
    endloop
  endfacet
  facet normal -0.27899 -0.960294 -0
    outer loop
      vertex -1.21858 -4.74606 10
      vertex -1.51418 -4.66018 0
      vertex -1.21858 -4.74606 0
    endloop
  endfacet
  facet normal -0.453989 -0.891007 0
    outer loop
      vertex -2.36059 -4.2939 0
      vertex -2.08632 -4.43365 10
      vertex -2.36059 -4.2939 10
    endloop
  endfacet
  facet normal -0.453989 -0.891007 -0
    outer loop
      vertex -2.08632 -4.43365 10
      vertex -2.36059 -4.2939 0
      vertex -2.08632 -4.43365 0
    endloop
  endfacet
  facet normal -0.612907 -0.790155 0
    outer loop
      vertex -3.12338 -3.77551 0
      vertex -2.88015 -3.96418 10
      vertex -3.12338 -3.77551 10
    endloop
  endfacet
  facet normal -0.612907 -0.790155 -0
    outer loop
      vertex -2.88015 -3.96418 10
      vertex -3.12338 -3.77551 0
      vertex -2.88015 -3.96418 0
    endloop
  endfacet
  facet normal -0.975917 -0.218143 0
    outer loop
      vertex -4.74606 -1.21858 0
      vertex -4.81321 -0.918168 10
      vertex -4.81321 -0.918168 0
    endloop
  endfacet
  facet normal -0.975917 -0.218143 0
    outer loop
      vertex -4.81321 -0.918168 10
      vertex -4.74606 -1.21858 0
      vertex -4.74606 -1.21858 10
    endloop
  endfacet
  facet normal -0.940881 -0.338737 0
    outer loop
      vertex -4.5559 -1.80381 0
      vertex -4.66018 -1.51418 10
      vertex -4.66018 -1.51418 0
    endloop
  endfacet
  facet normal -0.940881 -0.338737 0
    outer loop
      vertex -4.66018 -1.51418 10
      vertex -4.5559 -1.80381 0
      vertex -4.5559 -1.80381 10
    endloop
  endfacet
  facet normal -0.987688 -0.156435 0
    outer loop
      vertex -4.81321 -0.918168 0
      vertex -4.86136 -0.614132 10
      vertex -4.86136 -0.614132 0
    endloop
  endfacet
  facet normal -0.987688 -0.156435 0
    outer loop
      vertex -4.86136 -0.614132 10
      vertex -4.81321 -0.918168 0
      vertex -4.81321 -0.918168 10
    endloop
  endfacet
  facet normal -0.999507 -0.0314117 0
    outer loop
      vertex -4.89033 -0.307673 0
      vertex -4.9 0 10
      vertex -4.9 0 0
    endloop
  endfacet
  facet normal -0.999507 -0.0314117 0
    outer loop
      vertex -4.9 0 10
      vertex -4.89033 -0.307673 0
      vertex -4.89033 -0.307673 10
    endloop
  endfacet
  facet normal -0.860742 -0.509042 0
    outer loop
      vertex -4.13721 -2.62555 0
      vertex -4.2939 -2.36059 10
      vertex -4.2939 -2.36059 0
    endloop
  endfacet
  facet normal -0.860742 -0.509042 0
    outer loop
      vertex -4.2939 -2.36059 10
      vertex -4.13721 -2.62555 0
      vertex -4.13721 -2.62555 10
    endloop
  endfacet
  facet normal -0.917754 -0.397149 0
    outer loop
      vertex -4.43365 -2.08632 0
      vertex -4.5559 -1.80381 10
      vertex -4.5559 -1.80381 0
    endloop
  endfacet
  facet normal -0.917754 -0.397149 0
    outer loop
      vertex -4.5559 -1.80381 10
      vertex -4.43365 -2.08632 0
      vertex -4.43365 -2.08632 10
    endloop
  endfacet
  facet normal -0.750112 -0.661311 0
    outer loop
      vertex -3.57195 -3.35428 0
      vertex -3.77551 -3.12338 10
      vertex -3.77551 -3.12338 0
    endloop
  endfacet
  facet normal -0.750112 -0.661311 0
    outer loop
      vertex -3.77551 -3.12338 10
      vertex -3.57195 -3.35428 0
      vertex -3.57195 -3.35428 10
    endloop
  endfacet
  facet normal -0.82708 -0.562084 0
    outer loop
      vertex -3.96418 -2.88015 0
      vertex -4.13721 -2.62555 10
      vertex -4.13721 -2.62555 0
    endloop
  endfacet
  facet normal -0.82708 -0.562084 0
    outer loop
      vertex -4.13721 -2.62555 10
      vertex -3.96418 -2.88015 0
      vertex -3.96418 -2.88015 10
    endloop
  endfacet
  facet normal 0.999507 -0.0314117 0
    outer loop
      vertex 4.89033 -0.307673 10
      vertex 4.9 0 0
      vertex 4.9 0 10
    endloop
  endfacet
  facet normal 0.999507 -0.0314117 0
    outer loop
      vertex 4.9 0 0
      vertex 4.89033 -0.307673 10
      vertex 4.89033 -0.307673 0
    endloop
  endfacet
  facet normal 0.960294 -0.27899 0
    outer loop
      vertex 4.66018 -1.51418 10
      vertex 4.74606 -1.21858 0
      vertex 4.74606 -1.21858 10
    endloop
  endfacet
  facet normal 0.960294 -0.27899 0
    outer loop
      vertex 4.74606 -1.21858 0
      vertex 4.66018 -1.51418 10
      vertex 4.66018 -1.51418 0
    endloop
  endfacet
  facet normal 0.987688 -0.156435 0
    outer loop
      vertex 4.81321 -0.918168 10
      vertex 4.86136 -0.614132 0
      vertex 4.86136 -0.614132 10
    endloop
  endfacet
  facet normal 0.987688 -0.156435 0
    outer loop
      vertex 4.86136 -0.614132 0
      vertex 4.81321 -0.918168 10
      vertex 4.81321 -0.918168 0
    endloop
  endfacet
  facet normal 0.0941082 -0.995562 0
    outer loop
      vertex 0.307673 -4.89033 0
      vertex 0.614132 -4.86136 10
      vertex 0.307673 -4.89033 10
    endloop
  endfacet
  facet normal 0.0941082 -0.995562 0
    outer loop
      vertex 0.614132 -4.86136 10
      vertex 0.307673 -4.89033 0
      vertex 0.614132 -4.86136 0
    endloop
  endfacet
  facet normal 0.27899 -0.960294 0
    outer loop
      vertex 1.21858 -4.74606 0
      vertex 1.51418 -4.66018 10
      vertex 1.21858 -4.74606 10
    endloop
  endfacet
  facet normal 0.27899 -0.960294 0
    outer loop
      vertex 1.51418 -4.66018 10
      vertex 1.21858 -4.74606 0
      vertex 1.51418 -4.66018 0
    endloop
  endfacet
  facet normal 0.612907 -0.790155 0
    outer loop
      vertex 2.88015 -3.96418 0
      vertex 3.12338 -3.77551 10
      vertex 2.88015 -3.96418 10
    endloop
  endfacet
  facet normal 0.612907 -0.790155 0
    outer loop
      vertex 3.12338 -3.77551 10
      vertex 2.88015 -3.96418 0
      vertex 3.12338 -3.77551 0
    endloop
  endfacet
  facet normal 0.453989 -0.891007 0
    outer loop
      vertex 2.08632 -4.43365 0
      vertex 2.36059 -4.2939 10
      vertex 2.08632 -4.43365 10
    endloop
  endfacet
  facet normal 0.453989 -0.891007 0
    outer loop
      vertex 2.36059 -4.2939 10
      vertex 2.08632 -4.43365 0
      vertex 2.36059 -4.2939 0
    endloop
  endfacet
  facet normal 0.917754 -0.397149 0
    outer loop
      vertex 4.43365 -2.08632 10
      vertex 4.5559 -1.80381 0
      vertex 4.5559 -1.80381 10
    endloop
  endfacet
  facet normal 0.917754 -0.397149 0
    outer loop
      vertex 4.5559 -1.80381 0
      vertex 4.43365 -2.08632 10
      vertex 4.43365 -2.08632 0
    endloop
  endfacet
  facet normal -0.397149 -0.917754 0
    outer loop
      vertex -2.08632 -4.43365 0
      vertex -1.80381 -4.5559 10
      vertex -2.08632 -4.43365 10
    endloop
  endfacet
  facet normal -0.397149 -0.917754 -0
    outer loop
      vertex -1.80381 -4.5559 10
      vertex -2.08632 -4.43365 0
      vertex -1.80381 -4.5559 0
    endloop
  endfacet
  facet normal -0.661311 -0.750112 0
    outer loop
      vertex -3.35428 -3.57195 0
      vertex -3.12338 -3.77551 10
      vertex -3.35428 -3.57195 10
    endloop
  endfacet
  facet normal -0.661311 -0.750112 -0
    outer loop
      vertex -3.12338 -3.77551 10
      vertex -3.35428 -3.57195 0
      vertex -3.12338 -3.77551 0
    endloop
  endfacet
  facet normal -0.960294 -0.27899 0
    outer loop
      vertex -4.66018 -1.51418 0
      vertex -4.74606 -1.21858 10
      vertex -4.74606 -1.21858 0
    endloop
  endfacet
  facet normal -0.960294 -0.27899 0
    outer loop
      vertex -4.74606 -1.21858 10
      vertex -4.66018 -1.51418 0
      vertex -4.66018 -1.51418 10
    endloop
  endfacet
  facet normal -0.995562 -0.0941082 0
    outer loop
      vertex -4.86136 -0.614132 0
      vertex -4.89033 -0.307673 10
      vertex -4.89033 -0.307673 0
    endloop
  endfacet
  facet normal -0.995562 -0.0941082 0
    outer loop
      vertex -4.89033 -0.307673 10
      vertex -4.86136 -0.614132 0
      vertex -4.86136 -0.614132 10
    endloop
  endfacet
  facet normal -0.891007 -0.453989 0
    outer loop
      vertex -4.2939 -2.36059 0
      vertex -4.43365 -2.08632 10
      vertex -4.43365 -2.08632 0
    endloop
  endfacet
  facet normal -0.891007 -0.453989 0
    outer loop
      vertex -4.43365 -2.08632 10
      vertex -4.2939 -2.36059 0
      vertex -4.2939 -2.36059 10
    endloop
  endfacet
  facet normal -0.790155 -0.612907 0
    outer loop
      vertex -3.77551 -3.12338 0
      vertex -3.96418 -2.88015 10
      vertex -3.96418 -2.88015 0
    endloop
  endfacet
  facet normal -0.790155 -0.612907 0
    outer loop
      vertex -3.96418 -2.88015 10
      vertex -3.77551 -3.12338 0
      vertex -3.77551 -3.12338 10
    endloop
  endfacet
  facet normal -1 0 0
    outer loop
      vertex 1 -1 10
      vertex 1 1 13
      vertex 1 1 10
    endloop
  endfacet
  facet normal -1 -0 0
    outer loop
      vertex 1 1 13
      vertex 1 -1 10
      vertex 1 -1 13
    endloop
  endfacet
  facet normal -0 0 1
    outer loop
      vertex 1 1 13
      vertex 5 -1 13
      vertex 5 1 13
    endloop
  endfacet
  facet normal 0 0 1
    outer loop
      vertex 5 -1 13
      vertex 1 1 13
      vertex 1 -1 13
    endloop
  endfacet
  facet normal 1 -0 0
    outer loop
      vertex 5 -1 13
      vertex 5 1 10
      vertex 5 1 13
    endloop
  endfacet
  facet normal 1 0 0
    outer loop
      vertex 5 1 10
      vertex 5 -1 13
      vertex 5 -1 10
    endloop
  endfacet
  facet normal 0 1 0
    outer loop
      vertex 4.79492 1 10
      vertex 5 1 13
      vertex 5 1 10
    endloop
  endfacet
  facet normal 0 1 0
    outer loop
      vertex 5 1 13
      vertex 4.79492 1 10
      vertex 1 1 13
    endloop
  endfacet
  facet normal 0 1 0
    outer loop
      vertex 1 1 13
      vertex 4.79492 1 10
      vertex 1 1 10
    endloop
  endfacet
  facet normal 0 -1 0
    outer loop
      vertex 4.79492 -1 10
      vertex 1 -1 13
      vertex 1 -1 10
    endloop
  endfacet
  facet normal 0 -1 0
    outer loop
      vertex 1 -1 13
      vertex 4.79492 -1 10
      vertex 5 -1 13
    endloop
  endfacet
  facet normal 0 -1 -0
    outer loop
      vertex 5 -1 13
      vertex 4.79492 -1 10
      vertex 5 -1 10
    endloop
  endfacet
endsolid OpenSCAD_Model
