solid OpenSCAD_Model
  facet normal 0.999507 0.0314113 0
    outer loop
      vertex 4.75 0 10
      vertex 4.74063 0.298255 0
      vertex 4.74063 0.298255 10
    endloop
  endfacet
  facet normal 0.999507 0.0314113 0
    outer loop
      vertex 4.74063 0.298255 0
      vertex 4.75 0 10
      vertex 4.75 0 0
    endloop
  endfacet
  facet normal 0.995562 0.0941075 0
    outer loop
      vertex 4.74063 0.298255 10
      vertex 4.71254 0.595333 0
      vertex 4.71254 0.595333 10
    endloop
  endfacet
  facet normal 0.995562 0.0941075 0
    outer loop
      vertex 4.71254 0.595333 0
      vertex 4.74063 0.298255 10
      vertex 4.74063 0.298255 0
    endloop
  endfacet
  facet normal 0.987688 0.156435 0
    outer loop
      vertex 4.71254 0.595333 10
      vertex 4.66586 0.890061 0
      vertex 4.66586 0.890061 10
    endloop
  endfacet
  facet normal 0.987688 0.156435 0
    outer loop
      vertex 4.66586 0.890061 0
      vertex 4.71254 0.595333 10
      vertex 4.71254 0.595333 0
    endloop
  endfacet
  facet normal 0.975917 0.218143 0
    outer loop
      vertex 4.66586 0.890061 10
      vertex 4.60077 1.18128 0
      vertex 4.60077 1.18128 10
    endloop
  endfacet
  facet normal 0.975917 0.218143 0
    outer loop
      vertex 4.60077 1.18128 0
      vertex 4.66586 0.890061 10
      vertex 4.66586 0.890061 0
    endloop
  endfacet
  facet normal 0.960294 0.278991 0
    outer loop
      vertex 4.60077 1.18128 10
      vertex 4.51752 1.46783 0
      vertex 4.51752 1.46783 10
    endloop
  endfacet
  facet normal 0.960294 0.278991 0
    outer loop
      vertex 4.51752 1.46783 0
      vertex 4.60077 1.18128 10
      vertex 4.60077 1.18128 0
    endloop
  endfacet
  facet normal 0.94088 0.338739 0
    outer loop
      vertex 4.51752 1.46783 10
      vertex 4.41644 1.74859 0
      vertex 4.41644 1.74859 10
    endloop
  endfacet
  facet normal 0.94088 0.338739 0
    outer loop
      vertex 4.41644 1.74859 0
      vertex 4.51752 1.46783 10
      vertex 4.51752 1.46783 0
    endloop
  endfacet
  facet normal 0.917755 0.397148 0
    outer loop
      vertex 4.41644 1.74859 10
      vertex 4.29793 2.02245 0
      vertex 4.29793 2.02245 10
    endloop
  endfacet
  facet normal 0.917755 0.397148 0
    outer loop
      vertex 4.29793 2.02245 0
      vertex 4.41644 1.74859 10
      vertex 4.41644 1.74859 0
    endloop
  endfacet
  facet normal 0.891006 0.453991 0
    outer loop
      vertex 4.29793 2.02245 10
      vertex 4.16246 2.28833 0
      vertex 4.16246 2.28833 10
    endloop
  endfacet
  facet normal 0.891006 0.453991 0
    outer loop
      vertex 4.16246 2.28833 0
      vertex 4.29793 2.02245 10
      vertex 4.29793 2.02245 0
    endloop
  endfacet
  facet normal 0.860742 0.509041 0
    outer loop
      vertex 4.16246 2.28833 10
      vertex 4.01056 2.54518 0
      vertex 4.01056 2.54518 10
    endloop
  endfacet
  facet normal 0.860742 0.509041 0
    outer loop
      vertex 4.01056 2.54518 0
      vertex 4.16246 2.28833 10
      vertex 4.16246 2.28833 0
    endloop
  endfacet
  facet normal 0.827081 0.562083 0
    outer loop
      vertex 4.01056 2.54518 10
      vertex 3.84283 2.79198 0
      vertex 3.84283 2.79198 10
    endloop
  endfacet
  facet normal 0.827081 0.562083 0
    outer loop
      vertex 3.84283 2.79198 0
      vertex 4.01056 2.54518 10
      vertex 4.01056 2.54518 0
    endloop
  endfacet
  facet normal 0.790155 0.612907 0
    outer loop
      vertex 3.84283 2.79198 10
      vertex 3.65994 3.02776 0
      vertex 3.65994 3.02776 10
    endloop
  endfacet
  facet normal 0.790155 0.612907 0
    outer loop
      vertex 3.65994 3.02776 0
      vertex 3.84283 2.79198 10
      vertex 3.84283 2.79198 0
    endloop
  endfacet
  facet normal 0.750111 0.661312 0
    outer loop
      vertex 3.65994 3.02776 10
      vertex 3.4626 3.2516 0
      vertex 3.4626 3.2516 10
    endloop
  endfacet
  facet normal 0.750111 0.661312 0
    outer loop
      vertex 3.4626 3.2516 0
      vertex 3.65994 3.02776 10
      vertex 3.65994 3.02776 0
    endloop
  endfacet
  facet normal 0.707107 0.707107 0
    outer loop
      vertex 3.4626 3.2516 10
      vertex 3.2516 3.4626 0
      vertex 3.2516 3.4626 10
    endloop
  endfacet
  facet normal 0.707107 0.707107 0
    outer loop
      vertex 3.2516 3.4626 0
      vertex 3.4626 3.2516 10
      vertex 3.4626 3.2516 0
    endloop
  endfacet
  facet normal 0.661312 0.750111 -0
    outer loop
      vertex 3.2516 3.4626 0
      vertex 3.02776 3.65994 10
      vertex 3.2516 3.4626 10
    endloop
  endfacet
  facet normal 0.661312 0.750111 0
    outer loop
      vertex 3.02776 3.65994 10
      vertex 3.2516 3.4626 0
      vertex 3.02776 3.65994 0
    endloop
  endfacet
  facet normal 0.612907 0.790155 -0
    outer loop
      vertex 3.02776 3.65994 0
      vertex 2.79198 3.84283 10
      vertex 3.02776 3.65994 10
    endloop
  endfacet
  facet normal 0.612907 0.790155 0
    outer loop
      vertex 2.79198 3.84283 10
      vertex 3.02776 3.65994 0
      vertex 2.79198 3.84283 0
    endloop
  endfacet
  facet normal 0.562083 0.827081 -0
    outer loop
      vertex 2.79198 3.84283 0
      vertex 2.54518 4.01056 10
      vertex 2.79198 3.84283 10
    endloop
  endfacet
  facet normal 0.562083 0.827081 0
    outer loop
      vertex 2.54518 4.01056 10
      vertex 2.79198 3.84283 0
      vertex 2.54518 4.01056 0
    endloop
  endfacet
  facet normal 0.509041 0.860742 -0
    outer loop
      vertex 2.54518 4.01056 0
      vertex 2.28833 4.16246 10
      vertex 2.54518 4.01056 10
    endloop
  endfacet
  facet normal 0.509041 0.860742 0
    outer loop
      vertex 2.28833 4.16246 10
      vertex 2.54518 4.01056 0
      vertex 2.28833 4.16246 0
    endloop
  endfacet
  facet normal 0.453991 0.891006 -0
    outer loop
      vertex 2.28833 4.16246 0
      vertex 2.02245 4.29793 10
      vertex 2.28833 4.16246 10
    endloop
  endfacet
  facet normal 0.453991 0.891006 0
    outer loop
      vertex 2.02245 4.29793 10
      vertex 2.28833 4.16246 0
      vertex 2.02245 4.29793 0
    endloop
  endfacet
  facet normal 0.397148 0.917755 -0
    outer loop
      vertex 2.02245 4.29793 0
      vertex 1.74859 4.41644 10
      vertex 2.02245 4.29793 10
    endloop
  endfacet
  facet normal 0.397148 0.917755 0
    outer loop
      vertex 1.74859 4.41644 10
      vertex 2.02245 4.29793 0
      vertex 1.74859 4.41644 0
    endloop
  endfacet
  facet normal 0.338739 0.94088 -0
    outer loop
      vertex 1.74859 4.41644 0
      vertex 1.46783 4.51752 10
      vertex 1.74859 4.41644 10
    endloop
  endfacet
  facet normal 0.338739 0.94088 0
    outer loop
      vertex 1.46783 4.51752 10
      vertex 1.74859 4.41644 0
      vertex 1.46783 4.51752 0
    endloop
  endfacet
  facet normal 0.278991 0.960294 -0
    outer loop
      vertex 1.46783 4.51752 0
      vertex 1.18128 4.60077 10
      vertex 1.46783 4.51752 10
    endloop
  endfacet
  facet normal 0.278991 0.960294 0
    outer loop
      vertex 1.18128 4.60077 10
      vertex 1.46783 4.51752 0
      vertex 1.18128 4.60077 0
    endloop
  endfacet
  facet normal 0.218143 0.975917 -0
    outer loop
      vertex 1.18128 4.60077 0
      vertex 0.890061 4.66586 10
      vertex 1.18128 4.60077 10
    endloop
  endfacet
  facet normal 0.218143 0.975917 0
    outer loop
      vertex 0.890061 4.66586 10
      vertex 1.18128 4.60077 0
      vertex 0.890061 4.66586 0
    endloop
  endfacet
  facet normal 0.156435 0.987688 -0
    outer loop
      vertex 0.890061 4.66586 0
      vertex 0.595333 4.71254 10
      vertex 0.890061 4.66586 10
    endloop
  endfacet
  facet normal 0.156435 0.987688 0
    outer loop
      vertex 0.595333 4.71254 10
      vertex 0.890061 4.66586 0
      vertex 0.595333 4.71254 0
    endloop
  endfacet
  facet normal 0.0941075 0.995562 -0
    outer loop
      vertex 0.595333 4.71254 0
      vertex 0.298255 4.74063 10
      vertex 0.595333 4.71254 10
    endloop
  endfacet
  facet normal 0.0941075 0.995562 0
    outer loop
      vertex 0.298255 4.74063 10
      vertex 0.595333 4.71254 0
      vertex 0.298255 4.74063 0
    endloop
  endfacet
  facet normal 0.0314113 0.999507 -0
    outer loop
      vertex 0.298255 4.74063 0
      vertex 2.90844e-016 4.75 10
      vertex 0.298255 4.74063 10
    endloop
  endfacet
  facet normal 0.0314113 0.999507 0
    outer loop
      vertex 2.90844e-016 4.75 10
      vertex 0.298255 4.74063 0
      vertex 2.90844e-016 4.75 0
    endloop
  endfacet
  facet normal -0.0314113 0.999507 0
    outer loop
      vertex 2.90844e-016 4.75 0
      vertex -0.298255 4.74063 10
      vertex 2.90844e-016 4.75 10
    endloop
  endfacet
  facet normal -0.0314113 0.999507 0
    outer loop
      vertex -0.298255 4.74063 10
      vertex 2.90844e-016 4.75 0
      vertex -0.298255 4.74063 0
    endloop
  endfacet
  facet normal -0.0941075 0.995562 0
    outer loop
      vertex -0.298255 4.74063 0
      vertex -0.595333 4.71254 10
      vertex -0.298255 4.74063 10
    endloop
  endfacet
  facet normal -0.0941075 0.995562 0
    outer loop
      vertex -0.595333 4.71254 10
      vertex -0.298255 4.74063 0
      vertex -0.595333 4.71254 0
    endloop
  endfacet
  facet normal -0.156435 0.987688 0
    outer loop
      vertex -0.595333 4.71254 0
      vertex -0.890061 4.66586 10
      vertex -0.595333 4.71254 10
    endloop
  endfacet
  facet normal -0.156435 0.987688 0
    outer loop
      vertex -0.890061 4.66586 10
      vertex -0.595333 4.71254 0
      vertex -0.890061 4.66586 0
    endloop
  endfacet
  facet normal -0.218143 0.975917 0
    outer loop
      vertex -0.890061 4.66586 0
      vertex -1.18128 4.60077 10
      vertex -0.890061 4.66586 10
    endloop
  endfacet
  facet normal -0.218143 0.975917 0
    outer loop
      vertex -1.18128 4.60077 10
      vertex -0.890061 4.66586 0
      vertex -1.18128 4.60077 0
    endloop
  endfacet
  facet normal -0.278991 0.960294 0
    outer loop
      vertex -1.18128 4.60077 0
      vertex -1.46783 4.51752 10
      vertex -1.18128 4.60077 10
    endloop
  endfacet
  facet normal -0.278991 0.960294 0
    outer loop
      vertex -1.46783 4.51752 10
      vertex -1.18128 4.60077 0
      vertex -1.46783 4.51752 0
    endloop
  endfacet
  facet normal -0.338739 0.94088 0
    outer loop
      vertex -1.46783 4.51752 0
      vertex -1.74859 4.41644 10
      vertex -1.46783 4.51752 10
    endloop
  endfacet
  facet normal -0.338739 0.94088 0
    outer loop
      vertex -1.74859 4.41644 10
      vertex -1.46783 4.51752 0
      vertex -1.74859 4.41644 0
    endloop
  endfacet
  facet normal -0.397148 0.917755 0
    outer loop
      vertex -1.74859 4.41644 0
      vertex -2.02245 4.29793 10
      vertex -1.74859 4.41644 10
    endloop
  endfacet
  facet normal -0.397148 0.917755 0
    outer loop
      vertex -2.02245 4.29793 10
      vertex -1.74859 4.41644 0
      vertex -2.02245 4.29793 0
    endloop
  endfacet
  facet normal -0.453991 0.891006 0
    outer loop
      vertex -2.02245 4.29793 0
      vertex -2.28833 4.16246 10
      vertex -2.02245 4.29793 10
    endloop
  endfacet
  facet normal -0.453991 0.891006 0
    outer loop
      vertex -2.28833 4.16246 10
      vertex -2.02245 4.29793 0
      vertex -2.28833 4.16246 0
    endloop
  endfacet
  facet normal -0.509041 0.860742 0
    outer loop
      vertex -2.28833 4.16246 0
      vertex -2.54518 4.01056 10
      vertex -2.28833 4.16246 10
    endloop
  endfacet
  facet normal -0.509041 0.860742 0
    outer loop
      vertex -2.54518 4.01056 10
      vertex -2.28833 4.16246 0
      vertex -2.54518 4.01056 0
    endloop
  endfacet
  facet normal -0.562083 0.827081 0
    outer loop
      vertex -2.54518 4.01056 0
      vertex -2.79198 3.84283 10
      vertex -2.54518 4.01056 10
    endloop
  endfacet
  facet normal -0.562083 0.827081 0
    outer loop
      vertex -2.79198 3.84283 10
      vertex -2.54518 4.01056 0
      vertex -2.79198 3.84283 0
    endloop
  endfacet
  facet normal -0.612907 0.790155 0
    outer loop
      vertex -2.79198 3.84283 0
      vertex -3.02776 3.65994 10
      vertex -2.79198 3.84283 10
    endloop
  endfacet
  facet normal -0.612907 0.790155 0
    outer loop
      vertex -3.02776 3.65994 10
      vertex -2.79198 3.84283 0
      vertex -3.02776 3.65994 0
    endloop
  endfacet
  facet normal -0.661312 0.750111 0
    outer loop
      vertex -3.02776 3.65994 0
      vertex -3.2516 3.4626 10
      vertex -3.02776 3.65994 10
    endloop
  endfacet
  facet normal -0.661312 0.750111 0
    outer loop
      vertex -3.2516 3.4626 10
      vertex -3.02776 3.65994 0
      vertex -3.2516 3.4626 0
    endloop
  endfacet
  facet normal -0.707107 0.707107 0
    outer loop
      vertex -3.4626 3.2516 0
      vertex -3.2516 3.4626 10
      vertex -3.2516 3.4626 0
    endloop
  endfacet
  facet normal -0.707107 0.707107 0
    outer loop
      vertex -3.2516 3.4626 10
      vertex -3.4626 3.2516 0
      vertex -3.4626 3.2516 10
    endloop
  endfacet
  facet normal -0.750111 0.661312 0
    outer loop
      vertex -3.65994 3.02776 0
      vertex -3.4626 3.2516 10
      vertex -3.4626 3.2516 0
    endloop
  endfacet
  facet normal -0.750111 0.661312 0
    outer loop
      vertex -3.4626 3.2516 10
      vertex -3.65994 3.02776 0
      vertex -3.65994 3.02776 10
    endloop
  endfacet
  facet normal -0.790155 0.612907 0
    outer loop
      vertex -3.84283 2.79198 0
      vertex -3.65994 3.02776 10
      vertex -3.65994 3.02776 0
    endloop
  endfacet
  facet normal -0.790155 0.612907 0
    outer loop
      vertex -3.65994 3.02776 10
      vertex -3.84283 2.79198 0
      vertex -3.84283 2.79198 10
    endloop
  endfacet
  facet normal -0.827081 0.562083 0
    outer loop
      vertex -4.01056 2.54518 0
      vertex -3.84283 2.79198 10
      vertex -3.84283 2.79198 0
    endloop
  endfacet
  facet normal -0.827081 0.562083 0
    outer loop
      vertex -3.84283 2.79198 10
      vertex -4.01056 2.54518 0
      vertex -4.01056 2.54518 10
    endloop
  endfacet
  facet normal -0.860742 0.509041 0
    outer loop
      vertex -4.16246 2.28833 0
      vertex -4.01056 2.54518 10
      vertex -4.01056 2.54518 0
    endloop
  endfacet
  facet normal -0.860742 0.509041 0
    outer loop
      vertex -4.01056 2.54518 10
      vertex -4.16246 2.28833 0
      vertex -4.16246 2.28833 10
    endloop
  endfacet
  facet normal -0.891006 0.453991 0
    outer loop
      vertex -4.29793 2.02245 0
      vertex -4.16246 2.28833 10
      vertex -4.16246 2.28833 0
    endloop
  endfacet
  facet normal -0.891006 0.453991 0
    outer loop
      vertex -4.16246 2.28833 10
      vertex -4.29793 2.02245 0
      vertex -4.29793 2.02245 10
    endloop
  endfacet
  facet normal -0.917755 0.397148 0
    outer loop
      vertex -4.41644 1.74859 0
      vertex -4.29793 2.02245 10
      vertex -4.29793 2.02245 0
    endloop
  endfacet
  facet normal -0.917755 0.397148 0
    outer loop
      vertex -4.29793 2.02245 10
      vertex -4.41644 1.74859 0
      vertex -4.41644 1.74859 10
    endloop
  endfacet
  facet normal -0.94088 0.338739 0
    outer loop
      vertex -4.51752 1.46783 0
      vertex -4.41644 1.74859 10
      vertex -4.41644 1.74859 0
    endloop
  endfacet
  facet normal -0.94088 0.338739 0
    outer loop
      vertex -4.41644 1.74859 10
      vertex -4.51752 1.46783 0
      vertex -4.51752 1.46783 10
    endloop
  endfacet
  facet normal -0.960294 0.278991 0
    outer loop
      vertex -4.60077 1.18128 0
      vertex -4.51752 1.46783 10
      vertex -4.51752 1.46783 0
    endloop
  endfacet
  facet normal -0.960294 0.278991 0
    outer loop
      vertex -4.51752 1.46783 10
      vertex -4.60077 1.18128 0
      vertex -4.60077 1.18128 10
    endloop
  endfacet
  facet normal -0.975917 0.218143 0
    outer loop
      vertex -4.66586 0.890061 0
      vertex -4.60077 1.18128 10
      vertex -4.60077 1.18128 0
    endloop
  endfacet
  facet normal -0.975917 0.218143 0
    outer loop
      vertex -4.60077 1.18128 10
      vertex -4.66586 0.890061 0
      vertex -4.66586 0.890061 10
    endloop
  endfacet
  facet normal -0.987688 0.156435 0
    outer loop
      vertex -4.71254 0.595333 0
      vertex -4.66586 0.890061 10
      vertex -4.66586 0.890061 0
    endloop
  endfacet
  facet normal -0.987688 0.156435 0
    outer loop
      vertex -4.66586 0.890061 10
      vertex -4.71254 0.595333 0
      vertex -4.71254 0.595333 10
    endloop
  endfacet
  facet normal -0.995562 0.0941075 0
    outer loop
      vertex -4.74063 0.298255 0
      vertex -4.71254 0.595333 10
      vertex -4.71254 0.595333 0
    endloop
  endfacet
  facet normal -0.995562 0.0941075 0
    outer loop
      vertex -4.71254 0.595333 10
      vertex -4.74063 0.298255 0
      vertex -4.74063 0.298255 10
    endloop
  endfacet
  facet normal -0.999507 0.0314113 0
    outer loop
      vertex -4.75 5.81688e-016 0
      vertex -4.74063 0.298255 10
      vertex -4.74063 0.298255 0
    endloop
  endfacet
  facet normal -0.999507 0.0314113 0
    outer loop
      vertex -4.74063 0.298255 10
      vertex -4.75 5.81688e-016 0
      vertex -4.75 5.81688e-016 10
    endloop
  endfacet
  facet normal -0.999507 -0.0314113 0
    outer loop
      vertex -4.74063 -0.298255 0
      vertex -4.75 5.81688e-016 10
      vertex -4.75 5.81688e-016 0
    endloop
  endfacet
  facet normal -0.999507 -0.0314113 0
    outer loop
      vertex -4.75 5.81688e-016 10
      vertex -4.74063 -0.298255 0
      vertex -4.74063 -0.298255 10
    endloop
  endfacet
  facet normal -0.995562 -0.0941075 0
    outer loop
      vertex -4.71254 -0.595333 0
      vertex -4.74063 -0.298255 10
      vertex -4.74063 -0.298255 0
    endloop
  endfacet
  facet normal -0.995562 -0.0941075 0
    outer loop
      vertex -4.74063 -0.298255 10
      vertex -4.71254 -0.595333 0
      vertex -4.71254 -0.595333 10
    endloop
  endfacet
  facet normal -0.987688 -0.156435 0
    outer loop
      vertex -4.66586 -0.890061 0
      vertex -4.71254 -0.595333 10
      vertex -4.71254 -0.595333 0
    endloop
  endfacet
  facet normal -0.987688 -0.156435 0
    outer loop
      vertex -4.71254 -0.595333 10
      vertex -4.66586 -0.890061 0
      vertex -4.66586 -0.890061 10
    endloop
  endfacet
  facet normal -0.975917 -0.218143 0
    outer loop
      vertex -4.60077 -1.18128 0
      vertex -4.66586 -0.890061 10
      vertex -4.66586 -0.890061 0
    endloop
  endfacet
  facet normal -0.975917 -0.218143 0
    outer loop
      vertex -4.66586 -0.890061 10
      vertex -4.60077 -1.18128 0
      vertex -4.60077 -1.18128 10
    endloop
  endfacet
  facet normal -0.960294 -0.278991 0
    outer loop
      vertex -4.51752 -1.46783 0
      vertex -4.60077 -1.18128 10
      vertex -4.60077 -1.18128 0
    endloop
  endfacet
  facet normal -0.960294 -0.278991 0
    outer loop
      vertex -4.60077 -1.18128 10
      vertex -4.51752 -1.46783 0
      vertex -4.51752 -1.46783 10
    endloop
  endfacet
  facet normal -0.94088 -0.338739 0
    outer loop
      vertex -4.41644 -1.74859 0
      vertex -4.51752 -1.46783 10
      vertex -4.51752 -1.46783 0
    endloop
  endfacet
  facet normal -0.94088 -0.338739 0
    outer loop
      vertex -4.51752 -1.46783 10
      vertex -4.41644 -1.74859 0
      vertex -4.41644 -1.74859 10
    endloop
  endfacet
  facet normal -0.917755 -0.397148 0
    outer loop
      vertex -4.29793 -2.02245 0
      vertex -4.41644 -1.74859 10
      vertex -4.41644 -1.74859 0
    endloop
  endfacet
  facet normal -0.917755 -0.397148 0
    outer loop
      vertex -4.41644 -1.74859 10
      vertex -4.29793 -2.02245 0
      vertex -4.29793 -2.02245 10
    endloop
  endfacet
  facet normal -0.891006 -0.453991 0
    outer loop
      vertex -4.16246 -2.28833 0
      vertex -4.29793 -2.02245 10
      vertex -4.29793 -2.02245 0
    endloop
  endfacet
  facet normal -0.891006 -0.453991 0
    outer loop
      vertex -4.29793 -2.02245 10
      vertex -4.16246 -2.28833 0
      vertex -4.16246 -2.28833 10
    endloop
  endfacet
  facet normal -0.860742 -0.509041 0
    outer loop
      vertex -4.01056 -2.54518 0
      vertex -4.16246 -2.28833 10
      vertex -4.16246 -2.28833 0
    endloop
  endfacet
  facet normal -0.860742 -0.509041 0
    outer loop
      vertex -4.16246 -2.28833 10
      vertex -4.01056 -2.54518 0
      vertex -4.01056 -2.54518 10
    endloop
  endfacet
  facet normal -0.827081 -0.562083 0
    outer loop
      vertex -3.84283 -2.79198 0
      vertex -4.01056 -2.54518 10
      vertex -4.01056 -2.54518 0
    endloop
  endfacet
  facet normal -0.827081 -0.562083 0
    outer loop
      vertex -4.01056 -2.54518 10
      vertex -3.84283 -2.79198 0
      vertex -3.84283 -2.79198 10
    endloop
  endfacet
  facet normal -0.790155 -0.612907 0
    outer loop
      vertex -3.65994 -3.02776 0
      vertex -3.84283 -2.79198 10
      vertex -3.84283 -2.79198 0
    endloop
  endfacet
  facet normal -0.790155 -0.612907 0
    outer loop
      vertex -3.84283 -2.79198 10
      vertex -3.65994 -3.02776 0
      vertex -3.65994 -3.02776 10
    endloop
  endfacet
  facet normal -0.750111 -0.661312 0
    outer loop
      vertex -3.4626 -3.2516 0
      vertex -3.65994 -3.02776 10
      vertex -3.65994 -3.02776 0
    endloop
  endfacet
  facet normal -0.750111 -0.661312 0
    outer loop
      vertex -3.65994 -3.02776 10
      vertex -3.4626 -3.2516 0
      vertex -3.4626 -3.2516 10
    endloop
  endfacet
  facet normal -0.707107 -0.707107 0
    outer loop
      vertex -3.2516 -3.4626 0
      vertex -3.4626 -3.2516 10
      vertex -3.4626 -3.2516 0
    endloop
  endfacet
  facet normal -0.707107 -0.707107 0
    outer loop
      vertex -3.4626 -3.2516 10
      vertex -3.2516 -3.4626 0
      vertex -3.2516 -3.4626 10
    endloop
  endfacet
  facet normal -0.661312 -0.750111 0
    outer loop
      vertex -3.2516 -3.4626 0
      vertex -3.02776 -3.65994 10
      vertex -3.2516 -3.4626 10
    endloop
  endfacet
  facet normal -0.661312 -0.750111 -0
    outer loop
      vertex -3.02776 -3.65994 10
      vertex -3.2516 -3.4626 0
      vertex -3.02776 -3.65994 0
    endloop
  endfacet
  facet normal -0.612907 -0.790155 0
    outer loop
      vertex -3.02776 -3.65994 0
      vertex -2.79198 -3.84283 10
      vertex -3.02776 -3.65994 10
    endloop
  endfacet
  facet normal -0.612907 -0.790155 -0
    outer loop
      vertex -2.79198 -3.84283 10
      vertex -3.02776 -3.65994 0
      vertex -2.79198 -3.84283 0
    endloop
  endfacet
  facet normal -0.562083 -0.827081 0
    outer loop
      vertex -2.79198 -3.84283 0
      vertex -2.54518 -4.01056 10
      vertex -2.79198 -3.84283 10
    endloop
  endfacet
  facet normal -0.562083 -0.827081 -0
    outer loop
      vertex -2.54518 -4.01056 10
      vertex -2.79198 -3.84283 0
      vertex -2.54518 -4.01056 0
    endloop
  endfacet
  facet normal -0.509041 -0.860742 0
    outer loop
      vertex -2.54518 -4.01056 0
      vertex -2.28833 -4.16246 10
      vertex -2.54518 -4.01056 10
    endloop
  endfacet
  facet normal -0.509041 -0.860742 -0
    outer loop
      vertex -2.28833 -4.16246 10
      vertex -2.54518 -4.01056 0
      vertex -2.28833 -4.16246 0
    endloop
  endfacet
  facet normal -0.453991 -0.891006 0
    outer loop
      vertex -2.28833 -4.16246 0
      vertex -2.02245 -4.29793 10
      vertex -2.28833 -4.16246 10
    endloop
  endfacet
  facet normal -0.453991 -0.891006 -0
    outer loop
      vertex -2.02245 -4.29793 10
      vertex -2.28833 -4.16246 0
      vertex -2.02245 -4.29793 0
    endloop
  endfacet
  facet normal -0.397148 -0.917755 0
    outer loop
      vertex -2.02245 -4.29793 0
      vertex -1.74859 -4.41644 10
      vertex -2.02245 -4.29793 10
    endloop
  endfacet
  facet normal -0.397148 -0.917755 -0
    outer loop
      vertex -1.74859 -4.41644 10
      vertex -2.02245 -4.29793 0
      vertex -1.74859 -4.41644 0
    endloop
  endfacet
  facet normal -0.338739 -0.94088 0
    outer loop
      vertex -1.74859 -4.41644 0
      vertex -1.46783 -4.51752 10
      vertex -1.74859 -4.41644 10
    endloop
  endfacet
  facet normal -0.338739 -0.94088 -0
    outer loop
      vertex -1.46783 -4.51752 10
      vertex -1.74859 -4.41644 0
      vertex -1.46783 -4.51752 0
    endloop
  endfacet
  facet normal -0.278991 -0.960294 0
    outer loop
      vertex -1.46783 -4.51752 0
      vertex -1.18128 -4.60077 10
      vertex -1.46783 -4.51752 10
    endloop
  endfacet
  facet normal -0.278991 -0.960294 -0
    outer loop
      vertex -1.18128 -4.60077 10
      vertex -1.46783 -4.51752 0
      vertex -1.18128 -4.60077 0
    endloop
  endfacet
  facet normal -0.218143 -0.975917 0
    outer loop
      vertex -1.18128 -4.60077 0
      vertex -0.890061 -4.66586 10
      vertex -1.18128 -4.60077 10
    endloop
  endfacet
  facet normal -0.218143 -0.975917 -0
    outer loop
      vertex -0.890061 -4.66586 10
      vertex -1.18128 -4.60077 0
      vertex -0.890061 -4.66586 0
    endloop
  endfacet
  facet normal -0.156435 -0.987688 0
    outer loop
      vertex -0.890061 -4.66586 0
      vertex -0.595333 -4.71254 10
      vertex -0.890061 -4.66586 10
    endloop
  endfacet
  facet normal -0.156435 -0.987688 -0
    outer loop
      vertex -0.595333 -4.71254 10
      vertex -0.890061 -4.66586 0
      vertex -0.595333 -4.71254 0
    endloop
  endfacet
  facet normal -0.0941075 -0.995562 0
    outer loop
      vertex -0.595333 -4.71254 0
      vertex -0.298255 -4.74063 10
      vertex -0.595333 -4.71254 10
    endloop
  endfacet
  facet normal -0.0941075 -0.995562 -0
    outer loop
      vertex -0.298255 -4.74063 10
      vertex -0.595333 -4.71254 0
      vertex -0.298255 -4.74063 0
    endloop
  endfacet
  facet normal -0.0314113 -0.999507 0
    outer loop
      vertex -0.298255 -4.74063 0
      vertex -8.72532e-016 -4.75 10
      vertex -0.298255 -4.74063 10
    endloop
  endfacet
  facet normal -0.0314113 -0.999507 -0
    outer loop
      vertex -8.72532e-016 -4.75 10
      vertex -0.298255 -4.74063 0
      vertex -8.72532e-016 -4.75 0
    endloop
  endfacet
  facet normal 0.0314113 -0.999507 0
    outer loop
      vertex -8.72532e-016 -4.75 0
      vertex 0.298255 -4.74063 10
      vertex -8.72532e-016 -4.75 10
    endloop
  endfacet
  facet normal 0.0314113 -0.999507 0
    outer loop
      vertex 0.298255 -4.74063 10
      vertex -8.72532e-016 -4.75 0
      vertex 0.298255 -4.74063 0
    endloop
  endfacet
  facet normal 0.0941075 -0.995562 0
    outer loop
      vertex 0.298255 -4.74063 0
      vertex 0.595333 -4.71254 10
      vertex 0.298255 -4.74063 10
    endloop
  endfacet
  facet normal 0.0941075 -0.995562 0
    outer loop
      vertex 0.595333 -4.71254 10
      vertex 0.298255 -4.74063 0
      vertex 0.595333 -4.71254 0
    endloop
  endfacet
  facet normal 0.156435 -0.987688 0
    outer loop
      vertex 0.595333 -4.71254 0
      vertex 0.890061 -4.66586 10
      vertex 0.595333 -4.71254 10
    endloop
  endfacet
  facet normal 0.156435 -0.987688 0
    outer loop
      vertex 0.890061 -4.66586 10
      vertex 0.595333 -4.71254 0
      vertex 0.890061 -4.66586 0
    endloop
  endfacet
  facet normal 0.218143 -0.975917 0
    outer loop
      vertex 0.890061 -4.66586 0
      vertex 1.18128 -4.60077 10
      vertex 0.890061 -4.66586 10
    endloop
  endfacet
  facet normal 0.218143 -0.975917 0
    outer loop
      vertex 1.18128 -4.60077 10
      vertex 0.890061 -4.66586 0
      vertex 1.18128 -4.60077 0
    endloop
  endfacet
  facet normal 0.278991 -0.960294 0
    outer loop
      vertex 1.18128 -4.60077 0
      vertex 1.46783 -4.51752 10
      vertex 1.18128 -4.60077 10
    endloop
  endfacet
  facet normal 0.278991 -0.960294 0
    outer loop
      vertex 1.46783 -4.51752 10
      vertex 1.18128 -4.60077 0
      vertex 1.46783 -4.51752 0
    endloop
  endfacet
  facet normal 0.338739 -0.94088 0
    outer loop
      vertex 1.46783 -4.51752 0
      vertex 1.74859 -4.41644 10
      vertex 1.46783 -4.51752 10
    endloop
  endfacet
  facet normal 0.338739 -0.94088 0
    outer loop
      vertex 1.74859 -4.41644 10
      vertex 1.46783 -4.51752 0
      vertex 1.74859 -4.41644 0
    endloop
  endfacet
  facet normal 0.397148 -0.917755 0
    outer loop
      vertex 1.74859 -4.41644 0
      vertex 2.02245 -4.29793 10
      vertex 1.74859 -4.41644 10
    endloop
  endfacet
  facet normal 0.397148 -0.917755 0
    outer loop
      vertex 2.02245 -4.29793 10
      vertex 1.74859 -4.41644 0
      vertex 2.02245 -4.29793 0
    endloop
  endfacet
  facet normal 0.453991 -0.891006 0
    outer loop
      vertex 2.02245 -4.29793 0
      vertex 2.28833 -4.16246 10
      vertex 2.02245 -4.29793 10
    endloop
  endfacet
  facet normal 0.453991 -0.891006 0
    outer loop
      vertex 2.28833 -4.16246 10
      vertex 2.02245 -4.29793 0
      vertex 2.28833 -4.16246 0
    endloop
  endfacet
  facet normal 0.509041 -0.860742 0
    outer loop
      vertex 2.28833 -4.16246 0
      vertex 2.54518 -4.01056 10
      vertex 2.28833 -4.16246 10
    endloop
  endfacet
  facet normal 0.509041 -0.860742 0
    outer loop
      vertex 2.54518 -4.01056 10
      vertex 2.28833 -4.16246 0
      vertex 2.54518 -4.01056 0
    endloop
  endfacet
  facet normal 0.562083 -0.827081 0
    outer loop
      vertex 2.54518 -4.01056 0
      vertex 2.79198 -3.84283 10
      vertex 2.54518 -4.01056 10
    endloop
  endfacet
  facet normal 0.562083 -0.827081 0
    outer loop
      vertex 2.79198 -3.84283 10
      vertex 2.54518 -4.01056 0
      vertex 2.79198 -3.84283 0
    endloop
  endfacet
  facet normal 0.612907 -0.790155 0
    outer loop
      vertex 2.79198 -3.84283 0
      vertex 3.02776 -3.65994 10
      vertex 2.79198 -3.84283 10
    endloop
  endfacet
  facet normal 0.612907 -0.790155 0
    outer loop
      vertex 3.02776 -3.65994 10
      vertex 2.79198 -3.84283 0
      vertex 3.02776 -3.65994 0
    endloop
  endfacet
  facet normal 0.661312 -0.750111 0
    outer loop
      vertex 3.02776 -3.65994 0
      vertex 3.2516 -3.4626 10
      vertex 3.02776 -3.65994 10
    endloop
  endfacet
  facet normal 0.661312 -0.750111 0
    outer loop
      vertex 3.2516 -3.4626 10
      vertex 3.02776 -3.65994 0
      vertex 3.2516 -3.4626 0
    endloop
  endfacet
  facet normal 0.707107 -0.707107 0
    outer loop
      vertex 3.2516 -3.4626 10
      vertex 3.4626 -3.2516 0
      vertex 3.4626 -3.2516 10
    endloop
  endfacet
  facet normal 0.707107 -0.707107 0
    outer loop
      vertex 3.4626 -3.2516 0
      vertex 3.2516 -3.4626 10
      vertex 3.2516 -3.4626 0
    endloop
  endfacet
  facet normal 0.750111 -0.661312 0
    outer loop
      vertex 3.4626 -3.2516 10
      vertex 3.65994 -3.02776 0
      vertex 3.65994 -3.02776 10
    endloop
  endfacet
  facet normal 0.750111 -0.661312 0
    outer loop
      vertex 3.65994 -3.02776 0
      vertex 3.4626 -3.2516 10
      vertex 3.4626 -3.2516 0
    endloop
  endfacet
  facet normal 0.790155 -0.612907 0
    outer loop
      vertex 3.65994 -3.02776 10
      vertex 3.84283 -2.79198 0
      vertex 3.84283 -2.79198 10
    endloop
  endfacet
  facet normal 0.790155 -0.612907 0
    outer loop
      vertex 3.84283 -2.79198 0
      vertex 3.65994 -3.02776 10
      vertex 3.65994 -3.02776 0
    endloop
  endfacet
  facet normal 0.827081 -0.562083 0
    outer loop
      vertex 3.84283 -2.79198 10
      vertex 4.01056 -2.54518 0
      vertex 4.01056 -2.54518 10
    endloop
  endfacet
  facet normal 0.827081 -0.562083 0
    outer loop
      vertex 4.01056 -2.54518 0
      vertex 3.84283 -2.79198 10
      vertex 3.84283 -2.79198 0
    endloop
  endfacet
  facet normal 0.860742 -0.509041 0
    outer loop
      vertex 4.01056 -2.54518 10
      vertex 4.16246 -2.28833 0
      vertex 4.16246 -2.28833 10
    endloop
  endfacet
  facet normal 0.860742 -0.509041 0
    outer loop
      vertex 4.16246 -2.28833 0
      vertex 4.01056 -2.54518 10
      vertex 4.01056 -2.54518 0
    endloop
  endfacet
  facet normal 0.891006 -0.453991 0
    outer loop
      vertex 4.16246 -2.28833 10
      vertex 4.29793 -2.02245 0
      vertex 4.29793 -2.02245 10
    endloop
  endfacet
  facet normal 0.891006 -0.453991 0
    outer loop
      vertex 4.29793 -2.02245 0
      vertex 4.16246 -2.28833 10
      vertex 4.16246 -2.28833 0
    endloop
  endfacet
  facet normal 0.917755 -0.397148 0
    outer loop
      vertex 4.29793 -2.02245 10
      vertex 4.41644 -1.74859 0
      vertex 4.41644 -1.74859 10
    endloop
  endfacet
  facet normal 0.917755 -0.397148 0
    outer loop
      vertex 4.41644 -1.74859 0
      vertex 4.29793 -2.02245 10
      vertex 4.29793 -2.02245 0
    endloop
  endfacet
  facet normal 0.94088 -0.338739 0
    outer loop
      vertex 4.41644 -1.74859 10
      vertex 4.51752 -1.46783 0
      vertex 4.51752 -1.46783 10
    endloop
  endfacet
  facet normal 0.94088 -0.338739 0
    outer loop
      vertex 4.51752 -1.46783 0
      vertex 4.41644 -1.74859 10
      vertex 4.41644 -1.74859 0
    endloop
  endfacet
  facet normal 0.960294 -0.278991 0
    outer loop
      vertex 4.51752 -1.46783 10
      vertex 4.60077 -1.18128 0
      vertex 4.60077 -1.18128 10
    endloop
  endfacet
  facet normal 0.960294 -0.278991 0
    outer loop
      vertex 4.60077 -1.18128 0
      vertex 4.51752 -1.46783 10
      vertex 4.51752 -1.46783 0
    endloop
  endfacet
  facet normal 0.975917 -0.218143 0
    outer loop
      vertex 4.60077 -1.18128 10
      vertex 4.66586 -0.890061 0
      vertex 4.66586 -0.890061 10
    endloop
  endfacet
  facet normal 0.975917 -0.218143 0
    outer loop
      vertex 4.66586 -0.890061 0
      vertex 4.60077 -1.18128 10
      vertex 4.60077 -1.18128 0
    endloop
  endfacet
  facet normal 0.987688 -0.156435 0
    outer loop
      vertex 4.66586 -0.890061 10
      vertex 4.71254 -0.595333 0
      vertex 4.71254 -0.595333 10
    endloop
  endfacet
  facet normal 0.987688 -0.156435 0
    outer loop
      vertex 4.71254 -0.595333 0
      vertex 4.66586 -0.890061 10
      vertex 4.66586 -0.890061 0
    endloop
  endfacet
  facet normal 0.995562 -0.0941075 0
    outer loop
      vertex 4.71254 -0.595333 10
      vertex 4.74063 -0.298255 0
      vertex 4.74063 -0.298255 10
    endloop
  endfacet
  facet normal 0.995562 -0.0941075 0
    outer loop
      vertex 4.74063 -0.298255 0
      vertex 4.71254 -0.595333 10
      vertex 4.71254 -0.595333 0
    endloop
  endfacet
  facet normal 0.999507 -0.0314113 0
    outer loop
      vertex 4.74063 -0.298255 10
      vertex 4.75 0 0
      vertex 4.75 0 10
    endloop
  endfacet
  facet normal 0.999507 -0.0314113 0
    outer loop
      vertex 4.75 0 0
      vertex 4.74063 -0.298255 10
      vertex 4.74063 -0.298255 0
    endloop
  endfacet
  facet normal 0 0 -1
    outer loop
      vertex 4.74063 -0.298255 0
      vertex 4.74063 0.298255 0
      vertex 4.75 0 0
    endloop
  endfacet
  facet normal 0 0 -1
    outer loop
      vertex 4.71254 -0.595333 0
      vertex 4.74063 0.298255 0
      vertex 4.74063 -0.298255 0
    endloop
  endfacet
  facet normal 0 0 -1
    outer loop
      vertex 4.71254 -0.595333 0
      vertex 4.71254 0.595333 0
      vertex 4.74063 0.298255 0
    endloop
  endfacet
  facet normal 0 0 -1
    outer loop
      vertex 4.66586 -0.890061 0
      vertex 4.71254 0.595333 0
      vertex 4.71254 -0.595333 0
    endloop
  endfacet
  facet normal 0 0 -1
    outer loop
      vertex 4.66586 -0.890061 0
      vertex 4.66586 0.890061 0
      vertex 4.71254 0.595333 0
    endloop
  endfacet
  facet normal 0 0 -1
    outer loop
      vertex 4.60077 -1.18128 0
      vertex 4.66586 0.890061 0
      vertex 4.66586 -0.890061 0
    endloop
  endfacet
  facet normal 0 0 -1
    outer loop
      vertex 4.60077 -1.18128 0
      vertex 4.60077 1.18128 0
      vertex 4.66586 0.890061 0
    endloop
  endfacet
  facet normal 0 0 -1
    outer loop
      vertex 4.51752 -1.46783 0
      vertex 4.60077 1.18128 0
      vertex 4.60077 -1.18128 0
    endloop
  endfacet
  facet normal 0 0 -1
    outer loop
      vertex 4.51752 -1.46783 0
      vertex 4.51752 1.46783 0
      vertex 4.60077 1.18128 0
    endloop
  endfacet
  facet normal 0 0 -1
    outer loop
      vertex 4.41644 -1.74859 0
      vertex 4.51752 1.46783 0
      vertex 4.51752 -1.46783 0
    endloop
  endfacet
  facet normal 0 0 -1
    outer loop
      vertex 4.41644 -1.74859 0
      vertex 4.41644 1.74859 0
      vertex 4.51752 1.46783 0
    endloop
  endfacet
  facet normal 0 0 -1
    outer loop
      vertex 4.29793 -2.02245 0
      vertex 4.41644 1.74859 0
      vertex 4.41644 -1.74859 0
    endloop
  endfacet
  facet normal 0 0 -1
    outer loop
      vertex 4.29793 -2.02245 0
      vertex 4.29793 2.02245 0
      vertex 4.41644 1.74859 0
    endloop
  endfacet
  facet normal 0 0 -1
    outer loop
      vertex 4.16246 -2.28833 0
      vertex 4.29793 2.02245 0
      vertex 4.29793 -2.02245 0
    endloop
  endfacet
  facet normal 0 0 -1
    outer loop
      vertex 4.16246 -2.28833 0
      vertex 4.16246 2.28833 0
      vertex 4.29793 2.02245 0
    endloop
  endfacet
  facet normal 0 0 -1
    outer loop
      vertex 4.01056 -2.54518 0
      vertex 4.16246 2.28833 0
      vertex 4.16246 -2.28833 0
    endloop
  endfacet
  facet normal 0 0 -1
    outer loop
      vertex 4.01056 -2.54518 0
      vertex 4.01056 2.54518 0
      vertex 4.16246 2.28833 0
    endloop
  endfacet
  facet normal 0 0 -1
    outer loop
      vertex 3.84283 -2.79198 0
      vertex 4.01056 2.54518 0
      vertex 4.01056 -2.54518 0
    endloop
  endfacet
  facet normal 0 0 -1
    outer loop
      vertex 3.84283 -2.79198 0
      vertex 3.84283 2.79198 0
      vertex 4.01056 2.54518 0
    endloop
  endfacet
  facet normal 0 0 -1
    outer loop
      vertex 3.65994 -3.02776 0
      vertex 3.84283 2.79198 0
      vertex 3.84283 -2.79198 0
    endloop
  endfacet
  facet normal 0 0 -1
    outer loop
      vertex 3.65994 -3.02776 0
      vertex 3.65994 3.02776 0
      vertex 3.84283 2.79198 0
    endloop
  endfacet
  facet normal 0 0 -1
    outer loop
      vertex 3.4626 -3.2516 0
      vertex 3.65994 3.02776 0
      vertex 3.65994 -3.02776 0
    endloop
  endfacet
  facet normal 0 0 -1
    outer loop
      vertex 3.4626 -3.2516 0
      vertex 3.4626 3.2516 0
      vertex 3.65994 3.02776 0
    endloop
  endfacet
  facet normal 0 0 -1
    outer loop
      vertex 3.2516 -3.4626 0
      vertex 3.4626 3.2516 0
      vertex 3.4626 -3.2516 0
    endloop
  endfacet
  facet normal 0 0 -1
    outer loop
      vertex 3.2516 -3.4626 0
      vertex 3.2516 3.4626 0
      vertex 3.4626 3.2516 0
    endloop
  endfacet
  facet normal 0 0 -1
    outer loop
      vertex 3.02776 -3.65994 0
      vertex 3.2516 3.4626 0
      vertex 3.2516 -3.4626 0
    endloop
  endfacet
  facet normal 0 0 -1
    outer loop
      vertex 3.02776 -3.65994 0
      vertex 3.02776 3.65994 0
      vertex 3.2516 3.4626 0
    endloop
  endfacet
  facet normal 0 0 -1
    outer loop
      vertex 2.79198 -3.84283 0
      vertex 3.02776 3.65994 0
      vertex 3.02776 -3.65994 0
    endloop
  endfacet
  facet normal 0 0 -1
    outer loop
      vertex 2.79198 -3.84283 0
      vertex 2.79198 3.84283 0
      vertex 3.02776 3.65994 0
    endloop
  endfacet
  facet normal 0 0 -1
    outer loop
      vertex 2.54518 -4.01056 0
      vertex 2.79198 3.84283 0
      vertex 2.79198 -3.84283 0
    endloop
  endfacet
  facet normal 0 0 -1
    outer loop
      vertex 2.54518 -4.01056 0
      vertex 2.54518 4.01056 0
      vertex 2.79198 3.84283 0
    endloop
  endfacet
  facet normal 0 0 -1
    outer loop
      vertex 2.28833 -4.16246 0
      vertex 2.54518 4.01056 0
      vertex 2.54518 -4.01056 0
    endloop
  endfacet
  facet normal 0 0 -1
    outer loop
      vertex 2.28833 -4.16246 0
      vertex 2.28833 4.16246 0
      vertex 2.54518 4.01056 0
    endloop
  endfacet
  facet normal 0 0 -1
    outer loop
      vertex 2.02245 -4.29793 0
      vertex 2.28833 4.16246 0
      vertex 2.28833 -4.16246 0
    endloop
  endfacet
  facet normal 0 0 -1
    outer loop
      vertex 2.02245 -4.29793 0
      vertex 2.02245 4.29793 0
      vertex 2.28833 4.16246 0
    endloop
  endfacet
  facet normal 0 0 -1
    outer loop
      vertex 1.74859 -4.41644 0
      vertex 2.02245 4.29793 0
      vertex 2.02245 -4.29793 0
    endloop
  endfacet
  facet normal 0 0 -1
    outer loop
      vertex 1.74859 -4.41644 0
      vertex 1.74859 4.41644 0
      vertex 2.02245 4.29793 0
    endloop
  endfacet
  facet normal 0 0 -1
    outer loop
      vertex 1.46783 -4.51752 0
      vertex 1.74859 4.41644 0
      vertex 1.74859 -4.41644 0
    endloop
  endfacet
  facet normal 0 0 -1
    outer loop
      vertex 1.46783 -4.51752 0
      vertex 1.46783 4.51752 0
      vertex 1.74859 4.41644 0
    endloop
  endfacet
  facet normal 0 0 -1
    outer loop
      vertex 1.18128 -4.60077 0
      vertex 1.46783 4.51752 0
      vertex 1.46783 -4.51752 0
    endloop
  endfacet
  facet normal 0 0 -1
    outer loop
      vertex 1.18128 -4.60077 0
      vertex 1.18128 4.60077 0
      vertex 1.46783 4.51752 0
    endloop
  endfacet
  facet normal 0 0 -1
    outer loop
      vertex 0.890061 -4.66586 0
      vertex 1.18128 4.60077 0
      vertex 1.18128 -4.60077 0
    endloop
  endfacet
  facet normal 0 0 -1
    outer loop
      vertex 0.890061 -4.66586 0
      vertex 0.890061 4.66586 0
      vertex 1.18128 4.60077 0
    endloop
  endfacet
  facet normal 0 0 -1
    outer loop
      vertex 0.595333 -4.71254 0
      vertex 0.890061 4.66586 0
      vertex 0.890061 -4.66586 0
    endloop
  endfacet
  facet normal 0 0 -1
    outer loop
      vertex 0.595333 -4.71254 0
      vertex 0.595333 4.71254 0
      vertex 0.890061 4.66586 0
    endloop
  endfacet
  facet normal 0 0 -1
    outer loop
      vertex 0.298255 -4.74063 0
      vertex 0.595333 4.71254 0
      vertex 0.595333 -4.71254 0
    endloop
  endfacet
  facet normal 0 0 -1
    outer loop
      vertex 0.298255 -4.74063 0
      vertex 0.298255 4.74063 0
      vertex 0.595333 4.71254 0
    endloop
  endfacet
  facet normal 0 0 -1
    outer loop
      vertex 0.298255 -4.74063 0
      vertex 2.90844e-016 4.75 0
      vertex 0.298255 4.74063 0
    endloop
  endfacet
  facet normal 0 0 -1
    outer loop
      vertex -8.72532e-016 -4.75 0
      vertex 2.90844e-016 4.75 0
      vertex 0.298255 -4.74063 0
    endloop
  endfacet
  facet normal 0 0 -1
    outer loop
      vertex -0.298255 -4.74063 0
      vertex 2.90844e-016 4.75 0
      vertex -8.72532e-016 -4.75 0
    endloop
  endfacet
  facet normal 0 0 -1
    outer loop
      vertex -0.298255 -4.74063 0
      vertex -0.298255 4.74063 0
      vertex 2.90844e-016 4.75 0
    endloop
  endfacet
  facet normal 0 0 -1
    outer loop
      vertex -0.595333 -4.71254 0
      vertex -0.298255 4.74063 0
      vertex -0.298255 -4.74063 0
    endloop
  endfacet
  facet normal 0 0 -1
    outer loop
      vertex -0.595333 -4.71254 0
      vertex -0.595333 4.71254 0
      vertex -0.298255 4.74063 0
    endloop
  endfacet
  facet normal 0 0 -1
    outer loop
      vertex -0.890061 -4.66586 0
      vertex -0.595333 4.71254 0
      vertex -0.595333 -4.71254 0
    endloop
  endfacet
  facet normal 0 0 -1
    outer loop
      vertex -0.890061 -4.66586 0
      vertex -0.890061 4.66586 0
      vertex -0.595333 4.71254 0
    endloop
  endfacet
  facet normal 0 0 -1
    outer loop
      vertex -1.18128 -4.60077 0
      vertex -0.890061 4.66586 0
      vertex -0.890061 -4.66586 0
    endloop
  endfacet
  facet normal 0 0 -1
    outer loop
      vertex -1.18128 -4.60077 0
      vertex -1.18128 4.60077 0
      vertex -0.890061 4.66586 0
    endloop
  endfacet
  facet normal 0 0 -1
    outer loop
      vertex -1.46783 -4.51752 0
      vertex -1.18128 4.60077 0
      vertex -1.18128 -4.60077 0
    endloop
  endfacet
  facet normal 0 0 -1
    outer loop
      vertex -1.46783 -4.51752 0
      vertex -1.46783 4.51752 0
      vertex -1.18128 4.60077 0
    endloop
  endfacet
  facet normal 0 0 -1
    outer loop
      vertex -1.74859 -4.41644 0
      vertex -1.46783 4.51752 0
      vertex -1.46783 -4.51752 0
    endloop
  endfacet
  facet normal 0 0 -1
    outer loop
      vertex -1.74859 -4.41644 0
      vertex -1.74859 4.41644 0
      vertex -1.46783 4.51752 0
    endloop
  endfacet
  facet normal 0 0 -1
    outer loop
      vertex -2.02245 -4.29793 0
      vertex -1.74859 4.41644 0
      vertex -1.74859 -4.41644 0
    endloop
  endfacet
  facet normal 0 0 -1
    outer loop
      vertex -2.02245 -4.29793 0
      vertex -2.02245 4.29793 0
      vertex -1.74859 4.41644 0
    endloop
  endfacet
  facet normal 0 0 -1
    outer loop
      vertex -2.28833 -4.16246 0
      vertex -2.02245 4.29793 0
      vertex -2.02245 -4.29793 0
    endloop
  endfacet
  facet normal 0 0 -1
    outer loop
      vertex -2.28833 -4.16246 0
      vertex -2.28833 4.16246 0
      vertex -2.02245 4.29793 0
    endloop
  endfacet
  facet normal 0 0 -1
    outer loop
      vertex -2.54518 -4.01056 0
      vertex -2.28833 4.16246 0
      vertex -2.28833 -4.16246 0
    endloop
  endfacet
  facet normal 0 0 -1
    outer loop
      vertex -2.54518 -4.01056 0
      vertex -2.54518 4.01056 0
      vertex -2.28833 4.16246 0
    endloop
  endfacet
  facet normal 0 0 -1
    outer loop
      vertex -2.79198 -3.84283 0
      vertex -2.54518 4.01056 0
      vertex -2.54518 -4.01056 0
    endloop
  endfacet
  facet normal 0 0 -1
    outer loop
      vertex -2.79198 -3.84283 0
      vertex -2.79198 3.84283 0
      vertex -2.54518 4.01056 0
    endloop
  endfacet
  facet normal 0 0 -1
    outer loop
      vertex -3.02776 -3.65994 0
      vertex -2.79198 3.84283 0
      vertex -2.79198 -3.84283 0
    endloop
  endfacet
  facet normal 0 0 -1
    outer loop
      vertex -3.02776 -3.65994 0
      vertex -3.02776 3.65994 0
      vertex -2.79198 3.84283 0
    endloop
  endfacet
  facet normal 0 0 -1
    outer loop
      vertex -3.2516 -3.4626 0
      vertex -3.02776 3.65994 0
      vertex -3.02776 -3.65994 0
    endloop
  endfacet
  facet normal 0 0 -1
    outer loop
      vertex -3.2516 -3.4626 0
      vertex -3.2516 3.4626 0
      vertex -3.02776 3.65994 0
    endloop
  endfacet
  facet normal 0 0 -1
    outer loop
      vertex -3.4626 -3.2516 0
      vertex -3.2516 3.4626 0
      vertex -3.2516 -3.4626 0
    endloop
  endfacet
  facet normal 0 0 -1
    outer loop
      vertex -3.4626 -3.2516 0
      vertex -3.4626 3.2516 0
      vertex -3.2516 3.4626 0
    endloop
  endfacet
  facet normal 0 0 -1
    outer loop
      vertex -3.65994 -3.02776 0
      vertex -3.4626 3.2516 0
      vertex -3.4626 -3.2516 0
    endloop
  endfacet
  facet normal 0 0 -1
    outer loop
      vertex -3.65994 -3.02776 0
      vertex -3.65994 3.02776 0
      vertex -3.4626 3.2516 0
    endloop
  endfacet
  facet normal 0 0 -1
    outer loop
      vertex -3.84283 -2.79198 0
      vertex -3.65994 3.02776 0
      vertex -3.65994 -3.02776 0
    endloop
  endfacet
  facet normal 0 0 -1
    outer loop
      vertex -3.84283 -2.79198 0
      vertex -3.84283 2.79198 0
      vertex -3.65994 3.02776 0
    endloop
  endfacet
  facet normal 0 0 -1
    outer loop
      vertex -4.01056 -2.54518 0
      vertex -3.84283 2.79198 0
      vertex -3.84283 -2.79198 0
    endloop
  endfacet
  facet normal 0 0 -1
    outer loop
      vertex -4.01056 -2.54518 0
      vertex -4.01056 2.54518 0
      vertex -3.84283 2.79198 0
    endloop
  endfacet
  facet normal 0 0 -1
    outer loop
      vertex -4.16246 -2.28833 0
      vertex -4.01056 2.54518 0
      vertex -4.01056 -2.54518 0
    endloop
  endfacet
  facet normal 0 0 -1
    outer loop
      vertex -4.16246 -2.28833 0
      vertex -4.16246 2.28833 0
      vertex -4.01056 2.54518 0
    endloop
  endfacet
  facet normal 0 0 -1
    outer loop
      vertex -4.29793 -2.02245 0
      vertex -4.16246 2.28833 0
      vertex -4.16246 -2.28833 0
    endloop
  endfacet
  facet normal 0 0 -1
    outer loop
      vertex -4.29793 -2.02245 0
      vertex -4.29793 2.02245 0
      vertex -4.16246 2.28833 0
    endloop
  endfacet
  facet normal 0 0 -1
    outer loop
      vertex -4.41644 -1.74859 0
      vertex -4.29793 2.02245 0
      vertex -4.29793 -2.02245 0
    endloop
  endfacet
  facet normal 0 0 -1
    outer loop
      vertex -4.41644 -1.74859 0
      vertex -4.41644 1.74859 0
      vertex -4.29793 2.02245 0
    endloop
  endfacet
  facet normal 0 0 -1
    outer loop
      vertex -4.51752 -1.46783 0
      vertex -4.41644 1.74859 0
      vertex -4.41644 -1.74859 0
    endloop
  endfacet
  facet normal 0 0 -1
    outer loop
      vertex -4.51752 -1.46783 0
      vertex -4.51752 1.46783 0
      vertex -4.41644 1.74859 0
    endloop
  endfacet
  facet normal 0 0 -1
    outer loop
      vertex -4.60077 -1.18128 0
      vertex -4.51752 1.46783 0
      vertex -4.51752 -1.46783 0
    endloop
  endfacet
  facet normal 0 0 -1
    outer loop
      vertex -4.60077 -1.18128 0
      vertex -4.60077 1.18128 0
      vertex -4.51752 1.46783 0
    endloop
  endfacet
  facet normal 0 0 -1
    outer loop
      vertex -4.66586 -0.890061 0
      vertex -4.60077 1.18128 0
      vertex -4.60077 -1.18128 0
    endloop
  endfacet
  facet normal 0 0 -1
    outer loop
      vertex -4.66586 -0.890061 0
      vertex -4.66586 0.890061 0
      vertex -4.60077 1.18128 0
    endloop
  endfacet
  facet normal 0 0 -1
    outer loop
      vertex -4.71254 -0.595333 0
      vertex -4.66586 0.890061 0
      vertex -4.66586 -0.890061 0
    endloop
  endfacet
  facet normal 0 0 -1
    outer loop
      vertex -4.71254 -0.595333 0
      vertex -4.71254 0.595333 0
      vertex -4.66586 0.890061 0
    endloop
  endfacet
  facet normal 0 0 -1
    outer loop
      vertex -4.74063 -0.298255 0
      vertex -4.71254 0.595333 0
      vertex -4.71254 -0.595333 0
    endloop
  endfacet
  facet normal 0 0 -1
    outer loop
      vertex -4.74063 -0.298255 0
      vertex -4.74063 0.298255 0
      vertex -4.71254 0.595333 0
    endloop
  endfacet
  facet normal 0 -0 -1
    outer loop
      vertex -4.74063 0.298255 0
      vertex -4.74063 -0.298255 0
      vertex -4.75 5.81688e-016 0
    endloop
  endfacet
  facet normal 0 0 1
    outer loop
      vertex 4.74063 0.298255 10
      vertex 4.74063 -0.298255 10
      vertex 4.75 0 10
    endloop
  endfacet
  facet normal 0 0 1
    outer loop
      vertex 4.71254 0.595333 10
      vertex 4.74063 -0.298255 10
      vertex 4.74063 0.298255 10
    endloop
  endfacet
  facet normal 0 0 1
    outer loop
      vertex 4.71254 0.595333 10
      vertex 4.71254 -0.595333 10
      vertex 4.74063 -0.298255 10
    endloop
  endfacet
  facet normal 0 0 1
    outer loop
      vertex 4.66586 0.890061 10
      vertex 4.71254 -0.595333 10
      vertex 4.71254 0.595333 10
    endloop
  endfacet
  facet normal 0 0 1
    outer loop
      vertex 4.66586 0.890061 10
      vertex 4.66586 -0.890061 10
      vertex 4.71254 -0.595333 10
    endloop
  endfacet
  facet normal 0 0 1
    outer loop
      vertex 4.60077 1.18128 10
      vertex 4.66586 -0.890061 10
      vertex 4.66586 0.890061 10
    endloop
  endfacet
  facet normal 0 0 1
    outer loop
      vertex 4.60077 1.18128 10
      vertex 4.60077 -1.18128 10
      vertex 4.66586 -0.890061 10
    endloop
  endfacet
  facet normal 0 0 1
    outer loop
      vertex 4.51752 1.46783 10
      vertex 4.60077 -1.18128 10
      vertex 4.60077 1.18128 10
    endloop
  endfacet
  facet normal 0 0 1
    outer loop
      vertex 4.51752 1.46783 10
      vertex 4.51752 -1.46783 10
      vertex 4.60077 -1.18128 10
    endloop
  endfacet
  facet normal 0 0 1
    outer loop
      vertex 4.41644 1.74859 10
      vertex 4.51752 -1.46783 10
      vertex 4.51752 1.46783 10
    endloop
  endfacet
  facet normal 0 0 1
    outer loop
      vertex 4.41644 1.74859 10
      vertex 4.41644 -1.74859 10
      vertex 4.51752 -1.46783 10
    endloop
  endfacet
  facet normal 0 0 1
    outer loop
      vertex 4.29793 2.02245 10
      vertex 4.41644 -1.74859 10
      vertex 4.41644 1.74859 10
    endloop
  endfacet
  facet normal 0 0 1
    outer loop
      vertex 4.29793 2.02245 10
      vertex 4.29793 -2.02245 10
      vertex 4.41644 -1.74859 10
    endloop
  endfacet
  facet normal 0 0 1
    outer loop
      vertex 4.16246 2.28833 10
      vertex 4.29793 -2.02245 10
      vertex 4.29793 2.02245 10
    endloop
  endfacet
  facet normal 0 0 1
    outer loop
      vertex 4.16246 2.28833 10
      vertex 4.16246 -2.28833 10
      vertex 4.29793 -2.02245 10
    endloop
  endfacet
  facet normal 0 0 1
    outer loop
      vertex 4.01056 2.54518 10
      vertex 4.16246 -2.28833 10
      vertex 4.16246 2.28833 10
    endloop
  endfacet
  facet normal 0 0 1
    outer loop
      vertex 4.01056 2.54518 10
      vertex 4.01056 -2.54518 10
      vertex 4.16246 -2.28833 10
    endloop
  endfacet
  facet normal 0 0 1
    outer loop
      vertex 3.84283 2.79198 10
      vertex 4.01056 -2.54518 10
      vertex 4.01056 2.54518 10
    endloop
  endfacet
  facet normal 0 0 1
    outer loop
      vertex 3.84283 2.79198 10
      vertex 3.84283 -2.79198 10
      vertex 4.01056 -2.54518 10
    endloop
  endfacet
  facet normal 0 0 1
    outer loop
      vertex 3.65994 3.02776 10
      vertex 3.84283 -2.79198 10
      vertex 3.84283 2.79198 10
    endloop
  endfacet
  facet normal 0 0 1
    outer loop
      vertex 3.65994 3.02776 10
      vertex 3.65994 -3.02776 10
      vertex 3.84283 -2.79198 10
    endloop
  endfacet
  facet normal 0 0 1
    outer loop
      vertex 3.4626 3.2516 10
      vertex 3.65994 -3.02776 10
      vertex 3.65994 3.02776 10
    endloop
  endfacet
  facet normal 0 0 1
    outer loop
      vertex 3.4626 3.2516 10
      vertex 3.4626 -3.2516 10
      vertex 3.65994 -3.02776 10
    endloop
  endfacet
  facet normal 0 0 1
    outer loop
      vertex 3.2516 3.4626 10
      vertex 3.4626 -3.2516 10
      vertex 3.4626 3.2516 10
    endloop
  endfacet
  facet normal 0 0 1
    outer loop
      vertex 3.2516 3.4626 10
      vertex 3.2516 -3.4626 10
      vertex 3.4626 -3.2516 10
    endloop
  endfacet
  facet normal 0 0 1
    outer loop
      vertex 3.02776 3.65994 10
      vertex 3.2516 -3.4626 10
      vertex 3.2516 3.4626 10
    endloop
  endfacet
  facet normal 0 0 1
    outer loop
      vertex 3.02776 3.65994 10
      vertex 3.02776 -3.65994 10
      vertex 3.2516 -3.4626 10
    endloop
  endfacet
  facet normal 0 0 1
    outer loop
      vertex 2.79198 3.84283 10
      vertex 3.02776 -3.65994 10
      vertex 3.02776 3.65994 10
    endloop
  endfacet
  facet normal 0 0 1
    outer loop
      vertex 2.79198 3.84283 10
      vertex 2.79198 -3.84283 10
      vertex 3.02776 -3.65994 10
    endloop
  endfacet
  facet normal 0 0 1
    outer loop
      vertex 2.54518 4.01056 10
      vertex 2.79198 -3.84283 10
      vertex 2.79198 3.84283 10
    endloop
  endfacet
  facet normal 0 0 1
    outer loop
      vertex 2.54518 4.01056 10
      vertex 2.54518 -4.01056 10
      vertex 2.79198 -3.84283 10
    endloop
  endfacet
  facet normal 0 0 1
    outer loop
      vertex 2.28833 4.16246 10
      vertex 2.54518 -4.01056 10
      vertex 2.54518 4.01056 10
    endloop
  endfacet
  facet normal 0 0 1
    outer loop
      vertex 2.28833 4.16246 10
      vertex 2.28833 -4.16246 10
      vertex 2.54518 -4.01056 10
    endloop
  endfacet
  facet normal 0 0 1
    outer loop
      vertex 2.02245 4.29793 10
      vertex 2.28833 -4.16246 10
      vertex 2.28833 4.16246 10
    endloop
  endfacet
  facet normal 0 0 1
    outer loop
      vertex 2.02245 4.29793 10
      vertex 2.02245 -4.29793 10
      vertex 2.28833 -4.16246 10
    endloop
  endfacet
  facet normal 0 0 1
    outer loop
      vertex 1.74859 4.41644 10
      vertex 2.02245 -4.29793 10
      vertex 2.02245 4.29793 10
    endloop
  endfacet
  facet normal 0 0 1
    outer loop
      vertex 1.74859 4.41644 10
      vertex 1.74859 -4.41644 10
      vertex 2.02245 -4.29793 10
    endloop
  endfacet
  facet normal 0 0 1
    outer loop
      vertex 1.46783 4.51752 10
      vertex 1.74859 -4.41644 10
      vertex 1.74859 4.41644 10
    endloop
  endfacet
  facet normal 0 0 1
    outer loop
      vertex 1.46783 4.51752 10
      vertex 1.46783 -4.51752 10
      vertex 1.74859 -4.41644 10
    endloop
  endfacet
  facet normal 0 0 1
    outer loop
      vertex 1.18128 4.60077 10
      vertex 1.46783 -4.51752 10
      vertex 1.46783 4.51752 10
    endloop
  endfacet
  facet normal 0 0 1
    outer loop
      vertex 1.18128 4.60077 10
      vertex 1.18128 -4.60077 10
      vertex 1.46783 -4.51752 10
    endloop
  endfacet
  facet normal 0 0 1
    outer loop
      vertex 0.890061 4.66586 10
      vertex 1.18128 -4.60077 10
      vertex 1.18128 4.60077 10
    endloop
  endfacet
  facet normal 0 0 1
    outer loop
      vertex 0.890061 4.66586 10
      vertex 0.890061 -4.66586 10
      vertex 1.18128 -4.60077 10
    endloop
  endfacet
  facet normal 0 0 1
    outer loop
      vertex 0.595333 4.71254 10
      vertex 0.890061 -4.66586 10
      vertex 0.890061 4.66586 10
    endloop
  endfacet
  facet normal 0 0 1
    outer loop
      vertex 0.595333 4.71254 10
      vertex 0.595333 -4.71254 10
      vertex 0.890061 -4.66586 10
    endloop
  endfacet
  facet normal 0 0 1
    outer loop
      vertex 0.298255 4.74063 10
      vertex 0.595333 -4.71254 10
      vertex 0.595333 4.71254 10
    endloop
  endfacet
  facet normal 0 0 1
    outer loop
      vertex 0.298255 4.74063 10
      vertex 0.298255 -4.74063 10
      vertex 0.595333 -4.71254 10
    endloop
  endfacet
  facet normal 0 0 1
    outer loop
      vertex 2.90844e-016 4.75 10
      vertex 0.298255 -4.74063 10
      vertex 0.298255 4.74063 10
    endloop
  endfacet
  facet normal 0 0 1
    outer loop
      vertex 2.90844e-016 4.75 10
      vertex -8.72532e-016 -4.75 10
      vertex 0.298255 -4.74063 10
    endloop
  endfacet
  facet normal -0 0 1
    outer loop
      vertex -0.298255 4.74063 10
      vertex -8.72532e-016 -4.75 10
      vertex 2.90844e-016 4.75 10
    endloop
  endfacet
  facet normal 0 0 1
    outer loop
      vertex -0.298255 4.74063 10
      vertex -0.298255 -4.74063 10
      vertex -8.72532e-016 -4.75 10
    endloop
  endfacet
  facet normal -0 0 1
    outer loop
      vertex -0.595333 4.71254 10
      vertex -0.298255 -4.74063 10
      vertex -0.298255 4.74063 10
    endloop
  endfacet
  facet normal 0 0 1
    outer loop
      vertex -0.595333 4.71254 10
      vertex -0.595333 -4.71254 10
      vertex -0.298255 -4.74063 10
    endloop
  endfacet
  facet normal -0 0 1
    outer loop
      vertex -0.890061 4.66586 10
      vertex -0.595333 -4.71254 10
      vertex -0.595333 4.71254 10
    endloop
  endfacet
  facet normal 0 0 1
    outer loop
      vertex -0.890061 4.66586 10
      vertex -0.890061 -4.66586 10
      vertex -0.595333 -4.71254 10
    endloop
  endfacet
  facet normal -0 0 1
    outer loop
      vertex -1.18128 4.60077 10
      vertex -0.890061 -4.66586 10
      vertex -0.890061 4.66586 10
    endloop
  endfacet
  facet normal 0 0 1
    outer loop
      vertex -1.18128 4.60077 10
      vertex -1.18128 -4.60077 10
      vertex -0.890061 -4.66586 10
    endloop
  endfacet
  facet normal -0 0 1
    outer loop
      vertex -1.46783 4.51752 10
      vertex -1.18128 -4.60077 10
      vertex -1.18128 4.60077 10
    endloop
  endfacet
  facet normal 0 0 1
    outer loop
      vertex -1.46783 4.51752 10
      vertex -1.46783 -4.51752 10
      vertex -1.18128 -4.60077 10
    endloop
  endfacet
  facet normal -0 0 1
    outer loop
      vertex -1.74859 4.41644 10
      vertex -1.46783 -4.51752 10
      vertex -1.46783 4.51752 10
    endloop
  endfacet
  facet normal 0 0 1
    outer loop
      vertex -1.74859 4.41644 10
      vertex -1.74859 -4.41644 10
      vertex -1.46783 -4.51752 10
    endloop
  endfacet
  facet normal -0 0 1
    outer loop
      vertex -2.02245 4.29793 10
      vertex -1.74859 -4.41644 10
      vertex -1.74859 4.41644 10
    endloop
  endfacet
  facet normal 0 0 1
    outer loop
      vertex -2.02245 4.29793 10
      vertex -2.02245 -4.29793 10
      vertex -1.74859 -4.41644 10
    endloop
  endfacet
  facet normal -0 0 1
    outer loop
      vertex -2.28833 4.16246 10
      vertex -2.02245 -4.29793 10
      vertex -2.02245 4.29793 10
    endloop
  endfacet
  facet normal 0 0 1
    outer loop
      vertex -2.28833 4.16246 10
      vertex -2.28833 -4.16246 10
      vertex -2.02245 -4.29793 10
    endloop
  endfacet
  facet normal -0 0 1
    outer loop
      vertex -2.54518 4.01056 10
      vertex -2.28833 -4.16246 10
      vertex -2.28833 4.16246 10
    endloop
  endfacet
  facet normal 0 0 1
    outer loop
      vertex -2.54518 4.01056 10
      vertex -2.54518 -4.01056 10
      vertex -2.28833 -4.16246 10
    endloop
  endfacet
  facet normal -0 0 1
    outer loop
      vertex -2.79198 3.84283 10
      vertex -2.54518 -4.01056 10
      vertex -2.54518 4.01056 10
    endloop
  endfacet
  facet normal 0 0 1
    outer loop
      vertex -2.79198 3.84283 10
      vertex -2.79198 -3.84283 10
      vertex -2.54518 -4.01056 10
    endloop
  endfacet
  facet normal -0 0 1
    outer loop
      vertex -3.02776 3.65994 10
      vertex -2.79198 -3.84283 10
      vertex -2.79198 3.84283 10
    endloop
  endfacet
  facet normal 0 0 1
    outer loop
      vertex -3.02776 3.65994 10
      vertex -3.02776 -3.65994 10
      vertex -2.79198 -3.84283 10
    endloop
  endfacet
  facet normal -0 0 1
    outer loop
      vertex -3.2516 3.4626 10
      vertex -3.02776 -3.65994 10
      vertex -3.02776 3.65994 10
    endloop
  endfacet
  facet normal 0 0 1
    outer loop
      vertex -3.2516 3.4626 10
      vertex -3.2516 -3.4626 10
      vertex -3.02776 -3.65994 10
    endloop
  endfacet
  facet normal -0 0 1
    outer loop
      vertex -3.4626 3.2516 10
      vertex -3.2516 -3.4626 10
      vertex -3.2516 3.4626 10
    endloop
  endfacet
  facet normal 0 0 1
    outer loop
      vertex -3.4626 3.2516 10
      vertex -3.4626 -3.2516 10
      vertex -3.2516 -3.4626 10
    endloop
  endfacet
  facet normal -0 0 1
    outer loop
      vertex -3.65994 3.02776 10
      vertex -3.4626 -3.2516 10
      vertex -3.4626 3.2516 10
    endloop
  endfacet
  facet normal 0 0 1
    outer loop
      vertex -3.65994 3.02776 10
      vertex -3.65994 -3.02776 10
      vertex -3.4626 -3.2516 10
    endloop
  endfacet
  facet normal -0 0 1
    outer loop
      vertex -3.84283 2.79198 10
      vertex -3.65994 -3.02776 10
      vertex -3.65994 3.02776 10
    endloop
  endfacet
  facet normal 0 0 1
    outer loop
      vertex -3.84283 2.79198 10
      vertex -3.84283 -2.79198 10
      vertex -3.65994 -3.02776 10
    endloop
  endfacet
  facet normal -0 0 1
    outer loop
      vertex -4.01056 2.54518 10
      vertex -3.84283 -2.79198 10
      vertex -3.84283 2.79198 10
    endloop
  endfacet
  facet normal 0 0 1
    outer loop
      vertex -4.01056 2.54518 10
      vertex -4.01056 -2.54518 10
      vertex -3.84283 -2.79198 10
    endloop
  endfacet
  facet normal -0 0 1
    outer loop
      vertex -4.16246 2.28833 10
      vertex -4.01056 -2.54518 10
      vertex -4.01056 2.54518 10
    endloop
  endfacet
  facet normal 0 0 1
    outer loop
      vertex -4.16246 2.28833 10
      vertex -4.16246 -2.28833 10
      vertex -4.01056 -2.54518 10
    endloop
  endfacet
  facet normal -0 0 1
    outer loop
      vertex -4.29793 2.02245 10
      vertex -4.16246 -2.28833 10
      vertex -4.16246 2.28833 10
    endloop
  endfacet
  facet normal 0 0 1
    outer loop
      vertex -4.29793 2.02245 10
      vertex -4.29793 -2.02245 10
      vertex -4.16246 -2.28833 10
    endloop
  endfacet
  facet normal -0 0 1
    outer loop
      vertex -4.41644 1.74859 10
      vertex -4.29793 -2.02245 10
      vertex -4.29793 2.02245 10
    endloop
  endfacet
  facet normal 0 0 1
    outer loop
      vertex -4.41644 1.74859 10
      vertex -4.41644 -1.74859 10
      vertex -4.29793 -2.02245 10
    endloop
  endfacet
  facet normal -0 0 1
    outer loop
      vertex -4.51752 1.46783 10
      vertex -4.41644 -1.74859 10
      vertex -4.41644 1.74859 10
    endloop
  endfacet
  facet normal 0 0 1
    outer loop
      vertex -4.51752 1.46783 10
      vertex -4.51752 -1.46783 10
      vertex -4.41644 -1.74859 10
    endloop
  endfacet
  facet normal -0 0 1
    outer loop
      vertex -4.60077 1.18128 10
      vertex -4.51752 -1.46783 10
      vertex -4.51752 1.46783 10
    endloop
  endfacet
  facet normal 0 0 1
    outer loop
      vertex -4.60077 1.18128 10
      vertex -4.60077 -1.18128 10
      vertex -4.51752 -1.46783 10
    endloop
  endfacet
  facet normal -0 0 1
    outer loop
      vertex -4.66586 0.890061 10
      vertex -4.60077 -1.18128 10
      vertex -4.60077 1.18128 10
    endloop
  endfacet
  facet normal 0 0 1
    outer loop
      vertex -4.66586 0.890061 10
      vertex -4.66586 -0.890061 10
      vertex -4.60077 -1.18128 10
    endloop
  endfacet
  facet normal -0 0 1
    outer loop
      vertex -4.71254 0.595333 10
      vertex -4.66586 -0.890061 10
      vertex -4.66586 0.890061 10
    endloop
  endfacet
  facet normal 0 0 1
    outer loop
      vertex -4.71254 0.595333 10
      vertex -4.71254 -0.595333 10
      vertex -4.66586 -0.890061 10
    endloop
  endfacet
  facet normal -0 0 1
    outer loop
      vertex -4.74063 0.298255 10
      vertex -4.71254 -0.595333 10
      vertex -4.71254 0.595333 10
    endloop
  endfacet
  facet normal 0 0 1
    outer loop
      vertex -4.74063 0.298255 10
      vertex -4.74063 -0.298255 10
      vertex -4.71254 -0.595333 10
    endloop
  endfacet
  facet normal 0 -0 1
    outer loop
      vertex -4.74063 -0.298255 10
      vertex -4.74063 0.298255 10
      vertex -4.75 5.81688e-016 10
    endloop
  endfacet
endsolid OpenSCAD_Model
