solid OpenSCAD_Model
  facet normal 0.999507 0.0314104 0
    outer loop
      vertex 5 0 12
      vertex 4.99013 0.313953 0
      vertex 4.99013 0.313953 12
    endloop
  endfacet
  facet normal 0.999507 0.0314104 0
    outer loop
      vertex 4.99013 0.313953 0
      vertex 5 0 12
      vertex 5 0 0
    endloop
  endfacet
  facet normal 0.995562 0.0941082 0
    outer loop
      vertex 4.99013 0.313953 12
      vertex 4.96057 0.626666 0
      vertex 4.96057 0.626666 12
    endloop
  endfacet
  facet normal 0.995562 0.0941082 0
    outer loop
      vertex 4.96057 0.626666 0
      vertex 4.99013 0.313953 12
      vertex 4.99013 0.313953 0
    endloop
  endfacet
  facet normal 0.987688 0.156436 0
    outer loop
      vertex 4.96057 0.626666 12
      vertex 4.91144 0.936907 0
      vertex 4.91144 0.936907 12
    endloop
  endfacet
  facet normal 0.987688 0.156436 0
    outer loop
      vertex 4.91144 0.936907 0
      vertex 4.96057 0.626666 12
      vertex 4.96057 0.626666 0
    endloop
  endfacet
  facet normal 0.975917 0.218142 0
    outer loop
      vertex 4.91144 0.936907 12
      vertex 4.84292 1.24345 0
      vertex 4.84292 1.24345 12
    endloop
  endfacet
  facet normal 0.975917 0.218142 0
    outer loop
      vertex 4.84292 1.24345 0
      vertex 4.91144 0.936907 12
      vertex 4.91144 0.936907 0
    endloop
  endfacet
  facet normal 0.960293 0.278992 0
    outer loop
      vertex 4.84292 1.24345 12
      vertex 4.75528 1.54508 0
      vertex 4.75528 1.54508 12
    endloop
  endfacet
  facet normal 0.960293 0.278992 0
    outer loop
      vertex 4.75528 1.54508 0
      vertex 4.84292 1.24345 12
      vertex 4.84292 1.24345 0
    endloop
  endfacet
  facet normal 0.940881 0.338737 0
    outer loop
      vertex 4.75528 1.54508 12
      vertex 4.64888 1.84062 0
      vertex 4.64888 1.84062 12
    endloop
  endfacet
  facet normal 0.940881 0.338737 0
    outer loop
      vertex 4.64888 1.84062 0
      vertex 4.75528 1.54508 12
      vertex 4.75528 1.54508 0
    endloop
  endfacet
  facet normal 0.917754 0.397148 0
    outer loop
      vertex 4.64888 1.84062 12
      vertex 4.52414 2.1289 0
      vertex 4.52414 2.1289 12
    endloop
  endfacet
  facet normal 0.917754 0.397148 0
    outer loop
      vertex 4.52414 2.1289 0
      vertex 4.64888 1.84062 12
      vertex 4.64888 1.84062 0
    endloop
  endfacet
  facet normal 0.891007 0.45399 0
    outer loop
      vertex 4.52414 2.1289 12
      vertex 4.38153 2.40877 0
      vertex 4.38153 2.40877 12
    endloop
  endfacet
  facet normal 0.891007 0.45399 0
    outer loop
      vertex 4.38153 2.40877 0
      vertex 4.52414 2.1289 12
      vertex 4.52414 2.1289 0
    endloop
  endfacet
  facet normal 0.860742 0.509042 0
    outer loop
      vertex 4.38153 2.40877 12
      vertex 4.22164 2.67913 0
      vertex 4.22164 2.67913 12
    endloop
  endfacet
  facet normal 0.860742 0.509042 0
    outer loop
      vertex 4.22164 2.67913 0
      vertex 4.38153 2.40877 12
      vertex 4.38153 2.40877 0
    endloop
  endfacet
  facet normal 0.827081 0.562083 0
    outer loop
      vertex 4.22164 2.67913 12
      vertex 4.04508 2.93893 0
      vertex 4.04508 2.93893 12
    endloop
  endfacet
  facet normal 0.827081 0.562083 0
    outer loop
      vertex 4.04508 2.93893 0
      vertex 4.22164 2.67913 12
      vertex 4.22164 2.67913 0
    endloop
  endfacet
  facet normal 0.790155 0.612907 0
    outer loop
      vertex 4.04508 2.93893 12
      vertex 3.85257 3.18712 0
      vertex 3.85257 3.18712 12
    endloop
  endfacet
  facet normal 0.790155 0.612907 0
    outer loop
      vertex 3.85257 3.18712 0
      vertex 4.04508 2.93893 12
      vertex 4.04508 2.93893 0
    endloop
  endfacet
  facet normal 0.750111 0.661312 0
    outer loop
      vertex 3.85257 3.18712 12
      vertex 3.64484 3.42274 0
      vertex 3.64484 3.42274 12
    endloop
  endfacet
  facet normal 0.750111 0.661312 0
    outer loop
      vertex 3.64484 3.42274 0
      vertex 3.85257 3.18712 12
      vertex 3.85257 3.18712 0
    endloop
  endfacet
  facet normal 0.707107 0.707107 0
    outer loop
      vertex 3.64484 3.42274 12
      vertex 3.42274 3.64484 0
      vertex 3.42274 3.64484 12
    endloop
  endfacet
  facet normal 0.707107 0.707107 0
    outer loop
      vertex 3.42274 3.64484 0
      vertex 3.64484 3.42274 12
      vertex 3.64484 3.42274 0
    endloop
  endfacet
  facet normal 0.661312 0.750111 -0
    outer loop
      vertex 3.42274 3.64484 0
      vertex 3.18712 3.85257 12
      vertex 3.42274 3.64484 12
    endloop
  endfacet
  facet normal 0.661312 0.750111 0
    outer loop
      vertex 3.18712 3.85257 12
      vertex 3.42274 3.64484 0
      vertex 3.18712 3.85257 0
    endloop
  endfacet
  facet normal 0.612907 0.790155 -0
    outer loop
      vertex 3.18712 3.85257 0
      vertex 2.93893 4.04508 12
      vertex 3.18712 3.85257 12
    endloop
  endfacet
  facet normal 0.612907 0.790155 0
    outer loop
      vertex 2.93893 4.04508 12
      vertex 3.18712 3.85257 0
      vertex 2.93893 4.04508 0
    endloop
  endfacet
  facet normal 0.562083 0.827081 -0
    outer loop
      vertex 2.93893 4.04508 0
      vertex 2.67913 4.22164 12
      vertex 2.93893 4.04508 12
    endloop
  endfacet
  facet normal 0.562083 0.827081 0
    outer loop
      vertex 2.67913 4.22164 12
      vertex 2.93893 4.04508 0
      vertex 2.67913 4.22164 0
    endloop
  endfacet
  facet normal 0.509042 0.860742 -0
    outer loop
      vertex 2.67913 4.22164 0
      vertex 2.40877 4.38153 12
      vertex 2.67913 4.22164 12
    endloop
  endfacet
  facet normal 0.509042 0.860742 0
    outer loop
      vertex 2.40877 4.38153 12
      vertex 2.67913 4.22164 0
      vertex 2.40877 4.38153 0
    endloop
  endfacet
  facet normal 0.45399 0.891007 -0
    outer loop
      vertex 2.40877 4.38153 0
      vertex 2.1289 4.52414 12
      vertex 2.40877 4.38153 12
    endloop
  endfacet
  facet normal 0.45399 0.891007 0
    outer loop
      vertex 2.1289 4.52414 12
      vertex 2.40877 4.38153 0
      vertex 2.1289 4.52414 0
    endloop
  endfacet
  facet normal 0.397148 0.917754 -0
    outer loop
      vertex 2.1289 4.52414 0
      vertex 1.84062 4.64888 12
      vertex 2.1289 4.52414 12
    endloop
  endfacet
  facet normal 0.397148 0.917754 0
    outer loop
      vertex 1.84062 4.64888 12
      vertex 2.1289 4.52414 0
      vertex 1.84062 4.64888 0
    endloop
  endfacet
  facet normal 0.338737 0.940881 -0
    outer loop
      vertex 1.84062 4.64888 0
      vertex 1.54508 4.75528 12
      vertex 1.84062 4.64888 12
    endloop
  endfacet
  facet normal 0.338737 0.940881 0
    outer loop
      vertex 1.54508 4.75528 12
      vertex 1.84062 4.64888 0
      vertex 1.54508 4.75528 0
    endloop
  endfacet
  facet normal 0.278992 0.960293 -0
    outer loop
      vertex 1.54508 4.75528 0
      vertex 1.24345 4.84292 12
      vertex 1.54508 4.75528 12
    endloop
  endfacet
  facet normal 0.278992 0.960293 0
    outer loop
      vertex 1.24345 4.84292 12
      vertex 1.54508 4.75528 0
      vertex 1.24345 4.84292 0
    endloop
  endfacet
  facet normal 0.218142 0.975917 -0
    outer loop
      vertex 1.24345 4.84292 0
      vertex 0.936907 4.91144 12
      vertex 1.24345 4.84292 12
    endloop
  endfacet
  facet normal 0.218142 0.975917 0
    outer loop
      vertex 0.936907 4.91144 12
      vertex 1.24345 4.84292 0
      vertex 0.936907 4.91144 0
    endloop
  endfacet
  facet normal 0.156436 0.987688 -0
    outer loop
      vertex 0.936907 4.91144 0
      vertex 0.626666 4.96057 12
      vertex 0.936907 4.91144 12
    endloop
  endfacet
  facet normal 0.156436 0.987688 0
    outer loop
      vertex 0.626666 4.96057 12
      vertex 0.936907 4.91144 0
      vertex 0.626666 4.96057 0
    endloop
  endfacet
  facet normal 0.0941082 0.995562 -0
    outer loop
      vertex 0.626666 4.96057 0
      vertex 0.313953 4.99013 12
      vertex 0.626666 4.96057 12
    endloop
  endfacet
  facet normal 0.0941082 0.995562 0
    outer loop
      vertex 0.313953 4.99013 12
      vertex 0.626666 4.96057 0
      vertex 0.313953 4.99013 0
    endloop
  endfacet
  facet normal 0.0314104 0.999507 -0
    outer loop
      vertex 0.313953 4.99013 0
      vertex 3.06152e-016 5 12
      vertex 0.313953 4.99013 12
    endloop
  endfacet
  facet normal 0.0314104 0.999507 0
    outer loop
      vertex 3.06152e-016 5 12
      vertex 0.313953 4.99013 0
      vertex 3.06152e-016 5 0
    endloop
  endfacet
  facet normal -0.0314104 0.999507 0
    outer loop
      vertex 3.06152e-016 5 0
      vertex -0.313953 4.99013 12
      vertex 3.06152e-016 5 12
    endloop
  endfacet
  facet normal -0.0314104 0.999507 0
    outer loop
      vertex -0.313953 4.99013 12
      vertex 3.06152e-016 5 0
      vertex -0.313953 4.99013 0
    endloop
  endfacet
  facet normal -0.0941082 0.995562 0
    outer loop
      vertex -0.313953 4.99013 0
      vertex -0.626666 4.96057 12
      vertex -0.313953 4.99013 12
    endloop
  endfacet
  facet normal -0.0941082 0.995562 0
    outer loop
      vertex -0.626666 4.96057 12
      vertex -0.313953 4.99013 0
      vertex -0.626666 4.96057 0
    endloop
  endfacet
  facet normal -0.156436 0.987688 0
    outer loop
      vertex -0.626666 4.96057 0
      vertex -0.936907 4.91144 12
      vertex -0.626666 4.96057 12
    endloop
  endfacet
  facet normal -0.156436 0.987688 0
    outer loop
      vertex -0.936907 4.91144 12
      vertex -0.626666 4.96057 0
      vertex -0.936907 4.91144 0
    endloop
  endfacet
  facet normal -0.218142 0.975917 0
    outer loop
      vertex -0.936907 4.91144 0
      vertex -1.24345 4.84292 12
      vertex -0.936907 4.91144 12
    endloop
  endfacet
  facet normal -0.218142 0.975917 0
    outer loop
      vertex -1.24345 4.84292 12
      vertex -0.936907 4.91144 0
      vertex -1.24345 4.84292 0
    endloop
  endfacet
  facet normal -0.278992 0.960293 0
    outer loop
      vertex -1.24345 4.84292 0
      vertex -1.54508 4.75528 12
      vertex -1.24345 4.84292 12
    endloop
  endfacet
  facet normal -0.278992 0.960293 0
    outer loop
      vertex -1.54508 4.75528 12
      vertex -1.24345 4.84292 0
      vertex -1.54508 4.75528 0
    endloop
  endfacet
  facet normal -0.338737 0.940881 0
    outer loop
      vertex -1.54508 4.75528 0
      vertex -1.84062 4.64888 12
      vertex -1.54508 4.75528 12
    endloop
  endfacet
  facet normal -0.338737 0.940881 0
    outer loop
      vertex -1.84062 4.64888 12
      vertex -1.54508 4.75528 0
      vertex -1.84062 4.64888 0
    endloop
  endfacet
  facet normal -0.397148 0.917754 0
    outer loop
      vertex -1.84062 4.64888 0
      vertex -2.1289 4.52414 12
      vertex -1.84062 4.64888 12
    endloop
  endfacet
  facet normal -0.397148 0.917754 0
    outer loop
      vertex -2.1289 4.52414 12
      vertex -1.84062 4.64888 0
      vertex -2.1289 4.52414 0
    endloop
  endfacet
  facet normal -0.45399 0.891007 0
    outer loop
      vertex -2.1289 4.52414 0
      vertex -2.40877 4.38153 12
      vertex -2.1289 4.52414 12
    endloop
  endfacet
  facet normal -0.45399 0.891007 0
    outer loop
      vertex -2.40877 4.38153 12
      vertex -2.1289 4.52414 0
      vertex -2.40877 4.38153 0
    endloop
  endfacet
  facet normal -0.509042 0.860742 0
    outer loop
      vertex -2.40877 4.38153 0
      vertex -2.67913 4.22164 12
      vertex -2.40877 4.38153 12
    endloop
  endfacet
  facet normal -0.509042 0.860742 0
    outer loop
      vertex -2.67913 4.22164 12
      vertex -2.40877 4.38153 0
      vertex -2.67913 4.22164 0
    endloop
  endfacet
  facet normal -0.562083 0.827081 0
    outer loop
      vertex -2.67913 4.22164 0
      vertex -2.93893 4.04508 12
      vertex -2.67913 4.22164 12
    endloop
  endfacet
  facet normal -0.562083 0.827081 0
    outer loop
      vertex -2.93893 4.04508 12
      vertex -2.67913 4.22164 0
      vertex -2.93893 4.04508 0
    endloop
  endfacet
  facet normal -0.612907 0.790155 0
    outer loop
      vertex -2.93893 4.04508 0
      vertex -3.18712 3.85257 12
      vertex -2.93893 4.04508 12
    endloop
  endfacet
  facet normal -0.612907 0.790155 0
    outer loop
      vertex -3.18712 3.85257 12
      vertex -2.93893 4.04508 0
      vertex -3.18712 3.85257 0
    endloop
  endfacet
  facet normal -0.661312 0.750111 0
    outer loop
      vertex -3.18712 3.85257 0
      vertex -3.42274 3.64484 12
      vertex -3.18712 3.85257 12
    endloop
  endfacet
  facet normal -0.661312 0.750111 0
    outer loop
      vertex -3.42274 3.64484 12
      vertex -3.18712 3.85257 0
      vertex -3.42274 3.64484 0
    endloop
  endfacet
  facet normal -0.707107 0.707107 0
    outer loop
      vertex -3.64484 3.42274 0
      vertex -3.42274 3.64484 12
      vertex -3.42274 3.64484 0
    endloop
  endfacet
  facet normal -0.707107 0.707107 0
    outer loop
      vertex -3.42274 3.64484 12
      vertex -3.64484 3.42274 0
      vertex -3.64484 3.42274 12
    endloop
  endfacet
  facet normal -0.750111 0.661312 0
    outer loop
      vertex -3.85257 3.18712 0
      vertex -3.64484 3.42274 12
      vertex -3.64484 3.42274 0
    endloop
  endfacet
  facet normal -0.750111 0.661312 0
    outer loop
      vertex -3.64484 3.42274 12
      vertex -3.85257 3.18712 0
      vertex -3.85257 3.18712 12
    endloop
  endfacet
  facet normal -0.790155 0.612907 0
    outer loop
      vertex -4.04508 2.93893 0
      vertex -3.85257 3.18712 12
      vertex -3.85257 3.18712 0
    endloop
  endfacet
  facet normal -0.790155 0.612907 0
    outer loop
      vertex -3.85257 3.18712 12
      vertex -4.04508 2.93893 0
      vertex -4.04508 2.93893 12
    endloop
  endfacet
  facet normal -0.827081 0.562083 0
    outer loop
      vertex -4.22164 2.67913 0
      vertex -4.04508 2.93893 12
      vertex -4.04508 2.93893 0
    endloop
  endfacet
  facet normal -0.827081 0.562083 0
    outer loop
      vertex -4.04508 2.93893 12
      vertex -4.22164 2.67913 0
      vertex -4.22164 2.67913 12
    endloop
  endfacet
  facet normal -0.860742 0.509042 0
    outer loop
      vertex -4.38153 2.40877 0
      vertex -4.22164 2.67913 12
      vertex -4.22164 2.67913 0
    endloop
  endfacet
  facet normal -0.860742 0.509042 0
    outer loop
      vertex -4.22164 2.67913 12
      vertex -4.38153 2.40877 0
      vertex -4.38153 2.40877 12
    endloop
  endfacet
  facet normal -0.891007 0.45399 0
    outer loop
      vertex -4.52414 2.1289 0
      vertex -4.38153 2.40877 12
      vertex -4.38153 2.40877 0
    endloop
  endfacet
  facet normal -0.891007 0.45399 0
    outer loop
      vertex -4.38153 2.40877 12
      vertex -4.52414 2.1289 0
      vertex -4.52414 2.1289 12
    endloop
  endfacet
  facet normal -0.917754 0.397148 0
    outer loop
      vertex -4.64888 1.84062 0
      vertex -4.52414 2.1289 12
      vertex -4.52414 2.1289 0
    endloop
  endfacet
  facet normal -0.917754 0.397148 0
    outer loop
      vertex -4.52414 2.1289 12
      vertex -4.64888 1.84062 0
      vertex -4.64888 1.84062 12
    endloop
  endfacet
  facet normal -0.940881 0.338737 0
    outer loop
      vertex -4.75528 1.54508 0
      vertex -4.64888 1.84062 12
      vertex -4.64888 1.84062 0
    endloop
  endfacet
  facet normal -0.940881 0.338737 0
    outer loop
      vertex -4.64888 1.84062 12
      vertex -4.75528 1.54508 0
      vertex -4.75528 1.54508 12
    endloop
  endfacet
  facet normal -0.960293 0.278992 0
    outer loop
      vertex -4.84292 1.24345 0
      vertex -4.75528 1.54508 12
      vertex -4.75528 1.54508 0
    endloop
  endfacet
  facet normal -0.960293 0.278992 0
    outer loop
      vertex -4.75528 1.54508 12
      vertex -4.84292 1.24345 0
      vertex -4.84292 1.24345 12
    endloop
  endfacet
  facet normal -0.975917 0.218142 0
    outer loop
      vertex -4.91144 0.936907 0
      vertex -4.84292 1.24345 12
      vertex -4.84292 1.24345 0
    endloop
  endfacet
  facet normal -0.975917 0.218142 0
    outer loop
      vertex -4.84292 1.24345 12
      vertex -4.91144 0.936907 0
      vertex -4.91144 0.936907 12
    endloop
  endfacet
  facet normal -0.987688 0.156436 0
    outer loop
      vertex -4.96057 0.626666 0
      vertex -4.91144 0.936907 12
      vertex -4.91144 0.936907 0
    endloop
  endfacet
  facet normal -0.987688 0.156436 0
    outer loop
      vertex -4.91144 0.936907 12
      vertex -4.96057 0.626666 0
      vertex -4.96057 0.626666 12
    endloop
  endfacet
  facet normal -0.995562 0.0941082 0
    outer loop
      vertex -4.99013 0.313953 0
      vertex -4.96057 0.626666 12
      vertex -4.96057 0.626666 0
    endloop
  endfacet
  facet normal -0.995562 0.0941082 0
    outer loop
      vertex -4.96057 0.626666 12
      vertex -4.99013 0.313953 0
      vertex -4.99013 0.313953 12
    endloop
  endfacet
  facet normal -0.999507 0.0314104 0
    outer loop
      vertex -5 6.12303e-016 0
      vertex -4.99013 0.313953 12
      vertex -4.99013 0.313953 0
    endloop
  endfacet
  facet normal -0.999507 0.0314104 0
    outer loop
      vertex -4.99013 0.313953 12
      vertex -5 6.12303e-016 0
      vertex -5 6.12303e-016 12
    endloop
  endfacet
  facet normal -0.999507 -0.0314104 0
    outer loop
      vertex -4.99013 -0.313953 0
      vertex -5 6.12303e-016 12
      vertex -5 6.12303e-016 0
    endloop
  endfacet
  facet normal -0.999507 -0.0314104 0
    outer loop
      vertex -5 6.12303e-016 12
      vertex -4.99013 -0.313953 0
      vertex -4.99013 -0.313953 12
    endloop
  endfacet
  facet normal -0.995562 -0.0941082 0
    outer loop
      vertex -4.96057 -0.626666 0
      vertex -4.99013 -0.313953 12
      vertex -4.99013 -0.313953 0
    endloop
  endfacet
  facet normal -0.995562 -0.0941082 0
    outer loop
      vertex -4.99013 -0.313953 12
      vertex -4.96057 -0.626666 0
      vertex -4.96057 -0.626666 12
    endloop
  endfacet
  facet normal -0.987688 -0.156436 0
    outer loop
      vertex -4.91144 -0.936907 0
      vertex -4.96057 -0.626666 12
      vertex -4.96057 -0.626666 0
    endloop
  endfacet
  facet normal -0.987688 -0.156436 0
    outer loop
      vertex -4.96057 -0.626666 12
      vertex -4.91144 -0.936907 0
      vertex -4.91144 -0.936907 12
    endloop
  endfacet
  facet normal -0.975917 -0.218142 0
    outer loop
      vertex -4.84292 -1.24345 0
      vertex -4.91144 -0.936907 12
      vertex -4.91144 -0.936907 0
    endloop
  endfacet
  facet normal -0.975917 -0.218142 0
    outer loop
      vertex -4.91144 -0.936907 12
      vertex -4.84292 -1.24345 0
      vertex -4.84292 -1.24345 12
    endloop
  endfacet
  facet normal -0.960293 -0.278992 0
    outer loop
      vertex -4.75528 -1.54508 0
      vertex -4.84292 -1.24345 12
      vertex -4.84292 -1.24345 0
    endloop
  endfacet
  facet normal -0.960293 -0.278992 0
    outer loop
      vertex -4.84292 -1.24345 12
      vertex -4.75528 -1.54508 0
      vertex -4.75528 -1.54508 12
    endloop
  endfacet
  facet normal -0.940881 -0.338737 0
    outer loop
      vertex -4.64888 -1.84062 0
      vertex -4.75528 -1.54508 12
      vertex -4.75528 -1.54508 0
    endloop
  endfacet
  facet normal -0.940881 -0.338737 0
    outer loop
      vertex -4.75528 -1.54508 12
      vertex -4.64888 -1.84062 0
      vertex -4.64888 -1.84062 12
    endloop
  endfacet
  facet normal -0.917754 -0.397148 0
    outer loop
      vertex -4.52414 -2.1289 0
      vertex -4.64888 -1.84062 12
      vertex -4.64888 -1.84062 0
    endloop
  endfacet
  facet normal -0.917754 -0.397148 0
    outer loop
      vertex -4.64888 -1.84062 12
      vertex -4.52414 -2.1289 0
      vertex -4.52414 -2.1289 12
    endloop
  endfacet
  facet normal -0.891007 -0.45399 0
    outer loop
      vertex -4.38153 -2.40877 0
      vertex -4.52414 -2.1289 12
      vertex -4.52414 -2.1289 0
    endloop
  endfacet
  facet normal -0.891007 -0.45399 0
    outer loop
      vertex -4.52414 -2.1289 12
      vertex -4.38153 -2.40877 0
      vertex -4.38153 -2.40877 12
    endloop
  endfacet
  facet normal -0.860742 -0.509042 0
    outer loop
      vertex -4.22164 -2.67913 0
      vertex -4.38153 -2.40877 12
      vertex -4.38153 -2.40877 0
    endloop
  endfacet
  facet normal -0.860742 -0.509042 0
    outer loop
      vertex -4.38153 -2.40877 12
      vertex -4.22164 -2.67913 0
      vertex -4.22164 -2.67913 12
    endloop
  endfacet
  facet normal -0.827081 -0.562083 0
    outer loop
      vertex -4.04508 -2.93893 0
      vertex -4.22164 -2.67913 12
      vertex -4.22164 -2.67913 0
    endloop
  endfacet
  facet normal -0.827081 -0.562083 0
    outer loop
      vertex -4.22164 -2.67913 12
      vertex -4.04508 -2.93893 0
      vertex -4.04508 -2.93893 12
    endloop
  endfacet
  facet normal -0.790155 -0.612907 0
    outer loop
      vertex -3.85257 -3.18712 0
      vertex -4.04508 -2.93893 12
      vertex -4.04508 -2.93893 0
    endloop
  endfacet
  facet normal -0.790155 -0.612907 0
    outer loop
      vertex -4.04508 -2.93893 12
      vertex -3.85257 -3.18712 0
      vertex -3.85257 -3.18712 12
    endloop
  endfacet
  facet normal -0.750111 -0.661312 0
    outer loop
      vertex -3.64484 -3.42274 0
      vertex -3.85257 -3.18712 12
      vertex -3.85257 -3.18712 0
    endloop
  endfacet
  facet normal -0.750111 -0.661312 0
    outer loop
      vertex -3.85257 -3.18712 12
      vertex -3.64484 -3.42274 0
      vertex -3.64484 -3.42274 12
    endloop
  endfacet
  facet normal -0.707107 -0.707107 0
    outer loop
      vertex -3.42274 -3.64484 0
      vertex -3.64484 -3.42274 12
      vertex -3.64484 -3.42274 0
    endloop
  endfacet
  facet normal -0.707107 -0.707107 0
    outer loop
      vertex -3.64484 -3.42274 12
      vertex -3.42274 -3.64484 0
      vertex -3.42274 -3.64484 12
    endloop
  endfacet
  facet normal -0.661312 -0.750111 0
    outer loop
      vertex -3.42274 -3.64484 0
      vertex -3.18712 -3.85257 12
      vertex -3.42274 -3.64484 12
    endloop
  endfacet
  facet normal -0.661312 -0.750111 -0
    outer loop
      vertex -3.18712 -3.85257 12
      vertex -3.42274 -3.64484 0
      vertex -3.18712 -3.85257 0
    endloop
  endfacet
  facet normal -0.612907 -0.790155 0
    outer loop
      vertex -3.18712 -3.85257 0
      vertex -2.93893 -4.04508 12
      vertex -3.18712 -3.85257 12
    endloop
  endfacet
  facet normal -0.612907 -0.790155 -0
    outer loop
      vertex -2.93893 -4.04508 12
      vertex -3.18712 -3.85257 0
      vertex -2.93893 -4.04508 0
    endloop
  endfacet
  facet normal -0.562083 -0.827081 0
    outer loop
      vertex -2.93893 -4.04508 0
      vertex -2.67913 -4.22164 12
      vertex -2.93893 -4.04508 12
    endloop
  endfacet
  facet normal -0.562083 -0.827081 -0
    outer loop
      vertex -2.67913 -4.22164 12
      vertex -2.93893 -4.04508 0
      vertex -2.67913 -4.22164 0
    endloop
  endfacet
  facet normal -0.509042 -0.860742 0
    outer loop
      vertex -2.67913 -4.22164 0
      vertex -2.40877 -4.38153 12
      vertex -2.67913 -4.22164 12
    endloop
  endfacet
  facet normal -0.509042 -0.860742 -0
    outer loop
      vertex -2.40877 -4.38153 12
      vertex -2.67913 -4.22164 0
      vertex -2.40877 -4.38153 0
    endloop
  endfacet
  facet normal -0.45399 -0.891007 0
    outer loop
      vertex -2.40877 -4.38153 0
      vertex -2.1289 -4.52414 12
      vertex -2.40877 -4.38153 12
    endloop
  endfacet
  facet normal -0.45399 -0.891007 -0
    outer loop
      vertex -2.1289 -4.52414 12
      vertex -2.40877 -4.38153 0
      vertex -2.1289 -4.52414 0
    endloop
  endfacet
  facet normal -0.397148 -0.917754 0
    outer loop
      vertex -2.1289 -4.52414 0
      vertex -1.84062 -4.64888 12
      vertex -2.1289 -4.52414 12
    endloop
  endfacet
  facet normal -0.397148 -0.917754 -0
    outer loop
      vertex -1.84062 -4.64888 12
      vertex -2.1289 -4.52414 0
      vertex -1.84062 -4.64888 0
    endloop
  endfacet
  facet normal -0.338737 -0.940881 0
    outer loop
      vertex -1.84062 -4.64888 0
      vertex -1.54508 -4.75528 12
      vertex -1.84062 -4.64888 12
    endloop
  endfacet
  facet normal -0.338737 -0.940881 -0
    outer loop
      vertex -1.54508 -4.75528 12
      vertex -1.84062 -4.64888 0
      vertex -1.54508 -4.75528 0
    endloop
  endfacet
  facet normal -0.278992 -0.960293 0
    outer loop
      vertex -1.54508 -4.75528 0
      vertex -1.24345 -4.84292 12
      vertex -1.54508 -4.75528 12
    endloop
  endfacet
  facet normal -0.278992 -0.960293 -0
    outer loop
      vertex -1.24345 -4.84292 12
      vertex -1.54508 -4.75528 0
      vertex -1.24345 -4.84292 0
    endloop
  endfacet
  facet normal -0.218142 -0.975917 0
    outer loop
      vertex -1.24345 -4.84292 0
      vertex -0.936907 -4.91144 12
      vertex -1.24345 -4.84292 12
    endloop
  endfacet
  facet normal -0.218142 -0.975917 -0
    outer loop
      vertex -0.936907 -4.91144 12
      vertex -1.24345 -4.84292 0
      vertex -0.936907 -4.91144 0
    endloop
  endfacet
  facet normal -0.156436 -0.987688 0
    outer loop
      vertex -0.936907 -4.91144 0
      vertex -0.626666 -4.96057 12
      vertex -0.936907 -4.91144 12
    endloop
  endfacet
  facet normal -0.156436 -0.987688 -0
    outer loop
      vertex -0.626666 -4.96057 12
      vertex -0.936907 -4.91144 0
      vertex -0.626666 -4.96057 0
    endloop
  endfacet
  facet normal -0.0941082 -0.995562 0
    outer loop
      vertex -0.626666 -4.96057 0
      vertex -0.313953 -4.99013 12
      vertex -0.626666 -4.96057 12
    endloop
  endfacet
  facet normal -0.0941082 -0.995562 -0
    outer loop
      vertex -0.313953 -4.99013 12
      vertex -0.626666 -4.96057 0
      vertex -0.313953 -4.99013 0
    endloop
  endfacet
  facet normal -0.0314104 -0.999507 0
    outer loop
      vertex -0.313953 -4.99013 0
      vertex -9.18455e-016 -5 12
      vertex -0.313953 -4.99013 12
    endloop
  endfacet
  facet normal -0.0314104 -0.999507 -0
    outer loop
      vertex -9.18455e-016 -5 12
      vertex -0.313953 -4.99013 0
      vertex -9.18455e-016 -5 0
    endloop
  endfacet
  facet normal 0.0314104 -0.999507 0
    outer loop
      vertex -9.18455e-016 -5 0
      vertex 0.313953 -4.99013 12
      vertex -9.18455e-016 -5 12
    endloop
  endfacet
  facet normal 0.0314104 -0.999507 0
    outer loop
      vertex 0.313953 -4.99013 12
      vertex -9.18455e-016 -5 0
      vertex 0.313953 -4.99013 0
    endloop
  endfacet
  facet normal 0.0941082 -0.995562 0
    outer loop
      vertex 0.313953 -4.99013 0
      vertex 0.626666 -4.96057 12
      vertex 0.313953 -4.99013 12
    endloop
  endfacet
  facet normal 0.0941082 -0.995562 0
    outer loop
      vertex 0.626666 -4.96057 12
      vertex 0.313953 -4.99013 0
      vertex 0.626666 -4.96057 0
    endloop
  endfacet
  facet normal 0.156436 -0.987688 0
    outer loop
      vertex 0.626666 -4.96057 0
      vertex 0.936907 -4.91144 12
      vertex 0.626666 -4.96057 12
    endloop
  endfacet
  facet normal 0.156436 -0.987688 0
    outer loop
      vertex 0.936907 -4.91144 12
      vertex 0.626666 -4.96057 0
      vertex 0.936907 -4.91144 0
    endloop
  endfacet
  facet normal 0.218142 -0.975917 0
    outer loop
      vertex 0.936907 -4.91144 0
      vertex 1.24345 -4.84292 12
      vertex 0.936907 -4.91144 12
    endloop
  endfacet
  facet normal 0.218142 -0.975917 0
    outer loop
      vertex 1.24345 -4.84292 12
      vertex 0.936907 -4.91144 0
      vertex 1.24345 -4.84292 0
    endloop
  endfacet
  facet normal 0.278992 -0.960293 0
    outer loop
      vertex 1.24345 -4.84292 0
      vertex 1.54508 -4.75528 12
      vertex 1.24345 -4.84292 12
    endloop
  endfacet
  facet normal 0.278992 -0.960293 0
    outer loop
      vertex 1.54508 -4.75528 12
      vertex 1.24345 -4.84292 0
      vertex 1.54508 -4.75528 0
    endloop
  endfacet
  facet normal 0.338737 -0.940881 0
    outer loop
      vertex 1.54508 -4.75528 0
      vertex 1.84062 -4.64888 12
      vertex 1.54508 -4.75528 12
    endloop
  endfacet
  facet normal 0.338737 -0.940881 0
    outer loop
      vertex 1.84062 -4.64888 12
      vertex 1.54508 -4.75528 0
      vertex 1.84062 -4.64888 0
    endloop
  endfacet
  facet normal 0.397148 -0.917754 0
    outer loop
      vertex 1.84062 -4.64888 0
      vertex 2.1289 -4.52414 12
      vertex 1.84062 -4.64888 12
    endloop
  endfacet
  facet normal 0.397148 -0.917754 0
    outer loop
      vertex 2.1289 -4.52414 12
      vertex 1.84062 -4.64888 0
      vertex 2.1289 -4.52414 0
    endloop
  endfacet
  facet normal 0.45399 -0.891007 0
    outer loop
      vertex 2.1289 -4.52414 0
      vertex 2.40877 -4.38153 12
      vertex 2.1289 -4.52414 12
    endloop
  endfacet
  facet normal 0.45399 -0.891007 0
    outer loop
      vertex 2.40877 -4.38153 12
      vertex 2.1289 -4.52414 0
      vertex 2.40877 -4.38153 0
    endloop
  endfacet
  facet normal 0.509042 -0.860742 0
    outer loop
      vertex 2.40877 -4.38153 0
      vertex 2.67913 -4.22164 12
      vertex 2.40877 -4.38153 12
    endloop
  endfacet
  facet normal 0.509042 -0.860742 0
    outer loop
      vertex 2.67913 -4.22164 12
      vertex 2.40877 -4.38153 0
      vertex 2.67913 -4.22164 0
    endloop
  endfacet
  facet normal 0.562083 -0.827081 0
    outer loop
      vertex 2.67913 -4.22164 0
      vertex 2.93893 -4.04508 12
      vertex 2.67913 -4.22164 12
    endloop
  endfacet
  facet normal 0.562083 -0.827081 0
    outer loop
      vertex 2.93893 -4.04508 12
      vertex 2.67913 -4.22164 0
      vertex 2.93893 -4.04508 0
    endloop
  endfacet
  facet normal 0.612907 -0.790155 0
    outer loop
      vertex 2.93893 -4.04508 0
      vertex 3.18712 -3.85257 12
      vertex 2.93893 -4.04508 12
    endloop
  endfacet
  facet normal 0.612907 -0.790155 0
    outer loop
      vertex 3.18712 -3.85257 12
      vertex 2.93893 -4.04508 0
      vertex 3.18712 -3.85257 0
    endloop
  endfacet
  facet normal 0.661312 -0.750111 0
    outer loop
      vertex 3.18712 -3.85257 0
      vertex 3.42274 -3.64484 12
      vertex 3.18712 -3.85257 12
    endloop
  endfacet
  facet normal 0.661312 -0.750111 0
    outer loop
      vertex 3.42274 -3.64484 12
      vertex 3.18712 -3.85257 0
      vertex 3.42274 -3.64484 0
    endloop
  endfacet
  facet normal 0.707107 -0.707107 0
    outer loop
      vertex 3.42274 -3.64484 12
      vertex 3.64484 -3.42274 0
      vertex 3.64484 -3.42274 12
    endloop
  endfacet
  facet normal 0.707107 -0.707107 0
    outer loop
      vertex 3.64484 -3.42274 0
      vertex 3.42274 -3.64484 12
      vertex 3.42274 -3.64484 0
    endloop
  endfacet
  facet normal 0.750111 -0.661312 0
    outer loop
      vertex 3.64484 -3.42274 12
      vertex 3.85257 -3.18712 0
      vertex 3.85257 -3.18712 12
    endloop
  endfacet
  facet normal 0.750111 -0.661312 0
    outer loop
      vertex 3.85257 -3.18712 0
      vertex 3.64484 -3.42274 12
      vertex 3.64484 -3.42274 0
    endloop
  endfacet
  facet normal 0.790155 -0.612907 0
    outer loop
      vertex 3.85257 -3.18712 12
      vertex 4.04508 -2.93893 0
      vertex 4.04508 -2.93893 12
    endloop
  endfacet
  facet normal 0.790155 -0.612907 0
    outer loop
      vertex 4.04508 -2.93893 0
      vertex 3.85257 -3.18712 12
      vertex 3.85257 -3.18712 0
    endloop
  endfacet
  facet normal 0.827081 -0.562083 0
    outer loop
      vertex 4.04508 -2.93893 12
      vertex 4.22164 -2.67913 0
      vertex 4.22164 -2.67913 12
    endloop
  endfacet
  facet normal 0.827081 -0.562083 0
    outer loop
      vertex 4.22164 -2.67913 0
      vertex 4.04508 -2.93893 12
      vertex 4.04508 -2.93893 0
    endloop
  endfacet
  facet normal 0.860742 -0.509042 0
    outer loop
      vertex 4.22164 -2.67913 12
      vertex 4.38153 -2.40877 0
      vertex 4.38153 -2.40877 12
    endloop
  endfacet
  facet normal 0.860742 -0.509042 0
    outer loop
      vertex 4.38153 -2.40877 0
      vertex 4.22164 -2.67913 12
      vertex 4.22164 -2.67913 0
    endloop
  endfacet
  facet normal 0.891007 -0.45399 0
    outer loop
      vertex 4.38153 -2.40877 12
      vertex 4.52414 -2.1289 0
      vertex 4.52414 -2.1289 12
    endloop
  endfacet
  facet normal 0.891007 -0.45399 0
    outer loop
      vertex 4.52414 -2.1289 0
      vertex 4.38153 -2.40877 12
      vertex 4.38153 -2.40877 0
    endloop
  endfacet
  facet normal 0.917754 -0.397148 0
    outer loop
      vertex 4.52414 -2.1289 12
      vertex 4.64888 -1.84062 0
      vertex 4.64888 -1.84062 12
    endloop
  endfacet
  facet normal 0.917754 -0.397148 0
    outer loop
      vertex 4.64888 -1.84062 0
      vertex 4.52414 -2.1289 12
      vertex 4.52414 -2.1289 0
    endloop
  endfacet
  facet normal 0.940881 -0.338737 0
    outer loop
      vertex 4.64888 -1.84062 12
      vertex 4.75528 -1.54508 0
      vertex 4.75528 -1.54508 12
    endloop
  endfacet
  facet normal 0.940881 -0.338737 0
    outer loop
      vertex 4.75528 -1.54508 0
      vertex 4.64888 -1.84062 12
      vertex 4.64888 -1.84062 0
    endloop
  endfacet
  facet normal 0.960293 -0.278992 0
    outer loop
      vertex 4.75528 -1.54508 12
      vertex 4.84292 -1.24345 0
      vertex 4.84292 -1.24345 12
    endloop
  endfacet
  facet normal 0.960293 -0.278992 0
    outer loop
      vertex 4.84292 -1.24345 0
      vertex 4.75528 -1.54508 12
      vertex 4.75528 -1.54508 0
    endloop
  endfacet
  facet normal 0.975917 -0.218142 0
    outer loop
      vertex 4.84292 -1.24345 12
      vertex 4.91144 -0.936907 0
      vertex 4.91144 -0.936907 12
    endloop
  endfacet
  facet normal 0.975917 -0.218142 0
    outer loop
      vertex 4.91144 -0.936907 0
      vertex 4.84292 -1.24345 12
      vertex 4.84292 -1.24345 0
    endloop
  endfacet
  facet normal 0.987688 -0.156436 0
    outer loop
      vertex 4.91144 -0.936907 12
      vertex 4.96057 -0.626666 0
      vertex 4.96057 -0.626666 12
    endloop
  endfacet
  facet normal 0.987688 -0.156436 0
    outer loop
      vertex 4.96057 -0.626666 0
      vertex 4.91144 -0.936907 12
      vertex 4.91144 -0.936907 0
    endloop
  endfacet
  facet normal 0.995562 -0.0941082 0
    outer loop
      vertex 4.96057 -0.626666 12
      vertex 4.99013 -0.313953 0
      vertex 4.99013 -0.313953 12
    endloop
  endfacet
  facet normal 0.995562 -0.0941082 0
    outer loop
      vertex 4.99013 -0.313953 0
      vertex 4.96057 -0.626666 12
      vertex 4.96057 -0.626666 0
    endloop
  endfacet
  facet normal 0.999507 -0.0314104 0
    outer loop
      vertex 4.99013 -0.313953 12
      vertex 5 0 0
      vertex 5 0 12
    endloop
  endfacet
  facet normal 0.999507 -0.0314104 0
    outer loop
      vertex 5 0 0
      vertex 4.99013 -0.313953 12
      vertex 4.99013 -0.313953 0
    endloop
  endfacet
  facet normal 0 0 -1
    outer loop
      vertex 4.99013 -0.313953 0
      vertex 4.99013 0.313953 0
      vertex 5 0 0
    endloop
  endfacet
  facet normal 0 0 -1
    outer loop
      vertex 4.96057 -0.626666 0
      vertex 4.99013 0.313953 0
      vertex 4.99013 -0.313953 0
    endloop
  endfacet
  facet normal 0 0 -1
    outer loop
      vertex 4.96057 -0.626666 0
      vertex 4.96057 0.626666 0
      vertex 4.99013 0.313953 0
    endloop
  endfacet
  facet normal 0 0 -1
    outer loop
      vertex 4.91144 -0.936907 0
      vertex 4.96057 0.626666 0
      vertex 4.96057 -0.626666 0
    endloop
  endfacet
  facet normal 0 0 -1
    outer loop
      vertex 4.91144 -0.936907 0
      vertex 4.91144 0.936907 0
      vertex 4.96057 0.626666 0
    endloop
  endfacet
  facet normal 0 0 -1
    outer loop
      vertex 4.84292 -1.24345 0
      vertex 4.91144 0.936907 0
      vertex 4.91144 -0.936907 0
    endloop
  endfacet
  facet normal 0 0 -1
    outer loop
      vertex 4.84292 -1.24345 0
      vertex 4.84292 1.24345 0
      vertex 4.91144 0.936907 0
    endloop
  endfacet
  facet normal 0 0 -1
    outer loop
      vertex 4.75528 -1.54508 0
      vertex 4.84292 1.24345 0
      vertex 4.84292 -1.24345 0
    endloop
  endfacet
  facet normal 0 0 -1
    outer loop
      vertex 4.75528 -1.54508 0
      vertex 4.75528 1.54508 0
      vertex 4.84292 1.24345 0
    endloop
  endfacet
  facet normal 0 0 -1
    outer loop
      vertex 4.64888 -1.84062 0
      vertex 4.75528 1.54508 0
      vertex 4.75528 -1.54508 0
    endloop
  endfacet
  facet normal 0 0 -1
    outer loop
      vertex 4.64888 -1.84062 0
      vertex 4.64888 1.84062 0
      vertex 4.75528 1.54508 0
    endloop
  endfacet
  facet normal 0 0 -1
    outer loop
      vertex 4.52414 -2.1289 0
      vertex 4.64888 1.84062 0
      vertex 4.64888 -1.84062 0
    endloop
  endfacet
  facet normal 0 0 -1
    outer loop
      vertex 4.52414 -2.1289 0
      vertex 4.52414 2.1289 0
      vertex 4.64888 1.84062 0
    endloop
  endfacet
  facet normal 0 0 -1
    outer loop
      vertex 4.38153 -2.40877 0
      vertex 4.52414 2.1289 0
      vertex 4.52414 -2.1289 0
    endloop
  endfacet
  facet normal 0 0 -1
    outer loop
      vertex 4.38153 -2.40877 0
      vertex 4.38153 2.40877 0
      vertex 4.52414 2.1289 0
    endloop
  endfacet
  facet normal 0 0 -1
    outer loop
      vertex 4.22164 -2.67913 0
      vertex 4.38153 2.40877 0
      vertex 4.38153 -2.40877 0
    endloop
  endfacet
  facet normal 0 0 -1
    outer loop
      vertex 4.22164 -2.67913 0
      vertex 4.22164 2.67913 0
      vertex 4.38153 2.40877 0
    endloop
  endfacet
  facet normal 0 0 -1
    outer loop
      vertex 4.04508 -2.93893 0
      vertex 4.22164 2.67913 0
      vertex 4.22164 -2.67913 0
    endloop
  endfacet
  facet normal 0 0 -1
    outer loop
      vertex 4.04508 -2.93893 0
      vertex 4.04508 2.93893 0
      vertex 4.22164 2.67913 0
    endloop
  endfacet
  facet normal 0 0 -1
    outer loop
      vertex 3.85257 -3.18712 0
      vertex 4.04508 2.93893 0
      vertex 4.04508 -2.93893 0
    endloop
  endfacet
  facet normal 0 0 -1
    outer loop
      vertex 3.85257 -3.18712 0
      vertex 3.85257 3.18712 0
      vertex 4.04508 2.93893 0
    endloop
  endfacet
  facet normal 0 0 -1
    outer loop
      vertex 3.64484 -3.42274 0
      vertex 3.85257 3.18712 0
      vertex 3.85257 -3.18712 0
    endloop
  endfacet
  facet normal 0 0 -1
    outer loop
      vertex 3.64484 -3.42274 0
      vertex 3.64484 3.42274 0
      vertex 3.85257 3.18712 0
    endloop
  endfacet
  facet normal 0 0 -1
    outer loop
      vertex 3.42274 -3.64484 0
      vertex 3.64484 3.42274 0
      vertex 3.64484 -3.42274 0
    endloop
  endfacet
  facet normal 0 0 -1
    outer loop
      vertex 3.42274 -3.64484 0
      vertex 3.42274 3.64484 0
      vertex 3.64484 3.42274 0
    endloop
  endfacet
  facet normal 0 0 -1
    outer loop
      vertex 3.18712 -3.85257 0
      vertex 3.42274 3.64484 0
      vertex 3.42274 -3.64484 0
    endloop
  endfacet
  facet normal 0 0 -1
    outer loop
      vertex 3.18712 -3.85257 0
      vertex 3.18712 3.85257 0
      vertex 3.42274 3.64484 0
    endloop
  endfacet
  facet normal 0 0 -1
    outer loop
      vertex 2.93893 -4.04508 0
      vertex 3.18712 3.85257 0
      vertex 3.18712 -3.85257 0
    endloop
  endfacet
  facet normal 0 0 -1
    outer loop
      vertex 2.93893 -4.04508 0
      vertex 2.93893 4.04508 0
      vertex 3.18712 3.85257 0
    endloop
  endfacet
  facet normal 0 0 -1
    outer loop
      vertex 2.67913 -4.22164 0
      vertex 2.93893 4.04508 0
      vertex 2.93893 -4.04508 0
    endloop
  endfacet
  facet normal 0 0 -1
    outer loop
      vertex 2.67913 -4.22164 0
      vertex 2.67913 4.22164 0
      vertex 2.93893 4.04508 0
    endloop
  endfacet
  facet normal 0 0 -1
    outer loop
      vertex 2.40877 -4.38153 0
      vertex 2.67913 4.22164 0
      vertex 2.67913 -4.22164 0
    endloop
  endfacet
  facet normal 0 0 -1
    outer loop
      vertex 2.40877 -4.38153 0
      vertex 2.40877 4.38153 0
      vertex 2.67913 4.22164 0
    endloop
  endfacet
  facet normal 0 0 -1
    outer loop
      vertex 2.1289 -4.52414 0
      vertex 2.40877 4.38153 0
      vertex 2.40877 -4.38153 0
    endloop
  endfacet
  facet normal 0 0 -1
    outer loop
      vertex 2.1289 -4.52414 0
      vertex 2.1289 4.52414 0
      vertex 2.40877 4.38153 0
    endloop
  endfacet
  facet normal 0 0 -1
    outer loop
      vertex 1.84062 -4.64888 0
      vertex 2.1289 4.52414 0
      vertex 2.1289 -4.52414 0
    endloop
  endfacet
  facet normal 0 0 -1
    outer loop
      vertex 1.84062 -4.64888 0
      vertex 1.84062 4.64888 0
      vertex 2.1289 4.52414 0
    endloop
  endfacet
  facet normal 0 0 -1
    outer loop
      vertex 1.54508 -4.75528 0
      vertex 1.84062 4.64888 0
      vertex 1.84062 -4.64888 0
    endloop
  endfacet
  facet normal 0 0 -1
    outer loop
      vertex 1.54508 -4.75528 0
      vertex 1.54508 4.75528 0
      vertex 1.84062 4.64888 0
    endloop
  endfacet
  facet normal 0 0 -1
    outer loop
      vertex 1.24345 -4.84292 0
      vertex 1.54508 4.75528 0
      vertex 1.54508 -4.75528 0
    endloop
  endfacet
  facet normal 0 0 -1
    outer loop
      vertex 1.24345 -4.84292 0
      vertex 1.24345 4.84292 0
      vertex 1.54508 4.75528 0
    endloop
  endfacet
  facet normal 0 0 -1
    outer loop
      vertex 0.936907 -4.91144 0
      vertex 1.24345 4.84292 0
      vertex 1.24345 -4.84292 0
    endloop
  endfacet
  facet normal 0 0 -1
    outer loop
      vertex 0.936907 -4.91144 0
      vertex 0.936907 4.91144 0
      vertex 1.24345 4.84292 0
    endloop
  endfacet
  facet normal 0 0 -1
    outer loop
      vertex 0.626666 -4.96057 0
      vertex 0.936907 4.91144 0
      vertex 0.936907 -4.91144 0
    endloop
  endfacet
  facet normal 0 0 -1
    outer loop
      vertex 0.626666 -4.96057 0
      vertex 0.626666 4.96057 0
      vertex 0.936907 4.91144 0
    endloop
  endfacet
  facet normal 0 0 -1
    outer loop
      vertex 0.313953 -4.99013 0
      vertex 0.626666 4.96057 0
      vertex 0.626666 -4.96057 0
    endloop
  endfacet
  facet normal 0 0 -1
    outer loop
      vertex 0.313953 -4.99013 0
      vertex 0.313953 4.99013 0
      vertex 0.626666 4.96057 0
    endloop
  endfacet
  facet normal 0 0 -1
    outer loop
      vertex 0.313953 -4.99013 0
      vertex 3.06152e-016 5 0
      vertex 0.313953 4.99013 0
    endloop
  endfacet
  facet normal 0 0 -1
    outer loop
      vertex -9.18455e-016 -5 0
      vertex 3.06152e-016 5 0
      vertex 0.313953 -4.99013 0
    endloop
  endfacet
  facet normal 0 0 -1
    outer loop
      vertex -0.313953 -4.99013 0
      vertex 3.06152e-016 5 0
      vertex -9.18455e-016 -5 0
    endloop
  endfacet
  facet normal 0 0 -1
    outer loop
      vertex -0.313953 -4.99013 0
      vertex -0.313953 4.99013 0
      vertex 3.06152e-016 5 0
    endloop
  endfacet
  facet normal 0 0 -1
    outer loop
      vertex -0.626666 -4.96057 0
      vertex -0.313953 4.99013 0
      vertex -0.313953 -4.99013 0
    endloop
  endfacet
  facet normal 0 0 -1
    outer loop
      vertex -0.626666 -4.96057 0
      vertex -0.626666 4.96057 0
      vertex -0.313953 4.99013 0
    endloop
  endfacet
  facet normal 0 0 -1
    outer loop
      vertex -0.936907 -4.91144 0
      vertex -0.626666 4.96057 0
      vertex -0.626666 -4.96057 0
    endloop
  endfacet
  facet normal 0 0 -1
    outer loop
      vertex -0.936907 -4.91144 0
      vertex -0.936907 4.91144 0
      vertex -0.626666 4.96057 0
    endloop
  endfacet
  facet normal 0 0 -1
    outer loop
      vertex -1.24345 -4.84292 0
      vertex -0.936907 4.91144 0
      vertex -0.936907 -4.91144 0
    endloop
  endfacet
  facet normal 0 0 -1
    outer loop
      vertex -1.24345 -4.84292 0
      vertex -1.24345 4.84292 0
      vertex -0.936907 4.91144 0
    endloop
  endfacet
  facet normal 0 0 -1
    outer loop
      vertex -1.54508 -4.75528 0
      vertex -1.24345 4.84292 0
      vertex -1.24345 -4.84292 0
    endloop
  endfacet
  facet normal 0 0 -1
    outer loop
      vertex -1.54508 -4.75528 0
      vertex -1.54508 4.75528 0
      vertex -1.24345 4.84292 0
    endloop
  endfacet
  facet normal 0 0 -1
    outer loop
      vertex -1.84062 -4.64888 0
      vertex -1.54508 4.75528 0
      vertex -1.54508 -4.75528 0
    endloop
  endfacet
  facet normal 0 0 -1
    outer loop
      vertex -1.84062 -4.64888 0
      vertex -1.84062 4.64888 0
      vertex -1.54508 4.75528 0
    endloop
  endfacet
  facet normal 0 0 -1
    outer loop
      vertex -2.1289 -4.52414 0
      vertex -1.84062 4.64888 0
      vertex -1.84062 -4.64888 0
    endloop
  endfacet
  facet normal 0 0 -1
    outer loop
      vertex -2.1289 -4.52414 0
      vertex -2.1289 4.52414 0
      vertex -1.84062 4.64888 0
    endloop
  endfacet
  facet normal 0 0 -1
    outer loop
      vertex -2.40877 -4.38153 0
      vertex -2.1289 4.52414 0
      vertex -2.1289 -4.52414 0
    endloop
  endfacet
  facet normal 0 0 -1
    outer loop
      vertex -2.40877 -4.38153 0
      vertex -2.40877 4.38153 0
      vertex -2.1289 4.52414 0
    endloop
  endfacet
  facet normal 0 0 -1
    outer loop
      vertex -2.67913 -4.22164 0
      vertex -2.40877 4.38153 0
      vertex -2.40877 -4.38153 0
    endloop
  endfacet
  facet normal 0 0 -1
    outer loop
      vertex -2.67913 -4.22164 0
      vertex -2.67913 4.22164 0
      vertex -2.40877 4.38153 0
    endloop
  endfacet
  facet normal 0 0 -1
    outer loop
      vertex -2.93893 -4.04508 0
      vertex -2.67913 4.22164 0
      vertex -2.67913 -4.22164 0
    endloop
  endfacet
  facet normal 0 0 -1
    outer loop
      vertex -2.93893 -4.04508 0
      vertex -2.93893 4.04508 0
      vertex -2.67913 4.22164 0
    endloop
  endfacet
  facet normal 0 0 -1
    outer loop
      vertex -3.18712 -3.85257 0
      vertex -2.93893 4.04508 0
      vertex -2.93893 -4.04508 0
    endloop
  endfacet
  facet normal 0 0 -1
    outer loop
      vertex -3.18712 -3.85257 0
      vertex -3.18712 3.85257 0
      vertex -2.93893 4.04508 0
    endloop
  endfacet
  facet normal 0 0 -1
    outer loop
      vertex -3.42274 -3.64484 0
      vertex -3.18712 3.85257 0
      vertex -3.18712 -3.85257 0
    endloop
  endfacet
  facet normal 0 0 -1
    outer loop
      vertex -3.42274 -3.64484 0
      vertex -3.42274 3.64484 0
      vertex -3.18712 3.85257 0
    endloop
  endfacet
  facet normal 0 0 -1
    outer loop
      vertex -3.64484 -3.42274 0
      vertex -3.42274 3.64484 0
      vertex -3.42274 -3.64484 0
    endloop
  endfacet
  facet normal 0 0 -1
    outer loop
      vertex -3.64484 -3.42274 0
      vertex -3.64484 3.42274 0
      vertex -3.42274 3.64484 0
    endloop
  endfacet
  facet normal 0 0 -1
    outer loop
      vertex -3.85257 -3.18712 0
      vertex -3.64484 3.42274 0
      vertex -3.64484 -3.42274 0
    endloop
  endfacet
  facet normal 0 0 -1
    outer loop
      vertex -3.85257 -3.18712 0
      vertex -3.85257 3.18712 0
      vertex -3.64484 3.42274 0
    endloop
  endfacet
  facet normal 0 0 -1
    outer loop
      vertex -4.04508 -2.93893 0
      vertex -3.85257 3.18712 0
      vertex -3.85257 -3.18712 0
    endloop
  endfacet
  facet normal 0 0 -1
    outer loop
      vertex -4.04508 -2.93893 0
      vertex -4.04508 2.93893 0
      vertex -3.85257 3.18712 0
    endloop
  endfacet
  facet normal 0 0 -1
    outer loop
      vertex -4.22164 -2.67913 0
      vertex -4.04508 2.93893 0
      vertex -4.04508 -2.93893 0
    endloop
  endfacet
  facet normal 0 0 -1
    outer loop
      vertex -4.22164 -2.67913 0
      vertex -4.22164 2.67913 0
      vertex -4.04508 2.93893 0
    endloop
  endfacet
  facet normal 0 0 -1
    outer loop
      vertex -4.38153 -2.40877 0
      vertex -4.22164 2.67913 0
      vertex -4.22164 -2.67913 0
    endloop
  endfacet
  facet normal 0 0 -1
    outer loop
      vertex -4.38153 -2.40877 0
      vertex -4.38153 2.40877 0
      vertex -4.22164 2.67913 0
    endloop
  endfacet
  facet normal 0 0 -1
    outer loop
      vertex -4.52414 -2.1289 0
      vertex -4.38153 2.40877 0
      vertex -4.38153 -2.40877 0
    endloop
  endfacet
  facet normal 0 0 -1
    outer loop
      vertex -4.52414 -2.1289 0
      vertex -4.52414 2.1289 0
      vertex -4.38153 2.40877 0
    endloop
  endfacet
  facet normal 0 0 -1
    outer loop
      vertex -4.64888 -1.84062 0
      vertex -4.52414 2.1289 0
      vertex -4.52414 -2.1289 0
    endloop
  endfacet
  facet normal 0 0 -1
    outer loop
      vertex -4.64888 -1.84062 0
      vertex -4.64888 1.84062 0
      vertex -4.52414 2.1289 0
    endloop
  endfacet
  facet normal 0 0 -1
    outer loop
      vertex -4.75528 -1.54508 0
      vertex -4.64888 1.84062 0
      vertex -4.64888 -1.84062 0
    endloop
  endfacet
  facet normal 0 0 -1
    outer loop
      vertex -4.75528 -1.54508 0
      vertex -4.75528 1.54508 0
      vertex -4.64888 1.84062 0
    endloop
  endfacet
  facet normal 0 0 -1
    outer loop
      vertex -4.84292 -1.24345 0
      vertex -4.75528 1.54508 0
      vertex -4.75528 -1.54508 0
    endloop
  endfacet
  facet normal 0 0 -1
    outer loop
      vertex -4.84292 -1.24345 0
      vertex -4.84292 1.24345 0
      vertex -4.75528 1.54508 0
    endloop
  endfacet
  facet normal 0 0 -1
    outer loop
      vertex -4.91144 -0.936907 0
      vertex -4.84292 1.24345 0
      vertex -4.84292 -1.24345 0
    endloop
  endfacet
  facet normal 0 0 -1
    outer loop
      vertex -4.91144 -0.936907 0
      vertex -4.91144 0.936907 0
      vertex -4.84292 1.24345 0
    endloop
  endfacet
  facet normal 0 0 -1
    outer loop
      vertex -4.96057 -0.626666 0
      vertex -4.91144 0.936907 0
      vertex -4.91144 -0.936907 0
    endloop
  endfacet
  facet normal 0 0 -1
    outer loop
      vertex -4.96057 -0.626666 0
      vertex -4.96057 0.626666 0
      vertex -4.91144 0.936907 0
    endloop
  endfacet
  facet normal 0 0 -1
    outer loop
      vertex -4.99013 -0.313953 0
      vertex -4.96057 0.626666 0
      vertex -4.96057 -0.626666 0
    endloop
  endfacet
  facet normal 0 0 -1
    outer loop
      vertex -4.99013 -0.313953 0
      vertex -4.99013 0.313953 0
      vertex -4.96057 0.626666 0
    endloop
  endfacet
  facet normal 0 -0 -1
    outer loop
      vertex -4.99013 0.313953 0
      vertex -4.99013 -0.313953 0
      vertex -5 6.12303e-016 0
    endloop
  endfacet
  facet normal 0 0 1
    outer loop
      vertex 4.99013 0.313953 12
      vertex 4.99013 -0.313953 12
      vertex 5 0 12
    endloop
  endfacet
  facet normal 0 0 1
    outer loop
      vertex 4.96057 0.626666 12
      vertex 4.99013 -0.313953 12
      vertex 4.99013 0.313953 12
    endloop
  endfacet
  facet normal 0 0 1
    outer loop
      vertex 4.96057 0.626666 12
      vertex 4.96057 -0.626666 12
      vertex 4.99013 -0.313953 12
    endloop
  endfacet
  facet normal 0 0 1
    outer loop
      vertex 4.91144 0.936907 12
      vertex 4.96057 -0.626666 12
      vertex 4.96057 0.626666 12
    endloop
  endfacet
  facet normal 0 0 1
    outer loop
      vertex 4.91144 0.936907 12
      vertex 4.91144 -0.936907 12
      vertex 4.96057 -0.626666 12
    endloop
  endfacet
  facet normal 0 0 1
    outer loop
      vertex 4.84292 1.24345 12
      vertex 4.91144 -0.936907 12
      vertex 4.91144 0.936907 12
    endloop
  endfacet
  facet normal 0 0 1
    outer loop
      vertex 4.84292 1.24345 12
      vertex 4.84292 -1.24345 12
      vertex 4.91144 -0.936907 12
    endloop
  endfacet
  facet normal 0 0 1
    outer loop
      vertex 4.75528 1.54508 12
      vertex 4.84292 -1.24345 12
      vertex 4.84292 1.24345 12
    endloop
  endfacet
  facet normal 0 0 1
    outer loop
      vertex 4.75528 1.54508 12
      vertex 4.75528 -1.54508 12
      vertex 4.84292 -1.24345 12
    endloop
  endfacet
  facet normal 0 0 1
    outer loop
      vertex 4.64888 1.84062 12
      vertex 4.75528 -1.54508 12
      vertex 4.75528 1.54508 12
    endloop
  endfacet
  facet normal 0 0 1
    outer loop
      vertex 4.64888 1.84062 12
      vertex 4.64888 -1.84062 12
      vertex 4.75528 -1.54508 12
    endloop
  endfacet
  facet normal 0 0 1
    outer loop
      vertex 4.52414 2.1289 12
      vertex 4.64888 -1.84062 12
      vertex 4.64888 1.84062 12
    endloop
  endfacet
  facet normal 0 0 1
    outer loop
      vertex 4.52414 2.1289 12
      vertex 4.52414 -2.1289 12
      vertex 4.64888 -1.84062 12
    endloop
  endfacet
  facet normal 0 0 1
    outer loop
      vertex 4.38153 2.40877 12
      vertex 4.52414 -2.1289 12
      vertex 4.52414 2.1289 12
    endloop
  endfacet
  facet normal 0 0 1
    outer loop
      vertex 4.38153 2.40877 12
      vertex 4.38153 -2.40877 12
      vertex 4.52414 -2.1289 12
    endloop
  endfacet
  facet normal 0 0 1
    outer loop
      vertex 4.22164 2.67913 12
      vertex 4.38153 -2.40877 12
      vertex 4.38153 2.40877 12
    endloop
  endfacet
  facet normal 0 0 1
    outer loop
      vertex 4.22164 2.67913 12
      vertex 4.22164 -2.67913 12
      vertex 4.38153 -2.40877 12
    endloop
  endfacet
  facet normal 0 0 1
    outer loop
      vertex 4.04508 2.93893 12
      vertex 4.22164 -2.67913 12
      vertex 4.22164 2.67913 12
    endloop
  endfacet
  facet normal 0 0 1
    outer loop
      vertex 4.04508 2.93893 12
      vertex 4.04508 -2.93893 12
      vertex 4.22164 -2.67913 12
    endloop
  endfacet
  facet normal 0 0 1
    outer loop
      vertex 3.85257 3.18712 12
      vertex 4.04508 -2.93893 12
      vertex 4.04508 2.93893 12
    endloop
  endfacet
  facet normal 0 0 1
    outer loop
      vertex 3.85257 3.18712 12
      vertex 3.85257 -3.18712 12
      vertex 4.04508 -2.93893 12
    endloop
  endfacet
  facet normal 0 0 1
    outer loop
      vertex 3.64484 3.42274 12
      vertex 3.85257 -3.18712 12
      vertex 3.85257 3.18712 12
    endloop
  endfacet
  facet normal 0 0 1
    outer loop
      vertex 3.64484 3.42274 12
      vertex 3.64484 -3.42274 12
      vertex 3.85257 -3.18712 12
    endloop
  endfacet
  facet normal 0 0 1
    outer loop
      vertex 3.42274 3.64484 12
      vertex 3.64484 -3.42274 12
      vertex 3.64484 3.42274 12
    endloop
  endfacet
  facet normal 0 0 1
    outer loop
      vertex 3.42274 3.64484 12
      vertex 3.42274 -3.64484 12
      vertex 3.64484 -3.42274 12
    endloop
  endfacet
  facet normal 0 0 1
    outer loop
      vertex 3.18712 3.85257 12
      vertex 3.42274 -3.64484 12
      vertex 3.42274 3.64484 12
    endloop
  endfacet
  facet normal 0 0 1
    outer loop
      vertex 3.18712 3.85257 12
      vertex 3.18712 -3.85257 12
      vertex 3.42274 -3.64484 12
    endloop
  endfacet
  facet normal 0 0 1
    outer loop
      vertex 2.93893 4.04508 12
      vertex 3.18712 -3.85257 12
      vertex 3.18712 3.85257 12
    endloop
  endfacet
  facet normal 0 0 1
    outer loop
      vertex 2.93893 4.04508 12
      vertex 2.93893 -4.04508 12
      vertex 3.18712 -3.85257 12
    endloop
  endfacet
  facet normal 0 0 1
    outer loop
      vertex 2.67913 4.22164 12
      vertex 2.93893 -4.04508 12
      vertex 2.93893 4.04508 12
    endloop
  endfacet
  facet normal 0 0 1
    outer loop
      vertex 2.67913 4.22164 12
      vertex 2.67913 -4.22164 12
      vertex 2.93893 -4.04508 12
    endloop
  endfacet
  facet normal 0 0 1
    outer loop
      vertex 2.40877 4.38153 12
      vertex 2.67913 -4.22164 12
      vertex 2.67913 4.22164 12
    endloop
  endfacet
  facet normal 0 0 1
    outer loop
      vertex 2.40877 4.38153 12
      vertex 2.40877 -4.38153 12
      vertex 2.67913 -4.22164 12
    endloop
  endfacet
  facet normal 0 0 1
    outer loop
      vertex 2.1289 4.52414 12
      vertex 2.40877 -4.38153 12
      vertex 2.40877 4.38153 12
    endloop
  endfacet
  facet normal 0 0 1
    outer loop
      vertex 2.1289 4.52414 12
      vertex 2.1289 -4.52414 12
      vertex 2.40877 -4.38153 12
    endloop
  endfacet
  facet normal 0 0 1
    outer loop
      vertex 1.84062 4.64888 12
      vertex 2.1289 -4.52414 12
      vertex 2.1289 4.52414 12
    endloop
  endfacet
  facet normal 0 0 1
    outer loop
      vertex 1.84062 4.64888 12
      vertex 1.84062 -4.64888 12
      vertex 2.1289 -4.52414 12
    endloop
  endfacet
  facet normal 0 0 1
    outer loop
      vertex 1.54508 4.75528 12
      vertex 1.84062 -4.64888 12
      vertex 1.84062 4.64888 12
    endloop
  endfacet
  facet normal 0 0 1
    outer loop
      vertex 1.54508 4.75528 12
      vertex 1.54508 -4.75528 12
      vertex 1.84062 -4.64888 12
    endloop
  endfacet
  facet normal 0 0 1
    outer loop
      vertex 1.24345 4.84292 12
      vertex 1.54508 -4.75528 12
      vertex 1.54508 4.75528 12
    endloop
  endfacet
  facet normal 0 0 1
    outer loop
      vertex 1.24345 4.84292 12
      vertex 1.24345 -4.84292 12
      vertex 1.54508 -4.75528 12
    endloop
  endfacet
  facet normal 0 0 1
    outer loop
      vertex 0.936907 4.91144 12
      vertex 1.24345 -4.84292 12
      vertex 1.24345 4.84292 12
    endloop
  endfacet
  facet normal 0 0 1
    outer loop
      vertex 0.936907 4.91144 12
      vertex 0.936907 -4.91144 12
      vertex 1.24345 -4.84292 12
    endloop
  endfacet
  facet normal 0 0 1
    outer loop
      vertex 0.626666 4.96057 12
      vertex 0.936907 -4.91144 12
      vertex 0.936907 4.91144 12
    endloop
  endfacet
  facet normal 0 0 1
    outer loop
      vertex 0.626666 4.96057 12
      vertex 0.626666 -4.96057 12
      vertex 0.936907 -4.91144 12
    endloop
  endfacet
  facet normal 0 0 1
    outer loop
      vertex 0.313953 4.99013 12
      vertex 0.626666 -4.96057 12
      vertex 0.626666 4.96057 12
    endloop
  endfacet
  facet normal 0 0 1
    outer loop
      vertex 0.313953 4.99013 12
      vertex 0.313953 -4.99013 12
      vertex 0.626666 -4.96057 12
    endloop
  endfacet
  facet normal 0 0 1
    outer loop
      vertex 3.06152e-016 5 12
      vertex 0.313953 -4.99013 12
      vertex 0.313953 4.99013 12
    endloop
  endfacet
  facet normal 0 0 1
    outer loop
      vertex 3.06152e-016 5 12
      vertex -9.18455e-016 -5 12
      vertex 0.313953 -4.99013 12
    endloop
  endfacet
  facet normal -0 0 1
    outer loop
      vertex -0.313953 4.99013 12
      vertex -9.18455e-016 -5 12
      vertex 3.06152e-016 5 12
    endloop
  endfacet
  facet normal 0 0 1
    outer loop
      vertex -0.313953 4.99013 12
      vertex -0.313953 -4.99013 12
      vertex -9.18455e-016 -5 12
    endloop
  endfacet
  facet normal -0 0 1
    outer loop
      vertex -0.626666 4.96057 12
      vertex -0.313953 -4.99013 12
      vertex -0.313953 4.99013 12
    endloop
  endfacet
  facet normal 0 0 1
    outer loop
      vertex -0.626666 4.96057 12
      vertex -0.626666 -4.96057 12
      vertex -0.313953 -4.99013 12
    endloop
  endfacet
  facet normal -0 0 1
    outer loop
      vertex -0.936907 4.91144 12
      vertex -0.626666 -4.96057 12
      vertex -0.626666 4.96057 12
    endloop
  endfacet
  facet normal 0 0 1
    outer loop
      vertex -0.936907 4.91144 12
      vertex -0.936907 -4.91144 12
      vertex -0.626666 -4.96057 12
    endloop
  endfacet
  facet normal -0 0 1
    outer loop
      vertex -1.24345 4.84292 12
      vertex -0.936907 -4.91144 12
      vertex -0.936907 4.91144 12
    endloop
  endfacet
  facet normal 0 0 1
    outer loop
      vertex -1.24345 4.84292 12
      vertex -1.24345 -4.84292 12
      vertex -0.936907 -4.91144 12
    endloop
  endfacet
  facet normal -0 0 1
    outer loop
      vertex -1.54508 4.75528 12
      vertex -1.24345 -4.84292 12
      vertex -1.24345 4.84292 12
    endloop
  endfacet
  facet normal 0 0 1
    outer loop
      vertex -1.54508 4.75528 12
      vertex -1.54508 -4.75528 12
      vertex -1.24345 -4.84292 12
    endloop
  endfacet
  facet normal -0 0 1
    outer loop
      vertex -1.84062 4.64888 12
      vertex -1.54508 -4.75528 12
      vertex -1.54508 4.75528 12
    endloop
  endfacet
  facet normal 0 0 1
    outer loop
      vertex -1.84062 4.64888 12
      vertex -1.84062 -4.64888 12
      vertex -1.54508 -4.75528 12
    endloop
  endfacet
  facet normal -0 0 1
    outer loop
      vertex -2.1289 4.52414 12
      vertex -1.84062 -4.64888 12
      vertex -1.84062 4.64888 12
    endloop
  endfacet
  facet normal 0 0 1
    outer loop
      vertex -2.1289 4.52414 12
      vertex -2.1289 -4.52414 12
      vertex -1.84062 -4.64888 12
    endloop
  endfacet
  facet normal -0 0 1
    outer loop
      vertex -2.40877 4.38153 12
      vertex -2.1289 -4.52414 12
      vertex -2.1289 4.52414 12
    endloop
  endfacet
  facet normal 0 0 1
    outer loop
      vertex -2.40877 4.38153 12
      vertex -2.40877 -4.38153 12
      vertex -2.1289 -4.52414 12
    endloop
  endfacet
  facet normal -0 0 1
    outer loop
      vertex -2.67913 4.22164 12
      vertex -2.40877 -4.38153 12
      vertex -2.40877 4.38153 12
    endloop
  endfacet
  facet normal 0 0 1
    outer loop
      vertex -2.67913 4.22164 12
      vertex -2.67913 -4.22164 12
      vertex -2.40877 -4.38153 12
    endloop
  endfacet
  facet normal -0 0 1
    outer loop
      vertex -2.93893 4.04508 12
      vertex -2.67913 -4.22164 12
      vertex -2.67913 4.22164 12
    endloop
  endfacet
  facet normal 0 0 1
    outer loop
      vertex -2.93893 4.04508 12
      vertex -2.93893 -4.04508 12
      vertex -2.67913 -4.22164 12
    endloop
  endfacet
  facet normal -0 0 1
    outer loop
      vertex -3.18712 3.85257 12
      vertex -2.93893 -4.04508 12
      vertex -2.93893 4.04508 12
    endloop
  endfacet
  facet normal 0 0 1
    outer loop
      vertex -3.18712 3.85257 12
      vertex -3.18712 -3.85257 12
      vertex -2.93893 -4.04508 12
    endloop
  endfacet
  facet normal -0 0 1
    outer loop
      vertex -3.42274 3.64484 12
      vertex -3.18712 -3.85257 12
      vertex -3.18712 3.85257 12
    endloop
  endfacet
  facet normal 0 0 1
    outer loop
      vertex -3.42274 3.64484 12
      vertex -3.42274 -3.64484 12
      vertex -3.18712 -3.85257 12
    endloop
  endfacet
  facet normal -0 0 1
    outer loop
      vertex -3.64484 3.42274 12
      vertex -3.42274 -3.64484 12
      vertex -3.42274 3.64484 12
    endloop
  endfacet
  facet normal 0 0 1
    outer loop
      vertex -3.64484 3.42274 12
      vertex -3.64484 -3.42274 12
      vertex -3.42274 -3.64484 12
    endloop
  endfacet
  facet normal -0 0 1
    outer loop
      vertex -3.85257 3.18712 12
      vertex -3.64484 -3.42274 12
      vertex -3.64484 3.42274 12
    endloop
  endfacet
  facet normal 0 0 1
    outer loop
      vertex -3.85257 3.18712 12
      vertex -3.85257 -3.18712 12
      vertex -3.64484 -3.42274 12
    endloop
  endfacet
  facet normal -0 0 1
    outer loop
      vertex -4.04508 2.93893 12
      vertex -3.85257 -3.18712 12
      vertex -3.85257 3.18712 12
    endloop
  endfacet
  facet normal 0 0 1
    outer loop
      vertex -4.04508 2.93893 12
      vertex -4.04508 -2.93893 12
      vertex -3.85257 -3.18712 12
    endloop
  endfacet
  facet normal -0 0 1
    outer loop
      vertex -4.22164 2.67913 12
      vertex -4.04508 -2.93893 12
      vertex -4.04508 2.93893 12
    endloop
  endfacet
  facet normal 0 0 1
    outer loop
      vertex -4.22164 2.67913 12
      vertex -4.22164 -2.67913 12
      vertex -4.04508 -2.93893 12
    endloop
  endfacet
  facet normal -0 0 1
    outer loop
      vertex -4.38153 2.40877 12
      vertex -4.22164 -2.67913 12
      vertex -4.22164 2.67913 12
    endloop
  endfacet
  facet normal 0 0 1
    outer loop
      vertex -4.38153 2.40877 12
      vertex -4.38153 -2.40877 12
      vertex -4.22164 -2.67913 12
    endloop
  endfacet
  facet normal -0 0 1
    outer loop
      vertex -4.52414 2.1289 12
      vertex -4.38153 -2.40877 12
      vertex -4.38153 2.40877 12
    endloop
  endfacet
  facet normal 0 0 1
    outer loop
      vertex -4.52414 2.1289 12
      vertex -4.52414 -2.1289 12
      vertex -4.38153 -2.40877 12
    endloop
  endfacet
  facet normal -0 0 1
    outer loop
      vertex -4.64888 1.84062 12
      vertex -4.52414 -2.1289 12
      vertex -4.52414 2.1289 12
    endloop
  endfacet
  facet normal 0 0 1
    outer loop
      vertex -4.64888 1.84062 12
      vertex -4.64888 -1.84062 12
      vertex -4.52414 -2.1289 12
    endloop
  endfacet
  facet normal -0 0 1
    outer loop
      vertex -4.75528 1.54508 12
      vertex -4.64888 -1.84062 12
      vertex -4.64888 1.84062 12
    endloop
  endfacet
  facet normal 0 0 1
    outer loop
      vertex -4.75528 1.54508 12
      vertex -4.75528 -1.54508 12
      vertex -4.64888 -1.84062 12
    endloop
  endfacet
  facet normal -0 0 1
    outer loop
      vertex -4.84292 1.24345 12
      vertex -4.75528 -1.54508 12
      vertex -4.75528 1.54508 12
    endloop
  endfacet
  facet normal 0 0 1
    outer loop
      vertex -4.84292 1.24345 12
      vertex -4.84292 -1.24345 12
      vertex -4.75528 -1.54508 12
    endloop
  endfacet
  facet normal -0 0 1
    outer loop
      vertex -4.91144 0.936907 12
      vertex -4.84292 -1.24345 12
      vertex -4.84292 1.24345 12
    endloop
  endfacet
  facet normal 0 0 1
    outer loop
      vertex -4.91144 0.936907 12
      vertex -4.91144 -0.936907 12
      vertex -4.84292 -1.24345 12
    endloop
  endfacet
  facet normal -0 0 1
    outer loop
      vertex -4.96057 0.626666 12
      vertex -4.91144 -0.936907 12
      vertex -4.91144 0.936907 12
    endloop
  endfacet
  facet normal 0 0 1
    outer loop
      vertex -4.96057 0.626666 12
      vertex -4.96057 -0.626666 12
      vertex -4.91144 -0.936907 12
    endloop
  endfacet
  facet normal -0 0 1
    outer loop
      vertex -4.99013 0.313953 12
      vertex -4.96057 -0.626666 12
      vertex -4.96057 0.626666 12
    endloop
  endfacet
  facet normal 0 0 1
    outer loop
      vertex -4.99013 0.313953 12
      vertex -4.99013 -0.313953 12
      vertex -4.96057 -0.626666 12
    endloop
  endfacet
  facet normal 0 -0 1
    outer loop
      vertex -4.99013 -0.313953 12
      vertex -4.99013 0.313953 12
      vertex -5 6.12303e-016 12
    endloop
  endfacet
endsolid OpenSCAD_Model
