solid OpenSCAD_Model
  facet normal 0 0 -1
    outer loop
      vertex 1.5 0 0
      vertex 1 4 0
      vertex 1.5 4 0
    endloop
  endfacet
  facet normal 0 0 -1
    outer loop
      vertex 0 0 0
      vertex 1 4 0
      vertex 1.5 0 0
    endloop
  endfacet
  facet normal 0 0 -1
    outer loop
      vertex 0 6 0
      vertex 1 4 0
      vertex 0 0 0
    endloop
  endfacet
  facet normal 0 0 -1
    outer loop
      vertex 1 4 0
      vertex 0 6 0
      vertex 1 6 0
    endloop
  endfacet
  facet normal -0 0 1
    outer loop
      vertex 0 6 10
      vertex 1 4.28444 10
      vertex 1 6 10
    endloop
  endfacet
  facet normal 0 0 1
    outer loop
      vertex 1 4.28444 10
      vertex 0 6 10
      vertex 0 4.28444 10
    endloop
  endfacet
  facet normal 0 1 -0
    outer loop
      vertex 1.5 4 0
      vertex 1 4 9.80083
      vertex 1.5 4 9.80083
    endloop
  endfacet
  facet normal 0 1 0
    outer loop
      vertex 1 4 9.80083
      vertex 1.5 4 0
      vertex 1 4 0
    endloop
  endfacet
  facet normal 1 0 0
    outer loop
      vertex 1 4 9.80083
      vertex 1 6 10
      vertex 1 4.28444 10
    endloop
  endfacet
  facet normal 1 0 0
    outer loop
      vertex 1 6 10
      vertex 1 4 9.80083
      vertex 1 6 0
    endloop
  endfacet
  facet normal 1 0 0
    outer loop
      vertex 1 6 0
      vertex 1 4 9.80083
      vertex 1 4 0
    endloop
  endfacet
  facet normal 0 1 -0
    outer loop
      vertex 1 6 0
      vertex 0 6 10
      vertex 1 6 10
    endloop
  endfacet
  facet normal 0 1 0
    outer loop
      vertex 0 6 10
      vertex 1 6 0
      vertex 0 6 0
    endloop
  endfacet
  facet normal -1 0 0
    outer loop
      vertex 0 6 0
      vertex 0 4.28444 10
      vertex 0 6 10
    endloop
  endfacet
  facet normal -1 0 0
    outer loop
      vertex 0 0 7
      vertex 0 6 0
      vertex 0 0 0
    endloop
  endfacet
  facet normal -1 0 0
    outer loop
      vertex 0 6 0
      vertex 0 0 7
      vertex 0 4.28444 10
    endloop
  endfacet
  facet normal 0 -1 0
    outer loop
      vertex 0 0 0
      vertex 1.5 0 7
      vertex 0 0 7
    endloop
  endfacet
  facet normal 0 -1 -0
    outer loop
      vertex 1.5 0 7
      vertex 0 0 0
      vertex 1.5 0 0
    endloop
  endfacet
  facet normal 1 -0 0
    outer loop
      vertex 1.5 0 7
      vertex 1.5 4 0
      vertex 1.5 4 9.80083
    endloop
  endfacet
  facet normal 1 0 0
    outer loop
      vertex 1.5 4 0
      vertex 1.5 0 7
      vertex 1.5 0 0
    endloop
  endfacet
  facet normal 0 -0.573577 0.819152
    outer loop
      vertex 1 4.28444 10
      vertex 0 4.28444 10
      vertex 1 4 9.80083
    endloop
  endfacet
  facet normal 0 -0.573576 0.819152
    outer loop
      vertex 1 4 9.80083
      vertex 1.5 0 7
      vertex 1.5 4 9.80083
    endloop
  endfacet
  facet normal 5.04233e-008 -0.573576 0.819152
    outer loop
      vertex 0 0 7
      vertex 1 4 9.80083
      vertex 0 4.28444 10
    endloop
  endfacet
  facet normal 0 -0.573576 0.819152
    outer loop
      vertex 1 4 9.80083
      vertex 0 0 7
      vertex 1.5 0 7
    endloop
  endfacet
endsolid OpenSCAD_Model
